<?xml version="1.0" encoding="utf-8"?>
<!-- Generator: Adobe Illustrator 23.0.5, SVG Export Plug-In . SVG Version: 6.00 Build 0)  -->
<svg version="1.1" id="Layer_1" xmlns="http://www.w3.org/2000/svg" xmlns:xlink="http://www.w3.org/1999/xlink" x="0px" y="0px"
	 viewBox="0 0 1700 1178" style="enable-background:new 0 0 1700 1178;" xml:space="preserve">
<style type="text/css">
	.st0{fill:none;}
	.st1{fill:#FFFFFF;}
	.st2{opacity:0.31;fill:url(#SVGID_3_);enable-background:new    ;}
	.st3{opacity:0.32;fill:url(#SVGID_4_);enable-background:new    ;}
	.st4{fill:#262626;}
</style>
<pattern  y="1178" width="490.3" height="490.3" patternUnits="userSpaceOnUse" id="SVGID_1_" viewBox="0 -490.3 490.3 490.3" style="overflow:visible;">
	<g>
		<rect y="-490.3" class="st0" width="490.3" height="490.3"/>
		<g>
			<polygon class="st0" points="0,0 490.3,0 490.3,-490.3 0,-490.3 			"/>
			<path class="st1" d="M180.7,0c0.3-0.5,0.7-1,0.9-1.6c0.2-0.4,0.2-1.2,0.1-1.3c-0.7-0.3-1.4-0.5-2.2-0.5c-0.3,0-0.8,0.6-0.9,0.9
				c-0.1,0.8,0,1.6,0.1,2.4C179.4,0,180,0,180.7,0z"/>
			<path class="st1" d="M490.3-387.5c-0.3,0.1-0.8,0.2-1,0.4c-0.3,0.5-0.5,1.1-0.7,1.6c0.5,0.1,1.1,0.3,1.6,0.4
				C490.3-385.9,490.3-386.7,490.3-387.5z"/>
			<path class="st1" d="M0-384.8c0.8,0.1,1.3-0.2,1.3-1.1c0-0.8-0.3-1.3-1.3-1.1C0-386.3,0-385.6,0-384.8z"/>
			<path class="st1" d="M122.8-326.9c0.9-0.5,1.7-1,2.6-1.5c0.1-0.1,0.2-0.3,0.2-0.4c0.1-1,0.2-1.9,0.1-2.9c0-1-1.8-2.1-2.9-1.9
				c-1.7,0.3-2.3,1.2-2.1,2.9c0,0.3-0.1,0.5-0.2,0.8c-0.1,0.6-0.6,1.3-0.4,1.7c0.3,0.5,1.1,0.7,1.7,1c0.2,0.1,0.4,0,0.6,0
				C122.7-327.1,122.7-327,122.8-326.9z"/>
			<path class="st1" d="M167.3-227.3c-1,0.6-1.7,1.1-2.4,1.6c-0.3,0.3-0.5,0.7-0.9,1c-0.9,0.6-0.9,1.5-0.3,2.1
				c0.4,0.4,1.4,0.5,2,0.4c0.6-0.1,1.4-0.4,1.8-0.9c0.7-0.8,1.2-1.8,1.6-2.8C169.1-226.2,168.1-226.8,167.3-227.3z"/>
			<path class="st1" d="M410.5-467.6c1.1,0,2.2,0,2.3-1.6c0-0.2,0.3-0.4,0.5-0.5c1-0.6,1.1-1.1,0.4-2.1c-0.4-0.6-1.6-0.9-2.2-0.3
				c-0.9,0.9-1.8,1.8-2.6,2.7c-0.3,0.3-0.5,1-0.4,1.2c0.2,0.3,0.8,0.4,1.2,0.6C410-467.6,410.3-467.6,410.5-467.6z"/>
			<path class="st1" d="M27.7-403.1c0.3,0.7,0.4,1.7,0.9,2c1.1,0.5,1.6-0.5,2.1-1.3c0.1-0.2,0.4-0.4,0.6-0.6
				c0.5-0.5,0.5-1.1-0.1-1.6c-0.2-0.1-0.4-0.3-0.5-0.5c-0.3-0.5-0.2-1.4-1.1-1c-0.8,0.3-1.8,0.7-1.6,2c0,0.3,0,0.6,0,1
				C27.8-403.2,27.8-403.1,27.7-403.1z"/>
			<path class="st1" d="M104.6-297.7c1.4,0.2,2.1-0.9,2.7-1.7c0.7-0.8,0-2.2-1.1-2.2c-1.1-0.1-2.5-0.4-2.6,1.5c0,0.1,0,0.2-0.1,0.2
				c-0.5,0.4-1.2,0.9-0.6,1.6C103.3-297.9,104-297.8,104.6-297.7z"/>
			<path class="st1" d="M424-246c1,0.9,2.2,0.6,2.8-0.7c0.5-1.1-0.8-1.3-1.2-2c-0.1-0.2-0.9-0.2-1.1,0.1c-0.7,0.7-1.3,1.4-1.9,2.2
				c-0.1,0.1,0,0.5,0.1,0.8C423-245.8,423.4-245.9,424-246z"/>
			<path class="st1" d="M276.1-159.1c-0.3-0.4-0.8-1.2-1.5-1.5c-0.7-0.4-1,0.4-1,1c-0.1,0.8,0.1,1.5-0.8,2c-0.2,0.1-0.2,0.7-0.1,0.9
				c0.1,0.3,0.5,0.5,0.8,0.5C274.5-156.2,276.1-157.7,276.1-159.1z"/>
			<path class="st1" d="M40.8-49.5c1-0.8,2-1.4,2.9-2.1c0.2-0.1,0-1-0.2-1c-0.6-0.1-1.3-0.2-1.8-0.1c-0.6,0.1-1.2,0.5-1.8,0.8
				c-0.3,0.2-0.8,0.9-0.7,1.1C39.5-50.4,40.1-50.1,40.8-49.5z"/>
			<path class="st1" d="M80.3-60c0.5-0.4,1.3-0.8,1.4-1.3c0.1-1-0.9-1.8-1.9-1.7c-1,0-1.3,0.7-1.3,1.5C78.5-60.4,79.2-60.2,80.3-60z
				"/>
			<path class="st1" d="M211.6-109.7c1,0.7,2.1,1.1,3.3,0.8c0.3-0.1,0.6-0.8,0.6-1.2c0-0.3-0.6-0.8-0.9-0.7c-1,0.2-2,0.5-3,0.8
				C211.7-109.9,211.7-109.8,211.6-109.7z"/>
			<path class="st1" d="M262.7-251.9c0.6-0.5,1.3-1.2,1.3-1.2c-0.5-0.7-1-1.2-1.6-1.8c-0.5,0.6-1,1.2-1.5,1.7
				C261.4-252.9,261.9-252.5,262.7-251.9z"/>
			<path class="st1" d="M115.8-381.3c0.6-0.6,1.2-1,1.3-1.4c0.2-0.7-0.8-1.8-1.4-1.7c-1,0.1-1.3,0.9-1.2,1.6
				C114.5-382.3,115.2-381.9,115.8-381.3z"/>
			<path class="st1" d="M6.3-4.4C6.5-4,6.6-3.3,7-2.9c0.2,0.2,1.1,0,1.5-0.3C9.1-3.6,9.8-4.1,9.3-5C9.2-5.2,8.5-5.3,8.1-5.2
				C7.5-5.1,7-4.7,6.3-4.4z"/>
			<path class="st1" d="M253.2-248.3c0.3,0,0.7,0.1,1,0c0.3-0.2,0.8-0.6,0.8-0.9c0-0.3-0.4-0.8-0.8-0.8c-0.5-0.1-1.2-0.2-1.7,0
				c-0.4,0.1-1,0.5-1.1,0.8c-0.2,0.7,0.4,0.9,1.1,0.9C252.8-248.3,253-248.3,253.2-248.3C253.2-248.3,253.2-248.3,253.2-248.3z"/>
			<path class="st1" d="M246.4-141.7c-0.4-0.4-0.6-1-1.1-1.1c-0.8-0.2-1.1,0.5-1.2,1.2c0,0.3-0.1,0.6,0,0.8c0.3,0.5,0.6,0.9,1,1.4
				c0.3-0.4,0.7-0.9,0.9-1.3c0.1-0.2,0.1-0.5,0.1-0.7C246.2-141.5,246.3-141.6,246.4-141.7z"/>
			<path class="st1" d="M49.4-59c0-0.7-2.2-2.2-2.8-1.9c-0.2,0.1-0.5,0.4-0.5,0.5c0.5,0.7,0.9,1.5,1.5,2c0.3,0.2,1-0.1,1.5-0.3
				C49.3-58.7,49.4-58.9,49.4-59z"/>
			<path class="st1" d="M49.9-63.8c-0.1-1.1-0.2-1.8-0.4-2.5c0-0.1-0.4-0.3-0.6-0.3c-0.2,0-0.3,0.3-0.4,0.5
				c-0.2,0.5-0.4,0.9-0.6,1.4c-0.1,0.5-0.3,1-0.2,1.5c0.1,0.2,0.8,0.5,1.1,0.4C49.3-63.1,49.7-63.6,49.9-63.8z"/>
			<path class="st1" d="M164.1-230c-0.2-0.1-0.7-0.7-0.8-0.7c-0.7,0.5-1.2,1.1-1.8,1.7c0.4,0.3,0.8,0.8,1.2,0.8
				C163.6-228,164.1-228.6,164.1-230z"/>
			<path class="st1" d="M136-94.4c-1.2,0-2,0.8-1.9,1.7c0,0.3,0.5,0.6,0.7,0.9c0.6-0.6,1.3-1.2,1.9-1.8
				C136.8-93.6,136.2-94.2,136-94.4z"/>
			<path class="st1" d="M285.3-294.6c0.7-0.7,1.4-1.2,2-1.9c0.1-0.1-0.1-0.8-0.3-0.9c-0.3-0.1-0.8,0-1.1,0.1
				c-0.4,0.2-0.7,0.5-1.1,0.9c-0.2,0.2-0.6,0.6-0.5,0.8C284.5-295.2,284.9-295,285.3-294.6z"/>
			<path class="st1" d="M18.8-7.1c-0.1-2.2-0.9-2.9-2.3-2.3c-0.6,0.3-0.9,0.9-0.3,1.3C16.9-7.6,17.8-7.4,18.8-7.1z"/>
			<path class="st1" d="M408.5-475.7c-1.1,0.2-1.6,0.6-1.5,1.5c0.1,0.4,0.6,0.8,0.9,1.2c0.6-0.5,1.2-1,1.7-1.5
				C409.3-475,408.9-475.3,408.5-475.7z"/>
			<path class="st1" d="M397.1-279.6c0.2-0.2,0.6-0.5,0.8-0.9c0.2-0.5-1-1.6-1.9-1.6c-0.3,0-0.7,0.4-0.8,0.6
				C395.1-280.7,396.1-279.7,397.1-279.6z"/>
			<path class="st1" d="M115.8-263.5c0.5-0.6,1-1.1,1.4-1.7c0.2-0.3,0.1-0.8,0-1.1c-0.1-0.1-0.8-0.2-0.9-0.1
				c-0.5,0.4-0.9,0.9-1.1,1.5c-0.1,0.4,0.1,0.9,0.2,1.3C115.5-263.5,115.7-263.5,115.8-263.5z"/>
			<path class="st1" d="M459.3-356.6c-0.7,0.6-1.2,1-1.7,1.4c0.4,0.3,0.7,0.9,1.1,0.9c0.7,0,1.6,0,1.6-1
				C460.2-355.6,459.7-356,459.3-356.6z"/>
			<path class="st1" d="M117.3-204.3c0.6-0.6,1.2-1,1.2-1.4c0.1-0.9-0.7-0.9-1.4-0.9c-0.7,0-1.3,0.2-1.2,1
				C116.1-205.2,116.7-204.9,117.3-204.3z"/>
			<path class="st1" d="M203.8-112.7c0.7-0.8,1.2-1.4,1.6-1.9c0-0.1-0.9-0.9-0.9-0.8c-0.5,0.4-1,0.9-1.4,1.4
				C203-113.9,203.5-113.4,203.8-112.7z"/>
			<path class="st1" d="M385.1-158.6c-0.7-0.6-1.1-1-1.5-1.3c-0.3,0.4-0.8,0.9-0.9,1.3c0,0.4,0.5,0.8,0.8,1.2
				C384-157.7,384.4-158,385.1-158.6z"/>
			<path class="st1" d="M383.8-188.8c-0.5,0.6-0.7,0.9-1,1.3c0.4,0.3,0.8,0.9,1.2,0.9c0.4,0,0.8-0.6,1.2-0.9
				C384.7-187.9,384.4-188.3,383.8-188.8z"/>
			<path class="st1" d="M381.9-338.6c-0.6-0.5-0.9-0.9-1.3-1.2c-0.3,0.4-0.8,0.8-0.8,1.2c0,0.4,0.5,0.8,0.8,1.2
				C380.9-337.7,381.3-338.1,381.9-338.6z"/>
			<path class="st1" d="M287.8-180.9c-0.5-0.5-0.9-0.9-1.2-1.2c-0.3,0.4-0.8,0.8-0.8,1.2c0,0.4,0.5,0.7,0.8,1.1
				C286.9-180,287.3-180.4,287.8-180.9z"/>
			<path class="st1" d="M362.6-138.2c-0.6-0.5-0.9-0.8-1.3-1.1c-0.3,0.5-0.7,0.9-0.8,1.4c0,0.2,0.6,0.8,0.9,0.8
				C361.8-137.3,362.1-137.7,362.6-138.2z"/>
			<path class="st1" d="M73.5-390.5c-0.6-0.5-0.9-1-1.2-1c-0.4,0.1-0.9,0.7-0.9,1c0.1,0.4,0.6,0.8,0.9,1.2
				C72.7-389.6,73-390,73.5-390.5z"/>
			<path class="st1" d="M361.3-21c-0.6,0.6-0.9,0.9-1.3,1.3c0.4,0.3,0.7,0.9,1.1,0.8c0.4,0,0.8-0.5,1.1-0.9
				C362.3-20,361.8-20.5,361.3-21z"/>
			<path class="st1" d="M123.3-299.9c-0.5,0.5-0.8,0.9-1.1,1.2c0.4,0.3,0.8,0.8,1.1,0.8c0.4,0,0.8-0.5,1.1-0.8
				C124.1-299,123.8-299.4,123.3-299.9z"/>
			<path class="st1" d="M222.6-75.6c-0.5,0.6-0.8,0.9-1.1,1.3c0.4,0.3,0.8,0.8,1.2,0.8c0.3,0,0.9-0.6,0.9-0.9
				C223.7-74.7,223.1-75,222.6-75.6z"/>
			<path class="st1" d="M177.6-97.8c-0.4,0.6-0.7,0.9-0.9,1.3c0.4,0.3,0.8,0.8,1.3,0.8c0.3,0,0.7-0.6,1-0.9
				C178.6-96.9,178.2-97.3,177.6-97.8z"/>
			<path class="st1" d="M111.8-365.7c-0.5,0.6-0.9,1-0.9,1.3c0,0.3,0.6,0.8,0.9,0.8c0.4,0,0.8-0.5,1.1-0.8
				C112.6-364.7,112.3-365.1,111.8-365.7z"/>
			<path class="st1" d="M226.4-166.4c-0.5-0.6-1-1.2-1.4-1.7c-0.3,0.2-0.8,0.5-0.8,0.7c-0.1,1.3,1.2,0.9,1.8,1.4
				C226.1-166.2,226.2-166.3,226.4-166.4z"/>
			<path class="st1" d="M337.3-7.8c-0.4,0.5-0.9,1-0.8,1.2c0.1,0.3,0.7,0.8,1,0.8c0.4,0,0.8-0.5,1.1-0.8
				C338.2-6.9,337.8-7.2,337.3-7.8z"/>
			<path class="st1" d="M368.7-250.2c-0.6-0.5-0.9-1-1.3-1c-0.3,0-0.8,0.6-0.8,0.9c0,0.4,0.5,0.9,0.8,1
				C367.7-249.3,368.1-249.8,368.7-250.2z"/>
			<path class="st1" d="M224-17c-0.5-0.5-0.8-0.8-1.2-1.2c-0.3,0.3-0.7,0.7-0.7,1c0,0.4,0.5,0.8,0.7,1.1
				C223.2-16.3,223.5-16.6,224-17z"/>
			<path class="st1" d="M230.2-455.1c0.2-0.4,0.6-0.8,0.6-1.2c0-0.3-0.5-0.6-0.8-1c-0.3,0.3-0.8,0.6-0.8,0.9c0,0.4,0.4,0.8,0.6,1.2
				C229.9-455.1,230-455.1,230.2-455.1z"/>
			<path class="st1" d="M482-195.3c-0.6-0.5-0.9-1-1.3-1c-0.3,0-0.6,0.5-0.9,0.8c0.4,0.3,0.7,0.7,1.1,0.9
				C481-194.6,481.4-195,482-195.3z"/>
			<path class="st1" d="M210.1-380.6c-0.7-0.4-1.1-0.8-1.4-0.8c-0.3,0.1-0.8,0.6-0.8,0.9c0,0.3,0.5,0.8,0.9,0.8
				C209.1-379.6,209.4-380.1,210.1-380.6z"/>
			<path class="st1" d="M255-84.4c-0.2,0.4-0.6,0.7-0.6,1c0,0.3,0.5,0.6,0.8,1c0.3-0.3,0.8-0.6,0.8-0.9c0.1-0.3-0.4-0.7-0.6-1.1
				C255.3-84.4,255.2-84.4,255-84.4z"/>
			<path class="st1" d="M225.8-244.4c-0.4,0.7-0.9,1.1-0.9,1.4c0.1,0.3,0.6,0.8,0.9,0.8c0.3,0,0.8-0.5,0.8-0.9
				C226.8-243.4,226.3-243.8,225.8-244.4z"/>
			<path class="st1" d="M240-53.4c-0.4,0.7-0.8,1.1-0.7,1.4c0,0.3,0.5,0.5,0.8,0.8c0.3-0.3,0.7-0.6,0.8-1
				C240.9-52.4,240.5-52.8,240-53.4z"/>
			<path class="st1" d="M468.5-264c0.4-0.7,0.8-1,0.8-1.4c0-0.3-0.6-0.8-0.8-0.8c-0.4,0.1-0.8,0.5-0.9,0.9
				C467.6-265,468.1-264.7,468.5-264z"/>
			<path class="st1" d="M193.8-241.2c-0.6-0.4-1-0.8-1.3-0.7c-0.3,0.1-0.6,0.5-0.8,0.8c0.3,0.3,0.6,0.7,1,0.8
				C192.9-240.2,193.2-240.7,193.8-241.2z"/>
			<path class="st1" d="M422.3-265.5c-0.7-0.4-1.1-0.7-1.4-0.7c-0.3,0-0.8,0.7-0.7,0.8c0.1,0.3,0.6,0.7,0.9,0.8
				C421.4-264.5,421.7-265,422.3-265.5z"/>
			<path class="st1" d="M197.6-129.1c-0.4-0.2-0.7-0.6-1-0.6c-0.3,0-0.8,0.5-0.8,0.8c0,0.3,0.4,0.8,0.7,0.9c0.3,0,0.7-0.4,1.1-0.6
				C197.6-128.8,197.6-128.9,197.6-129.1z"/>
			<path class="st1" d="M146.3-335.1c-0.6-0.4-1-0.8-1.2-0.8c-0.4,0.1-0.6,0.5-0.9,0.8c0.3,0.3,0.6,0.7,1,0.8
				C145.4-334.2,145.8-334.7,146.3-335.1z"/>
			<path class="st1" d="M109.7-302.9c-0.3-0.2-0.7-0.6-1-0.6c-0.3,0-0.8,0.5-0.8,0.8c0,0.3,0.4,0.8,0.7,0.8c0.3,0,0.7-0.3,1.1-0.5
				C109.7-302.6,109.7-302.8,109.7-302.9z"/>
			<path class="st1" d="M202-373.6c-0.7-0.4-1.1-0.8-1.3-0.7c-0.3,0.1-0.7,0.6-0.8,0.9c0,0.2,0.6,0.7,0.8,0.7
				C201-372.7,201.4-373.1,202-373.6z"/>
			<path class="st1" d="M247.5-376.6c-0.7-0.4-1.1-0.8-1.4-0.8c-0.3,0-0.8,0.6-0.7,0.8c0.1,0.3,0.5,0.7,0.9,0.8
				C246.5-375.7,246.8-376.1,247.5-376.6z"/>
			<path class="st1" d="M372.8-379.5c-0.7-0.5-1-0.9-1.4-0.9c-0.3,0-0.5,0.5-0.8,0.8c0.3,0.3,0.6,0.7,1,0.8
				C371.8-378.7,372.2-379.1,372.8-379.5z"/>
			<path class="st1" d="M36.1-385.6c-0.6-0.4-1-0.8-1.2-0.8c-0.4,0.1-0.6,0.5-1,0.8c0.3,0.3,0.6,0.7,1,0.8
				C35.2-384.8,35.5-385.2,36.1-385.6z"/>
			<path class="st1" d="M289.6-456.6c-0.4,0.6-0.9,0.9-0.8,1.2c0.1,0.4,0.5,0.6,0.8,1c0.3-0.3,0.7-0.6,0.8-0.9
				C290.5-455.7,290-456.1,289.6-456.6z"/>
			<path class="st1" d="M318.2-145.2c-0.7-0.4-1.1-0.8-1.3-0.7c-0.3,0.1-0.6,0.6-0.8,0.9c0.3,0.3,0.6,0.7,0.9,0.7
				C317.3-144.2,317.6-144.7,318.2-145.2z"/>
			<path class="st1" d="M154.2-146.8c0.4-0.6,0.9-0.9,0.8-1.2c-0.1-0.4-0.5-0.6-0.8-0.9c-0.3,0.3-0.7,0.6-0.8,0.9
				C153.3-147.8,153.7-147.4,154.2-146.8z"/>
			<path class="st1" d="M48-170.7c-0.4,0.7-0.8,1.1-0.8,1.4c0,0.3,0.5,0.5,0.8,0.8c0.3-0.3,0.7-0.6,0.8-1
				C48.9-169.7,48.4-170,48-170.7z"/>
			<path class="st1" d="M114.6-268.1c0.4-0.6,0.9-0.9,0.9-1.3c0-0.3-0.5-0.5-0.8-0.8c-0.3,0.3-0.7,0.6-0.8,1
				C113.8-269,114.3-268.7,114.6-268.1z"/>
			<path class="st1" d="M412.8-137.2c-0.4,0.6-0.8,1-0.7,1.3c0.1,0.3,0.6,0.6,0.9,0.8c0.2-0.3,0.7-0.6,0.7-0.9
				C413.7-136.3,413.3-136.6,412.8-137.2z"/>
			<path class="st1" d="M423-342.5c-0.4,0.7-0.9,1-0.8,1.3c0,0.3,0.5,0.6,0.8,0.9c0.3-0.3,0.8-0.6,0.8-0.9
				C423.9-341.4,423.5-341.8,423-342.5z"/>
			<path class="st1" d="M140-404.1c-0.4-0.2-0.7-0.6-1.1-0.6c-0.3,0-0.7,0.5-0.7,0.8c0,0.3,0.5,0.8,0.8,0.8c0.3,0,0.7-0.4,1.1-0.6
				C140-403.8,140-403.9,140-404.1z"/>
			<path class="st1" d="M363.4-451.5c-0.3-0.2-0.7-0.7-1-0.7c-0.3,0-0.8,0.5-0.8,0.8c0,0.3,0.4,0.8,0.7,0.9c0.3,0,0.7-0.3,1.1-0.5
				C363.4-451.2,363.4-451.4,363.4-451.5z"/>
			<path class="st1" d="M482-185.6c-0.7-0.4-1.1-0.8-1.3-0.7c-0.3,0.1-0.6,0.6-0.8,0.9c0.3,0.3,0.6,0.7,0.9,0.7
				C481-184.7,481.3-185.1,482-185.6z"/>
			<path class="st1" d="M484.6-281.8c-0.4,0.6-0.8,1-0.7,1.3c0,0.3,0.5,0.6,0.8,0.8c0.3-0.3,0.7-0.6,0.8-0.9
				C485.5-280.8,485.1-281.2,484.6-281.8z"/>
			<path class="st1" d="M284.5-307c-0.4,0.6-0.9,1-0.8,1.2c0.1,0.3,0.6,0.6,0.9,0.9c0.3-0.3,0.7-0.6,0.7-0.9
				C285.4-306.1,285-306.4,284.5-307z"/>
			<path class="st1" d="M246.1-57.4c0.6-0.7,1.1-1.2,1.5-1.8c-0.2-0.1-0.5-0.4-0.5-0.4c-0.5,0.4-1.1,0.9-1.5,1.4
				C245.6-58.1,245.9-57.7,246.1-57.4z"/>
			<path class="st1" d="M73.5-49.4c-0.3-0.1-0.7-0.4-0.9-0.4c-0.3,0.1-0.6,0.5-0.9,0.7c0.3,0.2,0.6,0.7,0.8,0.7
				c0.4,0,0.7-0.4,1.1-0.6C73.5-49.1,73.5-49.2,73.5-49.4z"/>
			<path class="st1" d="M345.3-236.8c0.4-0.6,0.8-1,0.7-1.3c-0.1-0.3-0.6-0.7-0.8-0.7c-0.3,0-0.7,0.5-0.7,0.8
				C344.4-237.7,344.8-237.4,345.3-236.8z"/>
			<path class="st1" d="M83.5-73.1c0.4-0.6,0.8-1,0.7-1.3c-0.1-0.3-0.6-0.6-0.9-0.8c-0.2,0.3-0.7,0.6-0.7,0.9
				C82.6-73.9,83-73.6,83.5-73.1z"/>
			<path class="st1" d="M476.9-210.9c-0.7-0.4-1.1-0.8-1.3-0.7c-0.3,0.1-0.6,0.6-0.7,0.9c0,0.2,0.5,0.7,0.8,0.7
				C475.9-210,476.2-210.4,476.9-210.9z"/>
			<path class="st1" d="M214.1-102.7c-0.6-0.4-1-0.8-1.3-0.7c-0.3,0.1-0.8,0.5-0.7,0.8c0,0.3,0.5,0.7,0.8,0.8
				C213.1-101.8,213.4-102.2,214.1-102.7z"/>
			<path class="st1" d="M53.1-475.9c-0.4,0.7-0.8,1-0.8,1.3c0.1,0.3,0.5,0.7,0.8,0.7c0.2,0,0.7-0.5,0.7-0.7
				C53.8-474.9,53.5-475.2,53.1-475.9z"/>
			<path class="st1" d="M293.9-326c-0.6-0.4-1-0.8-1.3-0.8c-0.3,0.1-0.7,0.5-0.7,0.8c0,0.2,0.5,0.7,0.7,0.7
				C292.9-325.2,293.3-325.6,293.9-326z"/>
			<path class="st1" d="M41.7-35.1c-0.1,0.4-0.4,0.8-0.3,1.1c0.1,0.3,0.5,0.8,0.8,0.8c0.3,0,0.6-0.4,0.9-0.7
				c-0.2-0.3-0.5-0.6-0.7-0.8C42.1-34.8,41.9-35,41.7-35.1z"/>
			<path class="st1" d="M412-119.8c-0.5-0.3-0.8-0.7-1.1-0.7c-0.3,0-0.5,0.5-0.8,0.7c0.3,0.3,0.5,0.7,0.9,0.8
				C411.2-119,411.5-119.5,412-119.8z"/>
			<path class="st1" d="M438.3-485.8c-0.6-0.3-0.9-0.7-1.2-0.7c-0.3,0-0.5,0.5-0.7,0.7c0.3,0.3,0.5,0.7,0.9,0.7
				C437.5-484.9,437.8-485.3,438.3-485.8z"/>
			<path class="st1" d="M365.5-228.9c-0.5-0.4-0.8-0.8-1-0.7c-0.3,0.1-0.6,0.5-0.8,0.8c0.3,0.2,0.5,0.7,0.8,0.7
				C364.7-228.2,365-228.6,365.5-228.9z"/>
			<path class="st1" d="M243-22.6c-0.2,0.5-0.5,0.9-0.4,0.9c0.5,0.5,1,0.9,1.5,1.3c0,0,0.4-0.3,0.3-0.4
				C244.1-21.3,243.6-21.8,243-22.6z"/>
			<path class="st1" d="M239.1-92.5c-0.5-0.3-0.9-0.7-1.1-0.7c-0.3,0.1-0.5,0.5-0.8,0.8c0.3,0.2,0.6,0.6,0.8,0.6
				C238.4-91.8,238.7-92.2,239.1-92.5z"/>
			<path class="st1" d="M43-67.1c0.3-0.5,0.7-0.9,0.6-1.2c0-0.3-0.5-0.5-0.8-0.7c-0.2,0.3-0.6,0.5-0.7,0.8
				C42.2-67.9,42.6-67.6,43-67.1z"/>
			<path class="st1" d="M127.8-134.3c-0.4-0.4-0.7-0.6-1-0.8c-0.2,0.3-0.6,0.7-0.6,1c0,0.2,0.5,0.5,0.7,0.7
				C127.2-133.7,127.4-133.9,127.8-134.3z"/>
			<path class="st1" d="M51-401.9c-0.3,0.5-0.7,0.8-0.7,1.1c0,0.3,0.5,0.5,0.7,0.7c0.2-0.3,0.7-0.5,0.7-0.8
				C51.8-401.1,51.4-401.4,51-401.9z"/>
			<path class="st1" d="M322.9-24c0.3-0.6,0.6-0.9,0.6-1.2c0-0.3-0.4-0.6-0.6-0.9c-0.2,0.3-0.6,0.5-0.6,0.8
				C322.4-25,322.6-24.7,322.9-24z"/>
			<path class="st1" d="M409.9-213.9c-0.4,0.5-0.7,0.8-0.8,1.1c0,0.2,0.4,0.7,0.6,0.7c0.3,0,0.7-0.4,0.8-0.6
				C410.6-213,410.3-213.3,409.9-213.9z"/>
			<path class="st1" d="M78.4-271.6c-0.4,0.5-0.7,0.8-0.7,1.1c0,0.3,0.4,0.5,0.7,0.8c0.2-0.2,0.6-0.5,0.6-0.7
				C79-270.7,78.7-271,78.4-271.6z"/>
			<path class="st1" d="M80.3-285.6c0.3-0.4,0.7-0.7,0.7-0.9c-0.1-0.3-0.5-0.5-0.7-0.8c-0.2,0.2-0.6,0.5-0.6,0.7
				C79.7-286.3,80-286,80.3-285.6z"/>
			<path class="st1" d="M238.1-48c0.3-0.5,0.6-0.8,0.6-1.1c0-0.2-0.5-0.7-0.7-0.6c-0.3,0.1-0.6,0.4-0.7,0.7
				C237.3-48.7,237.7-48.5,238.1-48z"/>
			<path class="st1" d="M370.5-163.2c-0.5-0.4-0.8-0.8-1-0.7c-0.3,0.1-0.6,0.4-0.7,0.7c0,0.1,0.4,0.7,0.6,0.7
				C369.7-162.6,370-162.9,370.5-163.2z"/>
			<path class="st1" d="M90.5-253.7c0.4,0.4,0.7,0.7,1.1,1.1c0.2-0.2,0.5-0.5,0.5-0.5c-0.3-0.4-0.7-0.7-1.1-1.1
				C90.8-254.1,90.6-253.9,90.5-253.7z"/>
			<path class="st1" d="M221.2-3.5c-0.3,0.3-0.7,0.6-1,0.9c0.2,0.2,0.5,0.4,0.7,0.6c0.3-0.4,0.6-0.7,0.9-1.1
				C221.6-3.1,221.4-3.3,221.2-3.5z"/>
			<path class="st1" d="M436.1-336.1c-0.4-0.3-0.7-0.7-0.9-0.7c-0.3,0.1-0.5,0.4-0.8,0.6c0.3,0.3,0.5,0.6,0.8,0.7
				C435.4-335.4,435.7-335.8,436.1-336.1z"/>
			<path class="st1" d="M235.1-274.5c-0.6-0.3-0.9-0.6-1.2-0.6c-0.2,0-0.6,0.5-0.6,0.7c0,0.2,0.4,0.6,0.7,0.6
				C234.3-273.8,234.6-274.1,235.1-274.5z"/>
			<path class="st1" d="M325.5-306.9c-0.6-0.2-0.9-0.5-1.2-0.4c-0.3,0-0.5,0.4-0.7,0.6c0.3,0.2,0.6,0.4,0.9,0.4
				C324.8-306.2,325-306.5,325.5-306.9z"/>
			<path class="st1" d="M160.2-184.5c0.3-0.5,0.7-0.7,0.6-1c0-0.3-0.4-0.5-0.6-0.7c-0.3,0.3-0.6,0.5-0.7,0.8
				C159.5-185.2,159.9-184.9,160.2-184.5z"/>
			<path class="st1" d="M244.1-14.7c-0.5-0.3-0.8-0.7-1-0.6c-0.3,0.1-0.5,0.5-0.7,0.7c0.3,0.2,0.5,0.6,0.8,0.6
				C243.4-14,243.7-14.3,244.1-14.7z"/>
			<path class="st1" d="M61.1-470.6c0.3-0.4,0.7-0.7,0.7-0.9c0-0.3-0.4-0.5-0.6-0.8c-0.3,0.2-0.7,0.4-0.7,0.7
				C60.4-471.3,60.8-471,61.1-470.6z"/>
			<path class="st1" d="M231.9-8.6c0.4-0.4,0.8-0.7,0.7-0.9c-0.1-0.3-0.4-0.5-0.7-0.8c-0.2,0.2-0.6,0.4-0.7,0.7
				C231.3-9.4,231.6-9.1,231.9-8.6z"/>
			<path class="st1" d="M37.9-463.4c-0.4-0.4-0.7-0.8-0.9-0.7c-0.3,0.1-0.5,0.4-0.8,0.7c0.2,0.2,0.4,0.6,0.7,0.7
				C37.1-462.8,37.4-463.1,37.9-463.4z"/>
			<path class="st1" d="M444.3-300.7c0.3-0.5,0.6-0.8,0.6-1c-0.1-0.3-0.5-0.5-0.8-0.7c-0.2,0.3-0.5,0.5-0.5,0.8
				C443.6-301.4,444-301.2,444.3-300.7z"/>
			<path class="st1" d="M256.2-206.7c-0.3,0.5-0.6,0.8-0.6,1c0,0.3,0.4,0.4,0.7,0.7c0.2-0.2,0.6-0.5,0.6-0.7
				C256.9-206,256.5-206.2,256.2-206.7z"/>
			<path class="st1" d="M219.8-414.9c-0.3,0.4-0.6,0.7-0.6,1c0,0.2,0.5,0.7,0.6,0.6c0.3-0.1,0.6-0.4,0.7-0.7
				C220.6-414.2,220.2-414.5,219.8-414.9z"/>
			<path class="st1" d="M474.5-434.3c-0.4-0.2-0.7-0.5-0.8-0.5c-0.3,0.2-0.5,0.5-0.8,0.7c0.2,0.2,0.5,0.6,0.7,0.5
				C473.9-433.6,474.1-434,474.5-434.3z"/>
			<path class="st1" d="M47.3-440c-0.4-0.7-0.5-1.1-0.8-1.5c-0.2-0.2-0.6-0.1-0.9-0.1c0.1,0.3,0,0.7,0.2,0.8
				C46.1-440.5,46.6-440.3,47.3-440z"/>
			<path class="st1" d="M24.7-444.2c-0.3,0.5-0.6,0.7-0.6,1c0,0.3,0.4,0.5,0.6,0.7c0.2-0.3,0.6-0.5,0.7-0.8
				C25.5-443.5,25.1-443.8,24.7-444.2z"/>
			<path class="st1" d="M158.2-295.6c-0.4-0.4-0.7-0.7-0.9-0.7c-0.3,0-0.7,0.4-0.7,0.6c0,0.2,0.4,0.6,0.6,0.7
				C157.4-295,157.7-295.3,158.2-295.6z"/>
			<path class="st1" d="M398.7-488.8c-0.5-0.3-0.8-0.6-1-0.6c-0.2,0-0.6,0.4-0.6,0.6c0.1,0.3,0.4,0.6,0.6,0.7
				C398-488.1,398.3-488.4,398.7-488.8z"/>
			<path class="st1" d="M176.6-3.7c0.3-0.4,0.5-0.7,0.7-0.9c-0.3-0.2-0.5-0.5-0.8-0.5c-0.2,0-0.6,0.4-0.6,0.6
				C175.9-4.3,176.3-4.1,176.6-3.7z"/>
			<path class="st1" d="M56.1-202.7c-0.5-0.3-0.8-0.6-1-0.6c-0.2,0-0.5,0.4-0.6,0.7c0,0.1,0.4,0.5,0.6,0.5
				C55.3-202.1,55.6-202.4,56.1-202.7z"/>
			<path class="st1" d="M25.8-154.2c-0.5-0.3-0.8-0.6-1-0.6c-0.2,0.1-0.5,0.4-0.6,0.7c0,0.1,0.4,0.5,0.6,0.5
				C25-153.5,25.3-153.9,25.8-154.2z"/>
			<path class="st1" d="M2.5-277.5c0.4-0.5,0.7-0.7,0.7-1c0-0.2-0.4-0.7-0.5-0.6c-0.3,0-0.7,0.3-0.7,0.6
				C1.8-278.3,2.2-278,2.5-277.5z"/>
			<path class="st1" d="M484.7-277.4c-0.5-0.4-0.7-0.7-0.9-0.7c-0.2,0-0.6,0.4-0.6,0.6c0,0.2,0.3,0.6,0.5,0.6
				C483.9-276.8,484.1-277.1,484.7-277.4z"/>
			<path class="st1" d="M394.7-37.9c-0.3,0.5-0.6,0.8-0.6,1c0,0.2,0.4,0.6,0.7,0.6c0.2,0,0.6-0.4,0.6-0.7
				C395.4-37.2,395-37.4,394.7-37.9z"/>
			<path class="st1" d="M294.6-414.9c-0.5-0.3-0.8-0.7-1-0.6c-0.2,0-0.5,0.4-0.6,0.7c0,0.1,0.4,0.6,0.6,0.6
				C293.9-414.3,294.1-414.6,294.6-414.9z"/>
			<path class="st1" d="M52-14.8c-0.3,0.5-0.6,0.8-0.5,1.1c0,0.3,0.4,0.5,0.6,0.7c0.2-0.2,0.5-0.5,0.6-0.7
				C52.7-14.1,52.3-14.3,52-14.8z"/>
			<path class="st1" d="M456.3-148.1c0.4-0.4,0.7-0.6,0.7-0.8c0-0.3-0.3-0.6-0.6-0.7c-0.1-0.1-0.6,0.3-0.6,0.5
				C455.8-148.9,456-148.6,456.3-148.1z"/>
			<path class="st1" d="M436.1-181.5c-0.5-0.3-0.8-0.6-1-0.6c-0.2,0-0.6,0.5-0.5,0.6c0.1,0.3,0.4,0.6,0.7,0.6
				C435.4-180.8,435.7-181.2,436.1-181.5z"/>
			<path class="st1" d="M214.7-92.5c-0.5-0.3-0.7-0.6-0.9-0.6c-0.3,0.1-0.4,0.4-0.7,0.6c0.2,0.2,0.4,0.6,0.6,0.5
				C214-91.9,214.3-92.2,214.7-92.5z"/>
			<path class="st1" d="M388.7-207.7c-0.3,0.5-0.7,0.8-0.6,1c0,0.2,0.4,0.5,0.7,0.6c0.1,0,0.6-0.4,0.6-0.6
				C389.3-206.9,389-207.2,388.7-207.7z"/>
			<path class="st1" d="M381.5-272.4c-0.3,0.5-0.6,0.8-0.6,1c0.1,0.2,0.5,0.5,0.7,0.5c0.2,0,0.5-0.4,0.5-0.6
				C382.1-271.7,381.8-271.9,381.5-272.4z"/>
		</g>
	</g>
</pattern>
<pattern  y="1178" width="490.3" height="490.3" patternUnits="userSpaceOnUse" id="SVGID_2_" viewBox="0 -490.3 490.3 490.3" style="overflow:visible;">
	<g>
		<rect y="-490.3" class="st0" width="490.3" height="490.3"/>
		<g>
			<polygon class="st0" points="0,0 490.3,0 490.3,-490.3 0,-490.3 			"/>
			<path d="M180.7,0c0.3-0.5,0.7-1,0.9-1.6c0.2-0.4,0.2-1.2,0.1-1.3c-0.7-0.3-1.4-0.5-2.2-0.5c-0.3,0-0.8,0.6-0.9,0.9
				c-0.1,0.8,0,1.6,0.1,2.4C179.4,0,180,0,180.7,0z"/>
			<path d="M490.3-387.5c-0.3,0.1-0.8,0.2-1,0.4c-0.3,0.5-0.5,1.1-0.7,1.6c0.5,0.1,1.1,0.3,1.6,0.4
				C490.3-385.9,490.3-386.7,490.3-387.5z"/>
			<path d="M0-384.8c0.8,0.1,1.3-0.2,1.3-1.1c0-0.8-0.3-1.3-1.3-1.1C0-386.3,0-385.6,0-384.8z"/>
			<path d="M122.8-326.9c0.9-0.5,1.7-1,2.6-1.5c0.1-0.1,0.2-0.3,0.2-0.4c0.1-1,0.2-1.9,0.1-2.9c0-1-1.8-2.1-2.9-1.9
				c-1.7,0.3-2.3,1.2-2.1,2.9c0,0.3-0.1,0.5-0.2,0.8c-0.1,0.6-0.6,1.3-0.4,1.7c0.3,0.5,1.1,0.7,1.7,1c0.2,0.1,0.4,0,0.6,0
				C122.7-327.1,122.7-327,122.8-326.9z"/>
			<path d="M167.3-227.3c-1,0.6-1.7,1.1-2.4,1.6c-0.3,0.3-0.5,0.7-0.9,1c-0.9,0.6-0.9,1.5-0.3,2.1c0.4,0.4,1.4,0.5,2,0.4
				c0.6-0.1,1.4-0.4,1.8-0.9c0.7-0.8,1.2-1.8,1.6-2.8C169.1-226.2,168.1-226.8,167.3-227.3z"/>
			<path d="M410.5-467.6c1.1,0,2.2,0,2.3-1.6c0-0.2,0.3-0.4,0.5-0.5c1-0.6,1.1-1.1,0.4-2.1c-0.4-0.6-1.6-0.9-2.2-0.3
				c-0.9,0.9-1.8,1.8-2.6,2.7c-0.3,0.3-0.5,1-0.4,1.2c0.2,0.3,0.8,0.4,1.2,0.6C410-467.6,410.3-467.6,410.5-467.6z"/>
			<path d="M27.7-403.1c0.3,0.7,0.4,1.7,0.9,2c1.1,0.5,1.6-0.5,2.1-1.3c0.1-0.2,0.4-0.4,0.6-0.6c0.5-0.5,0.5-1.1-0.1-1.6
				c-0.2-0.1-0.4-0.3-0.5-0.5c-0.3-0.5-0.2-1.4-1.1-1c-0.8,0.3-1.8,0.7-1.6,2c0,0.3,0,0.6,0,1C27.8-403.2,27.8-403.1,27.7-403.1z"/>
			<path d="M104.6-297.7c1.4,0.2,2.1-0.9,2.7-1.7c0.7-0.8,0-2.2-1.1-2.2c-1.2-0.1-2.5-0.4-2.6,1.5c0,0.1,0,0.2-0.1,0.2
				c-0.5,0.4-1.2,0.9-0.6,1.6C103.3-297.9,104-297.8,104.6-297.7z"/>
			<path d="M424-246c1,0.9,2.2,0.6,2.8-0.7c0.5-1.1-0.8-1.3-1.2-2c-0.1-0.2-0.9-0.2-1.1,0.1c-0.7,0.7-1.3,1.4-1.9,2.2
				c-0.1,0.1,0,0.5,0.1,0.8C423-245.8,423.4-245.9,424-246z"/>
			<path d="M276.1-159.1c-0.3-0.4-0.8-1.2-1.5-1.5c-0.7-0.4-1,0.4-1,1c-0.1,0.8,0.1,1.5-0.8,2c-0.2,0.1-0.2,0.7-0.1,0.9
				c0.1,0.3,0.5,0.5,0.8,0.5C274.5-156.2,276.1-157.7,276.1-159.1z"/>
			<path d="M40.8-49.5c1-0.8,2-1.4,2.9-2.1c0.2-0.1,0-1-0.2-1c-0.6-0.1-1.3-0.2-1.8-0.1c-0.6,0.1-1.2,0.5-1.8,0.8
				c-0.3,0.2-0.8,0.9-0.7,1.1C39.5-50.4,40.1-50.1,40.8-49.5z"/>
			<path d="M80.3-60c0.5-0.4,1.3-0.8,1.4-1.3c0.1-1-0.9-1.8-1.9-1.7c-1,0-1.3,0.7-1.3,1.5C78.5-60.4,79.2-60.2,80.3-60z"/>
			<path d="M211.6-109.7c1,0.7,2.1,1.1,3.3,0.8c0.3-0.1,0.6-0.8,0.6-1.2c0-0.3-0.6-0.8-0.9-0.7c-1,0.2-2,0.5-3,0.8
				C211.7-109.9,211.7-109.8,211.6-109.7z"/>
			<path d="M262.7-251.9c0.6-0.5,1.3-1.2,1.3-1.2c-0.5-0.7-1-1.2-1.6-1.8c-0.5,0.6-1,1.2-1.5,1.7
				C261.4-252.9,261.9-252.5,262.7-251.9z"/>
			<path d="M115.8-381.3c0.6-0.6,1.2-1,1.3-1.4c0.2-0.7-0.8-1.8-1.4-1.7c-1,0.1-1.3,0.9-1.2,1.6
				C114.5-382.3,115.2-381.9,115.8-381.3z"/>
			<path d="M6.3-4.4C6.5-4,6.6-3.3,7-2.9c0.2,0.2,1.1,0,1.5-0.3C9.1-3.6,9.8-4.1,9.3-5C9.2-5.2,8.5-5.3,8.1-5.2
				C7.5-5.1,7-4.7,6.3-4.4z"/>
			<path d="M253.2-248.3c0.3,0,0.7,0.1,1,0c0.3-0.2,0.8-0.6,0.8-0.9c0-0.3-0.4-0.8-0.8-0.8c-0.5-0.1-1.2-0.2-1.7,0
				c-0.4,0.1-1,0.5-1.1,0.8c-0.2,0.7,0.4,0.9,1.1,0.9C252.8-248.3,253-248.3,253.2-248.3C253.2-248.3,253.2-248.3,253.2-248.3z"/>
			<path d="M246.4-141.7c-0.4-0.4-0.6-1-1.1-1.1c-0.8-0.2-1.1,0.5-1.2,1.2c0,0.3-0.1,0.6,0,0.8c0.3,0.5,0.6,0.9,1,1.4
				c0.3-0.4,0.7-0.9,0.9-1.3c0.1-0.2,0.1-0.5,0.1-0.7C246.2-141.5,246.3-141.6,246.4-141.7z"/>
			<path d="M49.4-59c0-0.7-2.2-2.2-2.8-1.9c-0.2,0.1-0.5,0.4-0.5,0.5c0.5,0.7,0.9,1.5,1.5,2c0.3,0.2,1-0.1,1.5-0.3
				C49.3-58.7,49.4-58.9,49.4-59z"/>
			<path d="M49.9-63.8c-0.1-1.1-0.2-1.8-0.4-2.5c0-0.1-0.4-0.3-0.6-0.3c-0.2,0-0.3,0.3-0.4,0.5c-0.2,0.5-0.4,0.9-0.6,1.4
				c-0.1,0.5-0.3,1-0.2,1.5c0.1,0.2,0.8,0.5,1.1,0.4C49.3-63.1,49.7-63.6,49.9-63.8z"/>
			<path d="M164.1-230c-0.2-0.1-0.7-0.7-0.8-0.7c-0.7,0.5-1.2,1.1-1.8,1.7c0.4,0.3,0.8,0.8,1.2,0.8C163.6-228,164.1-228.6,164.1-230
				z"/>
			<path d="M136-94.4c-1.2,0-2,0.8-1.9,1.7c0,0.3,0.5,0.6,0.7,0.9c0.6-0.6,1.3-1.2,1.9-1.8C136.8-93.6,136.2-94.2,136-94.4z"/>
			<path d="M285.3-294.6c0.7-0.7,1.4-1.2,2-1.9c0.1-0.1-0.1-0.8-0.3-0.9c-0.3-0.1-0.8,0-1.1,0.1c-0.4,0.2-0.7,0.5-1.1,0.9
				c-0.2,0.2-0.6,0.6-0.5,0.8C284.5-295.2,284.9-295,285.3-294.6z"/>
			<path d="M18.8-7.1c-0.1-2.2-0.9-2.9-2.3-2.3c-0.6,0.3-0.9,0.9-0.3,1.3C16.9-7.6,17.8-7.4,18.8-7.1z"/>
			<path d="M408.5-475.7c-1.1,0.2-1.6,0.6-1.5,1.5c0.1,0.4,0.6,0.8,0.9,1.2c0.6-0.5,1.2-1,1.7-1.5
				C409.3-475,408.9-475.3,408.5-475.7z"/>
			<path d="M397.1-279.6c0.2-0.2,0.6-0.5,0.8-0.9c0.2-0.5-1-1.6-1.9-1.6c-0.3,0-0.7,0.4-0.8,0.6
				C395.1-280.7,396.1-279.7,397.1-279.6z"/>
			<path d="M115.8-263.5c0.5-0.6,1-1.1,1.4-1.7c0.2-0.3,0.1-0.8,0-1.1c-0.1-0.1-0.8-0.2-0.9-0.1c-0.5,0.4-0.9,0.9-1.1,1.5
				c-0.1,0.4,0.1,0.9,0.2,1.3C115.5-263.5,115.7-263.5,115.8-263.5z"/>
			<path d="M459.3-356.6c-0.7,0.6-1.2,1-1.7,1.4c0.4,0.3,0.7,0.9,1.1,0.9c0.7,0,1.6,0,1.6-1C460.2-355.6,459.7-356,459.3-356.6z"/>
			<path d="M117.3-204.3c0.6-0.6,1.2-1,1.2-1.4c0.1-0.9-0.7-0.9-1.4-0.9c-0.7,0-1.3,0.2-1.2,1C116.1-205.2,116.7-204.9,117.3-204.3z
				"/>
			<path d="M203.8-112.7c0.7-0.8,1.2-1.4,1.6-1.9c0-0.1-0.9-0.9-0.9-0.8c-0.5,0.4-1,0.9-1.4,1.4C203-113.9,203.5-113.4,203.8-112.7z
				"/>
			<path d="M385.1-158.6c-0.7-0.6-1.1-1-1.5-1.3c-0.3,0.4-0.8,0.9-0.9,1.3c0,0.4,0.5,0.8,0.8,1.2C384-157.7,384.4-158,385.1-158.6z"
				/>
			<path d="M383.8-188.8c-0.5,0.6-0.7,0.9-1,1.3c0.4,0.3,0.8,0.9,1.2,0.9c0.4,0,0.8-0.6,1.2-0.9
				C384.7-187.9,384.4-188.3,383.8-188.8z"/>
			<path d="M381.9-338.6c-0.6-0.5-0.9-0.9-1.3-1.2c-0.3,0.4-0.8,0.8-0.8,1.2c0,0.4,0.5,0.8,0.8,1.2
				C380.9-337.7,381.3-338.1,381.9-338.6z"/>
			<path d="M287.8-180.9c-0.5-0.5-0.9-0.9-1.2-1.2c-0.3,0.4-0.8,0.8-0.8,1.2c0,0.4,0.5,0.7,0.8,1.1
				C286.9-180,287.3-180.4,287.8-180.9z"/>
			<path d="M362.6-138.2c-0.6-0.5-0.9-0.8-1.3-1.1c-0.3,0.5-0.7,0.9-0.8,1.4c0,0.2,0.6,0.8,0.9,0.8
				C361.8-137.3,362.1-137.7,362.6-138.2z"/>
			<path d="M73.5-390.5c-0.6-0.5-0.9-1-1.2-1c-0.4,0.1-0.9,0.7-0.9,1c0.1,0.4,0.6,0.8,0.9,1.2C72.7-389.6,73-390,73.5-390.5z"/>
			<path d="M361.3-21c-0.6,0.6-0.9,0.9-1.3,1.3c0.4,0.3,0.7,0.9,1.1,0.8c0.4,0,0.8-0.5,1.1-0.9C362.3-20,361.8-20.5,361.3-21z"/>
			<path d="M123.3-299.9c-0.5,0.5-0.8,0.9-1.1,1.2c0.4,0.3,0.8,0.8,1.1,0.8c0.4,0,0.8-0.5,1.1-0.8
				C124.1-299,123.8-299.4,123.3-299.9z"/>
			<path d="M222.6-75.6c-0.5,0.6-0.8,0.9-1.1,1.3c0.4,0.3,0.8,0.8,1.2,0.8c0.3,0,0.9-0.6,0.9-0.9C223.7-74.7,223.1-75,222.6-75.6z"
				/>
			<path d="M177.6-97.8c-0.4,0.6-0.7,0.9-0.9,1.3c0.4,0.3,0.8,0.8,1.3,0.8c0.3,0,0.7-0.6,1-0.9C178.6-96.9,178.2-97.3,177.6-97.8z"
				/>
			<path d="M111.8-365.7c-0.5,0.6-0.9,1-0.9,1.3c0,0.3,0.6,0.8,0.9,0.8c0.4,0,0.8-0.5,1.1-0.8C112.6-364.7,112.3-365.1,111.8-365.7z
				"/>
			<path d="M226.4-166.4c-0.5-0.6-1-1.2-1.4-1.7c-0.3,0.2-0.8,0.5-0.8,0.7c-0.1,1.3,1.2,0.9,1.8,1.4
				C226.1-166.2,226.2-166.3,226.4-166.4z"/>
			<path d="M337.3-7.8c-0.4,0.5-0.9,1-0.8,1.2c0.1,0.3,0.7,0.8,1,0.8c0.4,0,0.8-0.5,1.1-0.8C338.2-6.9,337.8-7.2,337.3-7.8z"/>
			<path d="M368.7-250.2c-0.6-0.5-0.9-1-1.3-1c-0.3,0-0.8,0.6-0.8,0.9c0,0.4,0.5,0.9,0.8,1C367.7-249.3,368.1-249.8,368.7-250.2z"/>
			<path d="M224-17c-0.5-0.5-0.8-0.8-1.2-1.2c-0.3,0.3-0.7,0.7-0.7,1c0,0.4,0.5,0.8,0.7,1.1C223.2-16.3,223.5-16.6,224-17z"/>
			<path d="M230.2-455.1c0.2-0.4,0.6-0.8,0.6-1.2c0-0.3-0.5-0.6-0.8-1c-0.3,0.3-0.8,0.6-0.8,0.9c0,0.4,0.4,0.8,0.6,1.2
				C229.9-455.1,230-455.1,230.2-455.1z"/>
			<path d="M482-195.3c-0.6-0.5-0.9-1-1.3-1c-0.3,0-0.6,0.5-0.9,0.8c0.4,0.3,0.7,0.7,1.1,0.9C481-194.6,481.4-195,482-195.3z"/>
			<path d="M210.1-380.6c-0.7-0.4-1.1-0.8-1.4-0.8c-0.3,0.1-0.8,0.6-0.8,0.9c0,0.3,0.5,0.8,0.9,0.8
				C209.1-379.6,209.4-380.1,210.1-380.6z"/>
			<path d="M255-84.4c-0.2,0.4-0.6,0.7-0.6,1c0,0.3,0.5,0.6,0.8,1c0.3-0.3,0.8-0.6,0.8-0.9c0.1-0.3-0.4-0.7-0.6-1.1
				C255.3-84.4,255.2-84.4,255-84.4z"/>
			<path d="M225.8-244.4c-0.4,0.7-0.9,1.1-0.9,1.4c0.1,0.3,0.6,0.8,0.9,0.8c0.3,0,0.8-0.5,0.8-0.9
				C226.8-243.4,226.3-243.8,225.8-244.4z"/>
			<path d="M240-53.4c-0.4,0.7-0.8,1.1-0.7,1.4c0,0.3,0.5,0.5,0.8,0.8c0.3-0.3,0.7-0.6,0.8-1C240.9-52.4,240.5-52.8,240-53.4z"/>
			<path d="M468.5-264c0.4-0.7,0.8-1,0.8-1.4c0-0.3-0.6-0.8-0.8-0.8c-0.4,0.1-0.8,0.5-0.9,0.9C467.6-265,468.1-264.7,468.5-264z"/>
			<path d="M193.8-241.2c-0.6-0.4-1-0.8-1.3-0.7c-0.3,0.1-0.6,0.5-0.8,0.8c0.3,0.3,0.6,0.7,1,0.8
				C192.9-240.2,193.2-240.7,193.8-241.2z"/>
			<path d="M422.3-265.5c-0.7-0.4-1.1-0.7-1.4-0.7c-0.3,0-0.8,0.7-0.7,0.8c0.1,0.3,0.6,0.7,0.9,0.8
				C421.4-264.5,421.7-265,422.3-265.5z"/>
			<path d="M197.6-129.1c-0.4-0.2-0.7-0.6-1-0.6c-0.3,0-0.8,0.5-0.8,0.8c0,0.3,0.4,0.8,0.7,0.9c0.3,0,0.7-0.4,1.1-0.6
				C197.6-128.8,197.6-128.9,197.6-129.1z"/>
			<path d="M146.3-335.1c-0.6-0.4-1-0.8-1.2-0.8c-0.4,0.1-0.6,0.5-0.9,0.8c0.3,0.3,0.6,0.7,1,0.8
				C145.4-334.2,145.8-334.7,146.3-335.1z"/>
			<path d="M109.7-302.9c-0.3-0.2-0.7-0.6-1-0.6c-0.3,0-0.8,0.5-0.8,0.8c0,0.3,0.4,0.8,0.7,0.8c0.3,0,0.7-0.3,1.1-0.5
				C109.7-302.6,109.7-302.8,109.7-302.9z"/>
			<path d="M202-373.6c-0.7-0.4-1.1-0.8-1.3-0.7c-0.3,0.1-0.7,0.6-0.8,0.9c0,0.2,0.6,0.7,0.8,0.7C201-372.7,201.4-373.1,202-373.6z"
				/>
			<path d="M247.5-376.6c-0.7-0.4-1.1-0.8-1.4-0.8c-0.3,0-0.8,0.6-0.7,0.8c0.1,0.3,0.5,0.7,0.9,0.8
				C246.5-375.7,246.8-376.1,247.5-376.6z"/>
			<path d="M372.8-379.5c-0.7-0.5-1-0.9-1.4-0.9c-0.3,0-0.5,0.5-0.8,0.8c0.3,0.3,0.6,0.7,1,0.8C371.8-378.7,372.2-379.1,372.8-379.5
				z"/>
			<path d="M36.1-385.6c-0.6-0.4-1-0.8-1.2-0.8c-0.4,0.1-0.6,0.5-1,0.8c0.3,0.3,0.6,0.7,1,0.8C35.2-384.8,35.5-385.2,36.1-385.6z"/>
			<path d="M289.6-456.6c-0.4,0.6-0.9,0.9-0.8,1.2c0.1,0.4,0.5,0.6,0.8,1c0.3-0.3,0.7-0.6,0.8-0.9
				C290.5-455.7,290-456.1,289.6-456.6z"/>
			<path d="M318.2-145.2c-0.7-0.4-1.1-0.8-1.3-0.7c-0.3,0.1-0.6,0.6-0.8,0.9c0.3,0.3,0.6,0.7,0.9,0.7
				C317.3-144.2,317.6-144.7,318.2-145.2z"/>
			<path d="M154.2-146.8c0.4-0.6,0.9-0.9,0.8-1.2c-0.1-0.4-0.5-0.6-0.8-0.9c-0.3,0.3-0.7,0.6-0.8,0.9
				C153.3-147.8,153.7-147.4,154.2-146.8z"/>
			<path d="M48-170.7c-0.4,0.7-0.8,1.1-0.8,1.4c0,0.3,0.5,0.5,0.8,0.8c0.3-0.3,0.7-0.6,0.8-1C48.9-169.7,48.4-170,48-170.7z"/>
			<path d="M114.6-268.1c0.4-0.6,0.9-0.9,0.9-1.3c0-0.3-0.5-0.5-0.8-0.8c-0.3,0.3-0.7,0.6-0.8,1C113.8-269,114.3-268.7,114.6-268.1z
				"/>
			<path d="M412.8-137.2c-0.4,0.6-0.8,1-0.7,1.3c0.1,0.3,0.6,0.6,0.9,0.8c0.2-0.3,0.7-0.6,0.7-0.9
				C413.7-136.3,413.3-136.6,412.8-137.2z"/>
			<path d="M423-342.5c-0.4,0.7-0.9,1-0.8,1.3c0,0.3,0.5,0.6,0.8,0.9c0.3-0.3,0.8-0.6,0.8-0.9C423.9-341.4,423.5-341.8,423-342.5z"
				/>
			<path d="M140-404.1c-0.4-0.2-0.7-0.6-1.1-0.6c-0.3,0-0.7,0.5-0.7,0.8c0,0.3,0.5,0.8,0.8,0.8c0.3,0,0.7-0.4,1.1-0.6
				C140-403.8,140-403.9,140-404.1z"/>
			<path d="M363.4-451.5c-0.3-0.2-0.7-0.7-1-0.7c-0.3,0-0.8,0.5-0.8,0.8c0,0.3,0.4,0.8,0.7,0.9c0.3,0,0.7-0.3,1.1-0.5
				C363.4-451.2,363.4-451.4,363.4-451.5z"/>
			<path d="M482-185.6c-0.7-0.4-1.1-0.8-1.3-0.7c-0.3,0.1-0.6,0.6-0.8,0.9c0.3,0.3,0.6,0.7,0.9,0.7C481-184.7,481.3-185.1,482-185.6
				z"/>
			<path d="M484.6-281.8c-0.4,0.6-0.8,1-0.7,1.3c0,0.3,0.5,0.6,0.8,0.8c0.3-0.3,0.7-0.6,0.8-0.9
				C485.5-280.8,485.1-281.2,484.6-281.8z"/>
			<path d="M284.5-307c-0.4,0.6-0.9,1-0.8,1.2c0.1,0.3,0.6,0.6,0.9,0.9c0.3-0.3,0.7-0.6,0.7-0.9C285.4-306.1,285-306.4,284.5-307z"
				/>
			<path d="M246.1-57.4c0.6-0.7,1.1-1.2,1.5-1.8c-0.2-0.1-0.5-0.4-0.5-0.4c-0.5,0.4-1.1,0.9-1.5,1.4
				C245.6-58.1,245.9-57.7,246.1-57.4z"/>
			<path d="M73.5-49.4c-0.3-0.1-0.7-0.4-0.9-0.4c-0.3,0.1-0.6,0.5-0.9,0.7c0.3,0.2,0.6,0.7,0.8,0.7c0.4,0,0.7-0.4,1.1-0.6
				C73.5-49.1,73.5-49.2,73.5-49.4z"/>
			<path d="M345.3-236.8c0.4-0.6,0.8-1,0.7-1.3c-0.1-0.3-0.6-0.7-0.8-0.7c-0.3,0-0.7,0.5-0.7,0.8
				C344.4-237.7,344.8-237.4,345.3-236.8z"/>
			<path d="M83.5-73.1c0.4-0.6,0.8-1,0.7-1.3c-0.1-0.3-0.6-0.6-0.9-0.8c-0.2,0.3-0.7,0.6-0.7,0.9C82.6-73.9,83-73.6,83.5-73.1z"/>
			<path d="M476.9-210.9c-0.7-0.4-1.1-0.8-1.3-0.7c-0.3,0.1-0.6,0.6-0.7,0.9c0,0.2,0.5,0.7,0.8,0.7
				C475.9-210,476.2-210.4,476.9-210.9z"/>
			<path d="M214.1-102.7c-0.6-0.4-1-0.8-1.3-0.7c-0.3,0.1-0.8,0.5-0.7,0.8c0,0.3,0.5,0.7,0.8,0.8
				C213.1-101.8,213.4-102.2,214.1-102.7z"/>
			<path d="M53.1-475.9c-0.4,0.7-0.8,1-0.8,1.3c0.1,0.3,0.5,0.7,0.8,0.7c0.2,0,0.7-0.5,0.7-0.7C53.8-474.9,53.5-475.2,53.1-475.9z"
				/>
			<path d="M293.9-326c-0.6-0.4-1-0.8-1.3-0.8c-0.3,0.1-0.7,0.5-0.7,0.8c0,0.2,0.5,0.7,0.7,0.7C292.9-325.2,293.3-325.6,293.9-326z"
				/>
			<path d="M41.7-35.1c-0.1,0.4-0.4,0.8-0.3,1.1c0.1,0.3,0.5,0.8,0.8,0.8c0.3,0,0.6-0.4,0.9-0.7c-0.2-0.3-0.5-0.6-0.7-0.8
				C42.1-34.8,41.9-35,41.7-35.1z"/>
			<path d="M412-119.8c-0.5-0.3-0.8-0.7-1.1-0.7c-0.3,0-0.5,0.5-0.8,0.7c0.3,0.3,0.5,0.7,0.9,0.8C411.2-119,411.5-119.5,412-119.8z"
				/>
			<path d="M438.3-485.8c-0.6-0.3-0.9-0.7-1.2-0.7c-0.3,0-0.5,0.5-0.7,0.7c0.3,0.3,0.5,0.7,0.9,0.7
				C437.5-484.9,437.8-485.3,438.3-485.8z"/>
			<path d="M365.5-228.9c-0.5-0.4-0.8-0.8-1-0.7c-0.3,0.1-0.6,0.5-0.8,0.8c0.3,0.2,0.5,0.7,0.8,0.7
				C364.7-228.2,365-228.6,365.5-228.9z"/>
			<path d="M243-22.6c-0.2,0.5-0.5,0.9-0.4,0.9c0.5,0.5,1,0.9,1.5,1.3c0,0,0.4-0.3,0.3-0.4C244.1-21.3,243.6-21.8,243-22.6z"/>
			<path d="M239.1-92.5c-0.5-0.3-0.9-0.7-1.1-0.7c-0.3,0.1-0.5,0.5-0.8,0.8c0.3,0.2,0.6,0.6,0.8,0.6
				C238.4-91.8,238.7-92.2,239.1-92.5z"/>
			<path d="M43-67.1c0.3-0.5,0.7-0.9,0.6-1.2c0-0.3-0.5-0.5-0.8-0.7c-0.2,0.3-0.6,0.5-0.7,0.8C42.2-67.9,42.6-67.6,43-67.1z"/>
			<path d="M127.8-134.3c-0.4-0.4-0.7-0.6-1-0.8c-0.2,0.3-0.6,0.7-0.6,1c0,0.2,0.5,0.5,0.7,0.7C127.2-133.7,127.4-133.9,127.8-134.3
				z"/>
			<path d="M51-401.9c-0.3,0.5-0.7,0.8-0.7,1.1c0,0.3,0.5,0.5,0.7,0.7c0.2-0.3,0.7-0.5,0.7-0.8C51.8-401.1,51.4-401.4,51-401.9z"/>
			<path d="M322.9-24c0.3-0.6,0.6-0.9,0.6-1.2c0-0.3-0.4-0.6-0.6-0.9c-0.2,0.3-0.6,0.5-0.6,0.8C322.4-25,322.6-24.7,322.9-24z"/>
			<path d="M409.9-213.9c-0.4,0.5-0.7,0.8-0.8,1.1c0,0.2,0.4,0.7,0.6,0.7c0.3,0,0.7-0.4,0.8-0.6C410.6-213,410.3-213.3,409.9-213.9z
				"/>
			<path d="M78.4-271.6c-0.4,0.5-0.7,0.8-0.7,1.1c0,0.3,0.4,0.5,0.7,0.8c0.2-0.2,0.6-0.5,0.6-0.7C79-270.7,78.7-271,78.4-271.6z"/>
			<path d="M80.3-285.6c0.3-0.4,0.7-0.7,0.7-0.9c-0.1-0.3-0.5-0.5-0.7-0.8c-0.2,0.2-0.6,0.5-0.6,0.7C79.7-286.3,80-286,80.3-285.6z"
				/>
			<path d="M238.1-48c0.3-0.5,0.6-0.8,0.6-1.1c0-0.2-0.5-0.7-0.7-0.6c-0.3,0.1-0.6,0.4-0.7,0.7C237.3-48.7,237.7-48.5,238.1-48z"/>
			<path d="M370.5-163.2c-0.5-0.4-0.8-0.8-1-0.7c-0.3,0.1-0.6,0.4-0.7,0.7c0,0.1,0.4,0.7,0.6,0.7C369.7-162.6,370-162.9,370.5-163.2
				z"/>
			<path d="M90.5-253.7c0.4,0.4,0.7,0.7,1.1,1.1c0.2-0.2,0.5-0.5,0.5-0.5c-0.3-0.4-0.7-0.7-1.1-1.1
				C90.8-254.1,90.6-253.9,90.5-253.7z"/>
			<path d="M221.2-3.5c-0.3,0.3-0.7,0.6-1,0.9c0.2,0.2,0.5,0.4,0.7,0.6c0.3-0.4,0.6-0.7,0.9-1.1C221.6-3.1,221.4-3.3,221.2-3.5z"/>
			<path d="M436.1-336.1c-0.4-0.3-0.7-0.7-0.9-0.7c-0.3,0.1-0.5,0.4-0.8,0.6c0.3,0.3,0.5,0.6,0.8,0.7
				C435.4-335.4,435.7-335.8,436.1-336.1z"/>
			<path d="M235.1-274.5c-0.6-0.3-0.9-0.6-1.2-0.6c-0.2,0-0.6,0.5-0.6,0.7c0,0.2,0.4,0.6,0.7,0.6
				C234.3-273.8,234.6-274.1,235.1-274.5z"/>
			<path d="M325.5-306.9c-0.6-0.2-0.9-0.5-1.2-0.4c-0.3,0-0.5,0.4-0.7,0.6c0.3,0.2,0.6,0.4,0.9,0.4
				C324.8-306.2,325-306.5,325.5-306.9z"/>
			<path d="M160.2-184.5c0.3-0.5,0.7-0.7,0.6-1c0-0.3-0.4-0.5-0.6-0.7c-0.3,0.3-0.6,0.5-0.7,0.8
				C159.5-185.2,159.9-184.9,160.2-184.5z"/>
			<path d="M244.1-14.7c-0.5-0.3-0.8-0.7-1-0.6c-0.3,0.1-0.5,0.5-0.7,0.7c0.3,0.2,0.5,0.6,0.8,0.6C243.4-14,243.7-14.3,244.1-14.7z"
				/>
			<path d="M61.1-470.6c0.3-0.4,0.7-0.7,0.7-0.9c0-0.3-0.4-0.5-0.6-0.8c-0.3,0.2-0.7,0.4-0.7,0.7C60.4-471.3,60.8-471,61.1-470.6z"
				/>
			<path d="M231.9-8.6c0.4-0.4,0.8-0.7,0.7-0.9c-0.1-0.3-0.4-0.5-0.7-0.8c-0.2,0.2-0.6,0.4-0.7,0.7C231.3-9.4,231.6-9.1,231.9-8.6z"
				/>
			<path d="M37.9-463.4c-0.4-0.4-0.7-0.8-0.9-0.7c-0.3,0.1-0.5,0.4-0.8,0.7c0.2,0.2,0.4,0.6,0.7,0.7
				C37.1-462.8,37.4-463.1,37.9-463.4z"/>
			<path d="M444.3-300.7c0.3-0.5,0.6-0.8,0.6-1c-0.1-0.3-0.5-0.5-0.8-0.7c-0.2,0.3-0.5,0.5-0.5,0.8
				C443.6-301.4,444-301.2,444.3-300.7z"/>
			<path d="M256.2-206.7c-0.3,0.5-0.6,0.8-0.6,1c0,0.3,0.4,0.4,0.7,0.7c0.2-0.2,0.6-0.5,0.6-0.7C256.9-206,256.5-206.2,256.2-206.7z
				"/>
			<path d="M219.8-414.9c-0.3,0.4-0.6,0.7-0.6,1c0,0.2,0.5,0.7,0.6,0.6c0.3-0.1,0.6-0.4,0.7-0.7
				C220.6-414.2,220.2-414.5,219.8-414.9z"/>
			<path d="M474.5-434.3c-0.4-0.2-0.7-0.5-0.8-0.5c-0.3,0.2-0.5,0.5-0.8,0.7c0.2,0.2,0.5,0.6,0.7,0.5
				C473.9-433.6,474.1-434,474.5-434.3z"/>
			<path d="M47.3-440c-0.4-0.7-0.5-1.1-0.8-1.5c-0.2-0.2-0.6-0.1-0.9-0.1c0.1,0.3,0,0.7,0.2,0.8C46.1-440.5,46.6-440.3,47.3-440z"/>
			<path d="M24.7-444.2c-0.3,0.5-0.6,0.7-0.6,1c0,0.3,0.4,0.5,0.6,0.7c0.2-0.3,0.6-0.5,0.7-0.8C25.5-443.5,25.1-443.8,24.7-444.2z"
				/>
			<path d="M158.2-295.6c-0.4-0.4-0.7-0.7-0.9-0.7c-0.3,0-0.7,0.4-0.7,0.6c0,0.2,0.4,0.6,0.6,0.7C157.4-295,157.7-295.3,158.2-295.6
				z"/>
			<path d="M398.7-488.8c-0.5-0.3-0.8-0.6-1-0.6c-0.2,0-0.6,0.4-0.6,0.6c0.1,0.3,0.4,0.6,0.6,0.7C398-488.1,398.3-488.4,398.7-488.8
				z"/>
			<path d="M176.6-3.7c0.3-0.4,0.5-0.7,0.7-0.9c-0.3-0.2-0.5-0.5-0.8-0.5c-0.2,0-0.6,0.4-0.6,0.6C175.9-4.3,176.3-4.1,176.6-3.7z"/>
			<path d="M56.1-202.7c-0.5-0.3-0.8-0.6-1-0.6c-0.2,0-0.5,0.4-0.6,0.7c0,0.1,0.4,0.5,0.6,0.5C55.3-202.1,55.6-202.4,56.1-202.7z"/>
			<path d="M25.8-154.2c-0.5-0.3-0.8-0.6-1-0.6c-0.2,0.1-0.5,0.4-0.6,0.7c0,0.1,0.4,0.5,0.6,0.5C25-153.5,25.3-153.9,25.8-154.2z"/>
			<path d="M2.5-277.5c0.4-0.5,0.7-0.7,0.7-1c0-0.2-0.4-0.7-0.5-0.6c-0.3,0-0.7,0.3-0.7,0.6C1.8-278.3,2.2-278,2.5-277.5z"/>
			<path d="M484.7-277.4c-0.5-0.4-0.7-0.7-0.9-0.7c-0.2,0-0.6,0.4-0.6,0.6c0,0.2,0.3,0.6,0.5,0.6
				C483.9-276.8,484.1-277.1,484.7-277.4z"/>
			<path d="M394.7-37.9c-0.3,0.5-0.6,0.8-0.6,1c0,0.2,0.4,0.6,0.7,0.6c0.2,0,0.6-0.4,0.6-0.7C395.4-37.2,395-37.4,394.7-37.9z"/>
			<path d="M294.6-414.9c-0.5-0.3-0.8-0.7-1-0.6c-0.2,0-0.5,0.4-0.6,0.7c0,0.1,0.4,0.6,0.6,0.6C293.9-414.3,294.1-414.6,294.6-414.9
				z"/>
			<path d="M52-14.8c-0.3,0.5-0.6,0.8-0.5,1.1c0,0.3,0.4,0.5,0.6,0.7c0.2-0.2,0.5-0.5,0.6-0.7C52.7-14.1,52.3-14.3,52-14.8z"/>
			<path d="M456.3-148.1c0.4-0.4,0.7-0.6,0.7-0.8c0-0.3-0.3-0.6-0.6-0.7c-0.1-0.1-0.6,0.3-0.6,0.5
				C455.8-148.9,456-148.6,456.3-148.1z"/>
			<path d="M436.1-181.5c-0.5-0.3-0.8-0.6-1-0.6c-0.2,0-0.6,0.5-0.5,0.6c0.1,0.3,0.4,0.6,0.7,0.6
				C435.4-180.8,435.7-181.2,436.1-181.5z"/>
			<path d="M214.7-92.5c-0.5-0.3-0.7-0.6-0.9-0.6c-0.3,0.1-0.4,0.4-0.7,0.6c0.2,0.2,0.4,0.6,0.6,0.5C214-91.9,214.3-92.2,214.7-92.5
				z"/>
			<path d="M388.7-207.7c-0.3,0.5-0.7,0.8-0.6,1c0,0.2,0.4,0.5,0.7,0.6c0.1,0,0.6-0.4,0.6-0.6C389.3-206.9,389-207.2,388.7-207.7z"
				/>
			<path d="M381.5-272.4c-0.3,0.5-0.6,0.8-0.6,1c0.1,0.2,0.5,0.5,0.7,0.5c0.2,0,0.5-0.4,0.5-0.6
				C382.1-271.7,381.8-271.9,381.5-272.4z"/>
		</g>
	</g>
</pattern>
<g id="background">
	<g>
		<g>
			<pattern  id="SVGID_3_" xlink:href="#SVGID_1_" patternTransform="matrix(1.4218 0 0 -1.0758 7730.3174 -17100.4629)">
			</pattern>
			<rect x="-6" y="-6.2" class="st2" width="1711.9" height="1192.2"/>
			<pattern  id="SVGID_4_" xlink:href="#SVGID_2_" patternTransform="matrix(0 -1.0648 -1.4365 0 -16554.3984 -4369.439)">
			</pattern>
			<rect x="-6" y="-6.2" class="st3" width="1711.9" height="1192.2"/>
		</g>
	</g>
	<g>
		<g>
			<path class="st4" d="M735.6,595.5l10.7,26.6c0.3,0.9,1.1,1.4,2,1.6l35,3.9c0.1,0,0.2,0,0.3,0c0.9,0,1.7-0.4,2.1-1.2
				c0.5-0.8,0.5-1.9,0-2.7L762,587.4c-0.6-0.9-1.7-1.3-2.7-1.1l-22,5.8c-0.7,0.2-1.3,0.7-1.6,1.3
				C735.3,594.1,735.3,594.8,735.6,595.5z M758.8,591.6l19.8,30.3l-28.2-3.1l-9.1-22.6L758.8,591.6z"/>
			<path class="st4" d="M966.9,592.2l-22-5.8c-1-0.3-2.1,0.1-2.7,1.1l-23.6,36.3c-0.5,0.8-0.5,1.9,0,2.7c0.5,0.7,1.3,1.2,2.1,1.2
				c0.1,0,0.2,0,0.3,0l35-3.9c0.9-0.1,1.7-0.7,2-1.6l10.7-26.6c0.3-0.7,0.2-1.4-0.1-2.1C968.2,592.8,967.6,592.3,966.9,592.2z
				 M953.8,618.8l-28.2,3.1l19.8-30.3l17.5,4.6L953.8,618.8z"/>
			<path class="st4" d="M1319,119.2c-1.2-0.5-2.6-0.1-3.2,1.1l-98.5,176.5h-57.6l30-71.8c0,0,0,0,0-0.1c0-0.1,0.1-0.1,0.1-0.2
				c0-0.1,0-0.2,0.1-0.2c0-0.1,0-0.1,0-0.2c0,0,0,0,0,0c0-0.1,0-0.2,0-0.2c0-0.1,0-0.2,0-0.2c0-0.1,0-0.1,0-0.2c0,0,0,0,0-0.1
				l-22.6-119.2c-0.2-1.2-1.3-2.1-2.6-2c-1.2,0.1-2.3,1-2.4,2.3l-7.5,81.1c0,0,0,0,0,0l-3.5,37.3l-51.8,73.7h-53.4c0,0,0,0-0.1,0
				c-0.1,0-0.1,0-0.2,0c-0.1,0-0.1,0-0.1,0c0,0-0.1,0-0.1,0c-0.1,0-0.1,0-0.2,0.1c0,0-0.1,0-0.1,0c0,0-0.1,0-0.1,0
				c-0.1,0-0.1,0.1-0.2,0.1c0,0-0.1,0-0.1,0.1c0,0-0.1,0-0.1,0.1c-0.1,0-0.1,0.1-0.2,0.2c0,0-0.1,0-0.1,0.1c0,0,0,0,0,0L970,367
				l11.6-125.2c0.1-1.3-0.7-2.4-2-2.7c-1.2-0.3-2.5,0.5-2.9,1.7l-55.7,172L850,479.3l-71.1-66.5l-55.7-172c-0.4-1.2-1.6-1.9-2.9-1.7
				c-1.2,0.3-2.1,1.4-2,2.7L730,367l-74.4-69.6c0,0,0,0,0,0c0,0-0.1,0-0.1-0.1c-0.1-0.1-0.1-0.1-0.2-0.2c0,0-0.1,0-0.1-0.1
				c0,0-0.1,0-0.1-0.1c-0.1,0-0.1-0.1-0.2-0.1c0,0-0.1,0-0.1,0c0,0-0.1,0-0.1,0c-0.1,0-0.1,0-0.2-0.1c0,0-0.1,0-0.1,0
				c0,0-0.1,0-0.1,0c-0.1,0-0.1,0-0.2,0c0,0,0,0-0.1,0h-53.4L548.7,223l-11-118.4c-0.1-1.2-1.1-2.2-2.4-2.3c-1.3-0.1-2.3,0.8-2.6,2
				l-22.6,119.2c0,0,0,0,0,0.1c0,0.1,0,0.1,0,0.2c0,0.1,0,0.2,0,0.2s0,0.2,0,0.2c0,0,0,0,0,0c0,0.1,0,0.1,0,0.2c0,0.1,0,0.2,0.1,0.2
				c0,0.1,0,0.1,0.1,0.2c0,0,0,0,0,0.1l30,71.8h-57.6l-98.5-176.5c-0.6-1.1-2-1.6-3.2-1.1c-1.2,0.5-1.8,1.9-1.4,3.1l69.5,207.1v0
				c0,0,0,0.1,0.1,0.1c0,0.1,0.1,0.1,0.1,0.2c0,0.1,0.1,0.2,0.1,0.2c0,0,0,0.1,0,0.1c0,0,0,0,0,0c0,0,0,0,0.1,0.1
				c0.1,0.1,0.1,0.1,0.2,0.2c0,0,0.1,0.1,0.1,0.1c0,0,0.1,0.1,0.1,0.1c0,0,0,0,0.1,0c0,0,0,0,0,0c0.1,0,0.1,0.1,0.2,0.1
				c0.1,0,0.2,0.1,0.2,0.1c0,0,0,0,0.1,0c0,0,0,0,0,0c0,0,0,0,0.1,0c0.1,0,0.2,0.1,0.3,0.1c0.1,0,0.1,0,0.2,0c0,0,0.1,0,0.1,0
				c0,0,0,0,0.1,0l176.2,21.1l138.4,114.8L745.6,456c-0.1-0.1-0.2-0.1-0.3-0.2L685,434.5c-0.5-0.2-1.1-0.2-1.6,0l-44.6,13.5
				c0,0-0.1,0-0.1,0c-0.1,0-0.3,0.1-0.4,0.2c0,0-0.1,0-0.1,0.1c-0.2,0.1-0.3,0.2-0.4,0.4c0,0,0,0-0.1,0.1c-0.1,0.1-0.2,0.2-0.3,0.4
				c0,0.1-0.1,0.1-0.1,0.2c0,0.1-0.1,0.1-0.1,0.2c0,0.1,0,0.1-0.1,0.2c0,0,0,0.1,0,0.1c0,0,0,0.1,0,0.1c0,0.1-0.1,0.3-0.1,0.4
				c0,0,0,0.1,0,0.1c0,0.2,0,0.4,0.1,0.6c0,0,0,0.1,0,0.1c0,0.1,0.1,0.3,0.2,0.4c0,0.1,0.1,0.1,0.1,0.2c0.1,0.1,0.1,0.2,0.2,0.4
				c0,0,0,0.1,0.1,0.1l53.1,60.4c0.5,0.5,1.2,0.8,1.9,0.8c0.1,0,0.1,0,0.2,0l52.5-3.6l-2.7,2.2c-0.4,0.3-0.6,0.7-0.8,1.1L715,592.4
				c-0.2,0.5-0.2,1,0,1.5l15.3,53.3l-60.5,239.3c0,0,0,0.1,0,0.1c0,0,0,0.1,0,0.1c0,0.1,0,0.2,0,0.3c0,0,0,0.1,0,0.1
				c0,0.1,0,0.2,0,0.3c0,0,0,0.1,0,0.1c0,0.1,0.1,0.3,0.1,0.4l28.6,75c0.2,0.4,0.5,0.8,0.9,1.1l151.1,111c0,0,0.1,0,0.1,0.1
				c0,0,0.1,0,0.1,0.1c0.2,0.1,0.4,0.2,0.6,0.3c0,0,0,0,0.1,0c0.2,0.1,0.4,0.1,0.7,0.1h0l0,0l0,0c0.1,0,0.1,0,0.2,0c0,0,0.1,0,0.1,0
				c0.8,0,1.6-0.4,2.1-1.1L1005,964.2c0.4-0.3,0.7-0.7,0.9-1.1l28.6-75c0.2-0.5,0.2-1,0.1-1.5L974,647.2l15.3-53.3
				c0.1-0.5,0.1-1,0-1.5l-26.8-79.5c-0.2-0.4-0.4-0.8-0.8-1.1l-2.4-2l49.1,3.4c0.1,0,0.1,0,0.2,0c0.7,0,1.4-0.3,1.9-0.8l53.1-60.4
				c0,0,0-0.1,0.1-0.1c0.1-0.1,0.2-0.2,0.2-0.4c0-0.1,0.1-0.1,0.1-0.2c0.1-0.1,0.1-0.3,0.2-0.4c0,0,0-0.1,0-0.1
				c0-0.2,0.1-0.4,0.1-0.6c0,0,0-0.1,0-0.1c0-0.1,0-0.3-0.1-0.4c0,0,0-0.1,0-0.1c0,0,0-0.1,0-0.1c0-0.1,0-0.1-0.1-0.2
				c0-0.1-0.1-0.1-0.1-0.2c0-0.1-0.1-0.1-0.1-0.2c-0.1-0.1-0.2-0.3-0.3-0.4c0,0,0-0.1-0.1-0.1c-0.1-0.1-0.3-0.2-0.4-0.3
				c0,0-0.1,0-0.1-0.1c-0.1-0.1-0.2-0.1-0.4-0.2c0,0-0.1,0-0.1,0l-44.6-13.5c-0.5-0.2-1.1-0.1-1.6,0L956,455.9
				c-0.1,0-0.2,0.1-0.3,0.2l-23.7,12.7l140.7-116.6l176.2-21.1c0,0,0,0,0.1,0c0,0,0.1,0,0.1,0c0.1,0,0.1,0,0.2,0
				c0.1,0,0.2-0.1,0.3-0.1c0,0,0,0,0.1,0c0,0,0,0,0,0c0,0,0,0,0.1,0c0.1,0,0.2-0.1,0.2-0.1c0.1,0,0.1-0.1,0.2-0.1c0,0,0,0,0,0
				c0,0,0,0,0.1,0c0,0,0.1-0.1,0.1-0.1c0,0,0.1-0.1,0.1-0.1c0.1-0.1,0.1-0.1,0.2-0.2c0,0,0,0,0.1-0.1c0,0,0,0,0,0c0,0,0,0,0-0.1
				c0-0.1,0.1-0.2,0.1-0.2c0-0.1,0.1-0.1,0.1-0.2c0,0,0-0.1,0.1-0.1v0l69.5-207.1C1320.8,121,1320.2,119.7,1319,119.2z
				 M1218.8,301.8c0.9,0,1.7-0.5,2.2-1.3l27.2-48.8l-2.1,74l-165.3-23.9h19.9h0h55.2c0,0,0,0,0,0c0,0,0,0,0,0L1218.8,301.8
				L1218.8,301.8z M916.2,475.2c-0.2,0-0.3,0-0.5,0l-60.1,5.7l173.5-162.3L916.2,475.2z M1014.4,926.8l-117.9-90l1.4-8.6
				c0.4-0.1,0.7-0.4,1-0.7l32.6-37.9l97.6,98.4L1014.4,926.8z M675,887.8l97.5-98.2l32.7,37.9c0.3,0.4,0.8,0.6,1.2,0.8l1.3,8.4
				l-117.9,90L675,887.8z M736.2,652.3l36.4,23L752,749.5L736.2,652.3z M824.4,500.8l22.6,70.9l-59-52.8L824.4,500.8z M878.4,623.8
				l-9.6,62c-0.1,0.5,0,1,0.2,1.5l22.1,45.1c0.1,0.6,0.3,1.2,0.8,1.6l9.9,20.1l-32.5-13.3c-0.3-0.1-0.6-0.2-0.9-0.2H854h-5.1h-14.4
				c-0.3,0-0.6,0.1-0.9,0.2l-30.7,12.6l32.4-66.2c0.2-0.5,0.3-1,0.2-1.5l-9.6-62l26.3-39.5L878.4,623.8z M854,854.7L854,854.7
				L854,854.7h-3.7h-10.6l-19.2-13.2l31.3,4.1c0.2,0,0.4,0,0.6,0l31.3-4.1l-19.2,13.2H854z M891.6,835.4l-39.5,5.2l-39.5-5.2
				l-12.1-75.7l34.5-14.1h3.2l-20.3,35.3c0,0,0,0.1,0,0.1c0,0.1-0.1,0.2-0.1,0.2c0,0.1,0,0.1-0.1,0.2c0,0.1,0,0.2-0.1,0.2
				c0,0.1,0,0.1,0,0.2c0,0.1,0,0.2,0,0.2c0,0.1,0,0.1,0,0.2c0,0.1,0,0.2,0,0.3c0,0,0,0.1,0,0.1l5.8,32c0,0,0,0.1,0,0.1
				c0,0.1,0.1,0.2,0.1,0.3c0,0.1,0,0.1,0.1,0.2c0.1,0.1,0.1,0.2,0.2,0.3c0,0,0.1,0.1,0.1,0.1c0.1,0.1,0.2,0.2,0.3,0.3
				c0,0,0.1,0.1,0.1,0.1c0,0,0,0,0,0c0.1,0.1,0.3,0.2,0.4,0.3c0,0,0,0,0,0l26.3,14c0.4,0.2,0.8,0.3,1.2,0.3c0.3,0,0.6-0.1,0.9-0.2
				c0.3,0.1,0.6,0.2,0.9,0.2c0.4,0,0.8-0.1,1.2-0.3l26.3-14c0.7-0.4,1.1-1,1.3-1.8l5.8-32c0,0,0,0,0,0c0-0.1,0-0.1,0-0.2
				c0-0.1,0-0.2,0-0.3c0-0.1,0-0.1,0-0.2c0-0.1,0-0.2,0-0.3c0,0,0,0,0-0.1c0,0,0-0.1,0-0.1c0-0.1-0.1-0.2-0.1-0.3
				c0-0.1-0.1-0.1-0.1-0.2c0,0,0-0.1,0-0.1l-20.3-35.2l35.8,14.6L891.6,835.4z M848.9,745.6h5.1h8.2l20.1,34.8l-30.1,7.1l-28.3-7.1
				l20.1-34.9L848.9,745.6L848.9,745.6z M853.1,825.8l-23.3-12.4l8.2-9.6c0.8-0.9,0.8-2.3,0-3.2l-11.4-14.2l24.9,6.2
				c0.4,0.1,0.8,0.1,1.2,0l25.6-6l-11.3,14c-0.8,0.9-0.7,2.3,0,3.2l8.5,10L853.1,825.8z M824.3,791.4l8.6,10.7l-5.5,6.4L824.3,791.4
				z M878.6,809.5l-6.3-7.4l9.9-12.3L878.6,809.5z M783.1,521.3l65.7,58.8l-25.5,38.3l-23.5-40c-0.2-0.4-0.5-0.7-0.9-0.9l-59.3-34.6
				L783.1,521.3z M821.9,631l8.5,54.7l-20.1,41.2l-31.4-52.1l33.2-25.6c0.3-0.2,0.5-0.5,0.7-0.8L821.9,631z M776.4,680.4l31.2,51.8
				l-12.2,24.8c0,0,0,0.1,0,0.1c0,0,0,0.1-0.1,0.1c0,0.1-0.1,0.2-0.1,0.3c0,0,0,0.1,0,0.1c0,0.1,0,0.2,0,0.3c0,0,0,0.1,0,0.1
				c0,0.1,0,0.3,0,0.4l9.8,61.1l-50.9-59.1L776.4,680.4z M810.6,840.8l27,18.5c0.4,0.3,0.9,0.4,1.4,0.4h11.3h1.1l-2,202.3
				l-85.6-185.6L810.6,840.8z M856.5,859.7h8.9c0.5,0,1-0.2,1.4-0.4l26.8-18.4l46.6,35.6l-85.7,185.8L856.5,859.7z M930,783.8
				c-0.1,0.1-0.3,0.2-0.4,0.3c-0.2,0.2-0.4,0.4-0.5,0.7l-29.8,34.6l9.8-60.8c0.1-0.5,0-1-0.2-1.5l-12.2-25l31.1-51.7l22.3,80.2
				L930,783.8z M952.1,749.5l-20.6-74.3l36.4-23L952.1,749.5z M894,726.7l-20.1-41l8.4-54.5l9.1,17.1c0.2,0.3,0.4,0.6,0.7,0.8
				l33.2,25.6L894,726.7z M880.8,618.3l-26-39.1l25-78.4l84.7,42.1l-59.3,34.6c-0.4,0.2-0.7,0.5-0.9,0.9L880.8,618.3z M852.1,571.3
				l-23.2-72.7l23.2-11.5l23.2,11.5L852.1,571.3z M785,477.2c-0.1-0.1-0.2-0.1-0.3-0.2l-0.2-0.1c0-0.1,0-0.1,0-0.2
				c0-0.1,0-0.2,0-0.2c0-0.1,0-0.2-0.1-0.2c0-0.1-0.1-0.2-0.1-0.2c0-0.1-0.1-0.2-0.1-0.2c0,0-0.1-0.1-0.1-0.1l-113.2-157l60.6,56.6
				c0,0,0,0,0,0l112.4,105.2l-55.3-5.2c-0.7-0.1-1.3,0.1-1.8,0.6L785,477.2z M1107.5,296.8l73.4-63.9l-26.7,63.9H1107.5z
				 M1165.6,122.8l17.4,91.7l-23.2-29.3L1165.6,122.8z M1155.8,225.4c0.3-0.4,0.4-0.8,0.4-1.2l2.9-31.7l24.7,31.3l-69.3,60.2
				L1155.8,225.4z M965.1,365.9l-14.6-22.4c-0.3-0.5-0.9-0.9-1.4-1l25.5-78.6L965.1,365.9z M947.4,347.8l16.3,25.1l-35.1,32.8
				L947.4,347.8z M736.3,372.9l16.3-25.1l18.8,57.9L736.3,372.9z M750.9,342.5c-0.6,0.2-1.1,0.5-1.4,1l-14.6,22.4l-9.5-102.1
				L750.9,342.5z M585.4,283.9l-69.3-60.2l24.7-31.3l2.9,31.7c0,0.4,0.2,0.9,0.4,1.2L585.4,283.9z M534.4,122.8l5.8,62.5L517,214.5
				L534.4,122.8z M519.1,232.9l73.4,63.9h-46.8L519.1,232.9z M481.2,301.8h62.8c0,0,0,0,0,0s0,0,0,0h75.1l-165.3,23.9l-2.1-74
				l27.2,48.8C479.5,301.3,480.3,301.8,481.2,301.8z M446.5,242.3l1.9,69.6l-55.6-165.7L446.5,242.3z M628.7,347.2l-158.2-18.9
				L652.7,302l115.8,160.7L630,347.8C629.6,347.5,629.2,347.3,628.7,347.2z M648.6,456.8l55.1,23l21.5,26.2l-31.5,2.2L648.6,456.8z
				 M749.6,504.2l-18.3,1.3l-24.2-29.4c0,0,0,0-0.1-0.1c-0.1-0.1-0.1-0.1-0.2-0.2c-0.1-0.1-0.1-0.1-0.2-0.1c-0.1,0-0.1-0.1-0.2-0.1
				c-0.1,0-0.1-0.1-0.2-0.1c0,0-0.1,0-0.1-0.1l-59.2-24.7l37.1-11.2l59.3,21.1l37.5,20.1l-29.6,24.1
				C750.8,504.4,750.3,504.2,749.6,504.2z M746.3,515.2l42.8-34.9l54.9,5.2l-105.4,52.4L746.3,515.2z M720,593.2l15.8-46.8
				l60.1,35.1l24.5,41.7l-11.8,22.3l-33.1,25.5L735,645.6L720,593.2z M732.3,659.5l16.6,102.1c0,0,0,0.1,0,0.1
				c0,0.2,0.1,0.3,0.2,0.5c0,0,0,0.1,0.1,0.1c0.1,0.2,0.2,0.4,0.3,0.5c0,0,0,0,0,0l19.8,22.9l-92.4,93.2L732.3,659.5z M691.7,931.4
				c0.2-0.1,0.4-0.2,0.5-0.3l67.5-51.6l85.8,185.9L702.8,960.6L691.7,931.4z M1001.5,960.6l-142.9,104.5l85.6-185.5l67.5,51.6
				c0.2,0.2,0.5,0.3,0.8,0.4L1001.5,960.6z M1027.6,879.3l-92.8-93.5l19.8-23c0,0,0,0,0,0c0.1-0.2,0.2-0.3,0.3-0.5
				c0,0,0-0.1,0.1-0.1c0.1-0.2,0.1-0.3,0.2-0.5c0,0,0-0.1,0-0.1L971.9,659L1027.6,879.3z M969.3,645.4l-40.6,25.6l-33.1-25.5
				l-11.8-22.3l24.5-41.7l60.3-35.2l15.8,46.9L969.3,645.4z M965.6,537.9l-105.6-52.4l55.1-5.2l0.5,0.4c0.3,0.3,0.6,0.6,0.9,0.8
				l32.8,26.7c0.2,0.3,0.6,0.6,0.9,0.8l7.6,6.2L965.6,537.9z M1007.5,508.1l-31.2-2.2l21.7-26.4l54.7-22.8L1007.5,508.1z
				 M957.8,460.5l59.3-21.1l37.1,11.2l-59.2,24.7c-0.7,0.3-1.2,0.9-1.4,1.6l-23.5,28.5l-17.6-1.2l-30.3-24.7L957.8,460.5z
				 M1071.3,347.2c-0.5,0.1-0.9,0.3-1.3,0.6L931.5,462.6L1047.3,302l182.2,26.4L1071.3,347.2z M1251.5,311.8l1.9-69.6l53.6-96.1
				L1251.5,311.8z"/>
		</g>
	</g>
</g>
<g id="Vexels">
	<g>
		<g>
			<path class="st4" d="M855,1117.3l-1-2.1c-0.5-1-1.7-1.4-2.8-1c-1.1,0.4-1.6,1.6-1.2,2.5l1.1,2.3l8.4,18.3
				c0.1,0.1,0.2,0.2,0.2,0.3c0,0,0,0,0,0c0,0.1,0.1,0.1,0.2,0.2c0,0.1,0,0.1,0,0.1c0.1,0.1,0.2,0.1,0.3,0.2c0,0,0,0,0,0
				c0.1,0.1,0.3,0.2,0.4,0.2c0,0,0,0,0,0s0,0,0,0c0.1,0,0.2,0,0.3,0.1c0,0,0.1,0,0.1,0c0.1,0,0.3,0,0.4,0c0.1,0,0.2,0,0.4,0
				c0,0,0.1,0,0.1,0c0.1,0,0.2-0.1,0.3-0.1c0,0,0,0,0.1,0c0.1,0,0.2-0.1,0.3-0.2c0.1,0,0.1,0,0.1,0c0.1-0.1,0.2-0.1,0.2-0.2
				c0,0,0,0,0.1-0.1c0-0.1,0.2-0.1,0.2-0.2c0,0,0,0,0,0c0.1-0.1,0.1-0.2,0.2-0.3l0.4-0.8l-2.3-5L855,1117.3z M937.4,1117.2
				c0.7-0.9,0.5-2.1-0.5-2.7c-1-0.7-2.3-0.5-3,0.4l-4.4,5.5l2.6,3.2L937.4,1117.2z M872,1114.2c-1-0.4-2.3,0-2.8,1l-5.6,12.2l2.3,5
				l7.3-15.7C873.6,1115.8,873.1,1114.6,872,1114.2z M821.9,1106.8c-0.9-0.9-2.1-1.4-3.4-1.4c-1.3,0-2.5,0.5-3.4,1.4l-15.6,15.6
				c-1.9,1.9-1.9,4.9,0,6.8l15.6,15.6c0.9,0.9,2.1,1.4,3.4,1.4c1.3,0,2.5-0.5,3.4-1.4l15.6-15.7c0.9-0.9,1.4-2.1,1.4-3.4
				c0-1.3-0.5-2.5-1.4-3.4L821.9,1106.8z M835.1,1127.2l-15.2,15.2c-0.8,0.8-2.1,0.8-2.8,0l-15.2-15.2c-0.8-0.8-0.8-2,0-2.8
				l15.2-15.2c0,0,0,0,0,0v12.6c-0.6,0.2-1.2,0.5-1.7,1c-0.8,0.8-1.3,1.9-1.3,3c0,1.1,0.4,2.2,1.3,3c0.8,0.8,1.9,1.3,3,1.3
				c1.1,0,2.2-0.4,3-1.3c1.7-1.7,1.7-4.4,0-6.1c-0.5-0.5-1.1-0.8-1.7-1v-12.6c0,0,0,0,0,0l15.2,15.2c0.4,0.4,0.6,0.9,0.6,1.4
				C835.7,1126.3,835.5,1126.8,835.1,1127.2z M930,1126.3l-2.6-3.3l-6.6-8.1c-0.7-0.9-2-1.1-3-0.4c-1,0.6-1.2,1.8-0.5,2.7l7.4,9.1
				l-7.4,9.2c-0.7,0.8-0.5,2.1,0.5,2.7c0.4,0.2,0.8,0.4,1.2,0.4c0.7,0,1.3-0.3,1.7-0.8l6.6-8.2l7,8.8c0.4,0.5,1,0.8,1.6,0.8
				c0.4,0,1-0.2,1.3-0.5c0.9-0.7,0.9-2,0.2-2.8L930,1126.3z M895.7,1113.8c-6.3,0-11.4,5.6-11.4,12.4c0,6.8,5.1,12.3,11.4,12.3
				c3.9,0,7.4-2.1,9.5-5.6c0.5-0.9,0.3-2-0.6-2.7c-0.3-0.2-0.6-0.3-1-0.3c-0.7,0-1.3,0.4-1.6,0.9c-1.3,2.3-3.7,3.8-6.3,3.8
				c-3.8,0-7-3-7.5-7.1h16.9c1.1,0,1.9-0.8,1.9-1.9l0-0.3C906.5,1118.8,901.6,1113.8,895.7,1113.8z M888.4,1123.5
				c1-3.5,3.9-5.8,7.3-5.8c3.3,0,6.2,2.3,7.1,5.8H888.4z M992.8,1134.5c0,0-2.9,0-3,0c-1.1,0-2.4-0.6-2.4-2.4v-19.7
				c0-1.2-0.9-2.1-2.1-2.1c-1.1,0-2.1,1-2.1,2.1v19.7c0,3.9,2.6,6.4,6.6,6.4c0,0,2.9,0,3,0c1-0.1,1.9-0.9,1.9-2
				C994.6,1135.4,993.8,1134.6,992.8,1134.5z M1024.9,1128c-0.9-1.3-2.3-2.2-3.9-2.9c-1.5-0.7-3.4-1.1-5.4-1.5h-0.1
				c-2.1-0.4-3.8-0.9-4.9-1.6c-0.5-0.3-0.9-0.6-1.1-0.9c-0.2-0.3-0.3-0.6-0.3-1c0-0.7,0.4-1.5,1.5-2.2c1-0.7,2.6-1.2,4.3-1.2
				c2.4,0,4.3,1.1,6.3,2.3c0.9,0.6,2.2,0.3,2.8-0.5c0.6-0.8,0.4-1.9-0.5-2.5c-2-1.2-4.7-2.8-8.5-2.8c-2.5,0-4.9,0.7-6.7,1.9
				c-1.8,1.2-3.1,3-3.1,5.2c0,1.1,0.3,2,0.9,2.9c0.8,1.2,2.1,2.1,3.6,2.8c1.5,0.6,3.2,1.1,5,1.4h0.1c2.3,0.4,4.2,1,5.3,1.7
				c0.6,0.4,0.9,0.7,1.2,1.1c0.2,0.4,0.3,0.7,0.3,1.1c0,0.9-0.5,1.8-1.7,2.5c-1.2,0.8-2.9,1.3-4.8,1.3c-2.8,0-5.7-1.5-7.4-2.7
				c-0.9-0.6-2.1-0.5-2.8,0.2c-0.7,0.8-0.5,1.9,0.3,2.6c2.2,1.6,5.7,3.5,9.9,3.5c2.8,0,5.3-0.7,7.2-2c1.9-1.3,3.3-3.2,3.3-5.5
				C1025.8,1129.9,1025.5,1128.9,1024.9,1128z M960.5,1113.8c-6.3,0-11.4,5.6-11.4,12.4c0,6.8,5.1,12.3,11.4,12.3
				c3.9,0,7.4-2.1,9.5-5.6c0.5-0.9,0.2-2-0.6-2.7c-0.3-0.2-0.6-0.3-1-0.3c-0.7,0-1.3,0.4-1.6,0.9c-1.3,2.3-3.7,3.8-6.3,3.8
				c-3.8,0-7-3-7.5-7.1h17c1.1,0,1.9-0.8,1.9-1.9v-0.3C971.3,1118.8,966.5,1113.8,960.5,1113.8z M953.3,1123.5
				c1-3.5,3.9-5.8,7.3-5.8c3.3,0,6.2,2.3,7.1,5.8H953.3z"/>
		</g>
		<g>
			<path class="st4" d="M683.1,1127.5c0,0.7,0,1.4,0,2c0,0.6,0.1,1.2,0.2,1.8h-1.2l-0.4-1.5h-0.1c-0.3,0.5-0.7,0.9-1.3,1.3
				c-0.5,0.3-1.2,0.5-1.9,0.5c-1.4,0-2.5-0.4-3.2-1.4c-0.7-0.9-1-2.3-1-4.3c0-1.8,0.4-3.2,1.3-4.2c0.9-1,2.1-1.4,3.6-1.4
				c0.5,0,1,0,1.3,0.1c0.3,0.1,0.6,0.2,1,0.3v-4.5h1.7L683.1,1127.5L683.1,1127.5z M678.7,1129.9c0.7,0,1.3-0.2,1.7-0.6
				c0.4-0.4,0.7-1,0.9-1.7v-5.4c-0.3-0.2-0.6-0.3-0.9-0.4c-0.3-0.1-0.8-0.1-1.3-0.1c-1,0-1.8,0.3-2.3,1c-0.6,0.7-0.8,1.7-0.8,3.1
				c0,0.6,0,1.1,0.1,1.6c0.1,0.5,0.2,0.9,0.5,1.3c0.2,0.4,0.5,0.6,0.9,0.9C677.8,1129.8,678.2,1129.9,678.7,1129.9z"/>
			<path class="st4" d="M694.3,1130.3c-0.4,0.3-1,0.6-1.6,0.8c-0.7,0.2-1.4,0.3-2.1,0.3c-0.8,0-1.5-0.1-2.1-0.4
				c-0.6-0.3-1.1-0.6-1.5-1.1c-0.4-0.5-0.7-1.1-0.9-1.8c-0.2-0.7-0.3-1.5-0.3-2.3c0-1.8,0.4-3.2,1.2-4.2c0.8-1,2-1.4,3.5-1.4
				c0.5,0,1,0.1,1.5,0.2c0.5,0.1,0.9,0.3,1.3,0.6c0.4,0.3,0.7,0.7,1,1.3c0.2,0.6,0.4,1.3,0.4,2.2c0,0.5,0,1-0.1,1.6h-6.9
				c0,0.6,0.1,1.2,0.2,1.7c0.1,0.5,0.3,0.9,0.6,1.2c0.3,0.3,0.6,0.6,1.1,0.8c0.4,0.2,1,0.3,1.6,0.3c0.5,0,1-0.1,1.5-0.3
				c0.5-0.2,0.9-0.4,1.1-0.6L694.3,1130.3z M690.6,1121.6c-0.9,0-1.5,0.2-2,0.7c-0.5,0.4-0.8,1.2-0.9,2.3h5.4c0-1.1-0.2-1.9-0.6-2.3
				C691.9,1121.8,691.3,1121.6,690.6,1121.6z"/>
			<path class="st4" d="M702.1,1128.2c0-0.4-0.1-0.8-0.4-1c-0.3-0.2-0.6-0.4-1-0.6c-0.4-0.2-0.8-0.3-1.3-0.5
				c-0.5-0.1-0.9-0.3-1.3-0.6c-0.4-0.2-0.7-0.5-1-0.9c-0.3-0.4-0.4-0.9-0.4-1.5c0-1,0.3-1.8,0.9-2.3c0.6-0.5,1.4-0.7,2.5-0.7
				c0.8,0,1.4,0.1,2,0.2c0.5,0.1,1,0.3,1.4,0.5l-0.4,1.4c-0.3-0.2-0.7-0.3-1.2-0.4c-0.5-0.1-1-0.2-1.5-0.2c-0.6,0-1.1,0.1-1.4,0.3
				c-0.3,0.2-0.4,0.6-0.4,1.1c0,0.4,0.1,0.7,0.4,0.9c0.3,0.2,0.6,0.4,1,0.6c0.4,0.2,0.8,0.3,1.3,0.5c0.5,0.2,0.9,0.4,1.3,0.6
				c0.4,0.3,0.7,0.6,1,1c0.3,0.4,0.4,0.9,0.4,1.6c0,0.5-0.1,0.9-0.2,1.3c-0.2,0.4-0.4,0.8-0.7,1c-0.3,0.3-0.7,0.5-1.2,0.7
				c-0.5,0.2-1,0.2-1.7,0.2c-0.8,0-1.5-0.1-2.1-0.2c-0.6-0.2-1.1-0.3-1.4-0.6l0.5-1.5c0.3,0.2,0.8,0.4,1.3,0.5
				c0.5,0.2,1.1,0.2,1.6,0.2c0.6,0,1.1-0.1,1.5-0.4C701.9,1129.3,702.1,1128.9,702.1,1128.2z"/>
			<path class="st4" d="M706.5,1117.1c0-0.3,0.1-0.6,0.3-0.9c0.2-0.2,0.5-0.4,0.9-0.4c0.3,0,0.6,0.1,0.9,0.4
				c0.2,0.2,0.4,0.5,0.4,0.9s-0.1,0.6-0.4,0.8c-0.2,0.2-0.5,0.3-0.9,0.3c-0.3,0-0.6-0.1-0.9-0.3
				C706.6,1117.7,706.5,1117.4,706.5,1117.1z M706.8,1120.4h1.7v10.8h-1.7V1120.4z"/>
			<path class="st4" d="M720.5,1131.7c0,1.4-0.4,2.4-1.1,3.1c-0.7,0.7-1.8,1-3.3,1c-0.9,0-1.6-0.1-2.1-0.2c-0.5-0.1-1-0.3-1.3-0.4
				l0.5-1.5c0.3,0.1,0.7,0.3,1.1,0.4c0.4,0.1,0.9,0.2,1.6,0.2c0.6,0,1.1-0.1,1.5-0.2c0.4-0.1,0.7-0.3,0.9-0.5c0.2-0.3,0.4-0.6,0.5-1
				c0.1-0.4,0.1-0.9,0.1-1.4v-1h-0.1c-0.3,0.4-0.7,0.7-1.1,1c-0.4,0.2-1,0.3-1.8,0.3c-1.5,0-2.5-0.5-3.2-1.4s-1-2.3-1-4.2
				c0-1.8,0.4-3.2,1.3-4.2c0.9-1,2.2-1.4,3.9-1.4c0.8,0,1.5,0.1,2.1,0.2c0.6,0.1,1.1,0.3,1.6,0.5L720.5,1131.7L720.5,1131.7z
				 M716.2,1129.9c0.7,0,1.3-0.2,1.7-0.6c0.4-0.4,0.7-0.9,0.9-1.7v-5.5c-0.6-0.3-1.3-0.4-2.2-0.4c-1,0-1.7,0.3-2.3,1
				c-0.6,0.7-0.8,1.7-0.8,3.1c0,0.6,0.1,1.2,0.2,1.7c0.1,0.5,0.3,0.9,0.5,1.3c0.2,0.4,0.5,0.6,0.8,0.8
				C715.3,1129.8,715.7,1129.9,716.2,1129.9z"/>
			<path class="st4" d="M730.8,1131.2v-6.2c0-1.1-0.2-2-0.5-2.5c-0.3-0.6-0.9-0.9-1.8-0.9c-0.8,0-1.4,0.2-1.9,0.6
				c-0.5,0.4-0.8,0.9-1,1.5v7.4h-1.7v-10.8h1.2l0.3,1.3h0.1c0.3-0.5,0.8-0.8,1.4-1.1c0.6-0.3,1.3-0.4,2.1-0.4c0.6,0,1.1,0.1,1.6,0.2
				c0.4,0.1,0.8,0.4,1.1,0.7c0.3,0.3,0.5,0.8,0.7,1.4c0.2,0.6,0.2,1.3,0.2,2.2v6.5L730.8,1131.2L730.8,1131.2z"/>
			<path class="st4" d="M743.5,1130.3c-0.4,0.3-1,0.6-1.6,0.8c-0.7,0.2-1.3,0.3-2.1,0.3c-0.8,0-1.5-0.1-2.1-0.4
				c-0.6-0.3-1.1-0.6-1.5-1.1c-0.4-0.5-0.7-1.1-0.9-1.8c-0.2-0.7-0.3-1.5-0.3-2.3c0-1.8,0.4-3.2,1.2-4.2c0.8-1,2-1.4,3.5-1.4
				c0.5,0,1,0.1,1.5,0.2c0.5,0.1,0.9,0.3,1.3,0.6c0.4,0.3,0.7,0.7,0.9,1.3c0.2,0.6,0.4,1.3,0.4,2.2c0,0.5,0,1-0.1,1.6h-6.9
				c0,0.6,0.1,1.2,0.2,1.7c0.1,0.5,0.3,0.9,0.6,1.2c0.3,0.3,0.6,0.6,1.1,0.8c0.4,0.2,1,0.3,1.6,0.3c0.5,0,1-0.1,1.5-0.3
				c0.5-0.2,0.9-0.4,1.1-0.6L743.5,1130.3z M739.8,1121.6c-0.8,0-1.5,0.2-2,0.7c-0.5,0.4-0.8,1.2-0.9,2.3h5.4c0-1.1-0.2-1.9-0.6-2.3
				C741.2,1121.8,740.6,1121.6,739.8,1121.6z"/>
			<path class="st4" d="M754.9,1127.5c0,0.7,0,1.4,0,2c0,0.6,0.1,1.2,0.2,1.8H754l-0.4-1.5h-0.1c-0.3,0.5-0.7,0.9-1.3,1.3
				c-0.5,0.3-1.2,0.5-1.9,0.5c-1.4,0-2.5-0.4-3.2-1.4c-0.7-0.9-1-2.3-1-4.3c0-1.8,0.4-3.2,1.3-4.2c0.9-1,2.1-1.4,3.6-1.4
				c0.5,0,1,0,1.3,0.1c0.3,0.1,0.6,0.2,1,0.3v-4.5h1.7L754.9,1127.5L754.9,1127.5z M750.6,1129.9c0.7,0,1.3-0.2,1.7-0.6
				c0.4-0.4,0.7-1,0.9-1.7v-5.4c-0.3-0.2-0.6-0.3-0.9-0.4c-0.3-0.1-0.8-0.1-1.3-0.1c-1,0-1.8,0.3-2.3,1c-0.6,0.7-0.8,1.7-0.8,3.1
				c0,0.6,0,1.1,0.1,1.6c0.1,0.5,0.2,0.9,0.5,1.3c0.2,0.4,0.5,0.6,0.9,0.9C749.6,1129.8,750.1,1129.9,750.6,1129.9z"/>
			<path class="st4" d="M764,1116.1h1.7v5.4h0.1c0.3-0.4,0.8-0.7,1.3-1c0.5-0.2,1.1-0.3,1.7-0.3c1.4,0,2.4,0.4,3.1,1.3
				c0.7,0.9,1,2.3,1,4.1c0,1.9-0.5,3.3-1.4,4.3c-0.9,1-2.2,1.5-3.9,1.5c-0.8,0-1.5-0.1-2.2-0.3s-1.1-0.4-1.5-0.6L764,1116.1
				L764,1116.1z M768.5,1121.6c-0.7,0-1.3,0.2-1.8,0.6c-0.4,0.4-0.8,1-1,1.7v5.4c0.3,0.2,0.6,0.3,1,0.4c0.4,0.1,0.8,0.1,1.2,0.1
				c1,0,1.8-0.3,2.3-1c0.6-0.7,0.9-1.8,0.9-3.2c0-0.6,0-1.1-0.2-1.6c-0.1-0.5-0.3-0.9-0.5-1.3c-0.2-0.3-0.5-0.6-0.8-0.8
				C769.4,1121.7,769,1121.6,768.5,1121.6z"/>
			<path class="st4" d="M778.6,1127.4l0.6,2.1h0.1l0.5-2.1l2.1-7h1.7l-3.2,9.7c-0.2,0.7-0.5,1.4-0.7,2.1c-0.2,0.7-0.5,1.3-0.8,1.8
				c-0.3,0.5-0.6,0.9-1,1.2c-0.4,0.3-0.8,0.5-1.3,0.5c-0.5,0-0.9-0.1-1.3-0.2l0.3-1.5c0.2,0.1,0.4,0.1,0.5,0.1
				c0.4,0,0.8-0.2,1.2-0.6c0.4-0.4,0.7-1.2,0.9-2.2l-4.3-10.8h2L778.6,1127.4z"/>
		</g>
	</g>
</g>
<g id="Layer_3">
</g>
</svg>
