<?xml version="1.0" encoding="utf-8"?>
<!-- Generator: Adobe Illustrator 19.1.0, SVG Export Plug-In . SVG Version: 6.00 Build 0)  -->
<svg version="1.0" xmlns="http://www.w3.org/2000/svg" xmlns:xlink="http://www.w3.org/1999/xlink" x="0px" y="0px"
	 viewBox="0 0 1700 1178" enable-background="new 0 0 1700 1178" xml:space="preserve">
<pattern  x="-1586.169" y="-709" width="490.25" height="490.25" patternUnits="userSpaceOnUse" id="New_Pattern_Swatch_6" viewBox="0 -490.25 490.25 490.25" overflow="visible">
	<g>
		<polygon fill="none" points="0,-490.25 490.25,-490.25 490.25,0 0,0 		"/>
		<path fill="#FFFFFF" d="M180.657-490.25c0.304,0.519,0.681,1.01,0.886,1.565c0.152,0.41,0.223,1.246,0.085,1.303
			c-0.673,0.279-1.429,0.475-2.151,0.46c-0.311-0.007-0.827-0.566-0.871-0.922c-0.098-0.786,0.046-1.602,0.091-2.405
			C179.35-490.25,180.004-490.25,180.657-490.25z"/>
		<path fill="#FFFFFF" d="M490.25-102.707c-0.335-0.131-0.813-0.167-0.974-0.412c-0.318-0.485-0.461-1.085-0.677-1.638
			c0.55-0.134,1.101-0.268,1.65-0.401C490.25-104.342,490.25-103.524,490.25-102.707z"/>
		<path fill="#FFFFFF" d="M0-105.403c0.848-0.12,1.334,0.227,1.283,1.103c-0.043,0.766-0.345,1.33-1.283,1.104
			C0-103.933,0-104.668,0-105.403z"/>
		<path fill="#FFFFFF" d="M122.806-163.377c0.861,0.5,1.727,0.993,2.577,1.511c0.118,0.072,0.214,0.268,0.224,0.413
			c0.068,0.964,0.178,1.932,0.141,2.893c-0.038,0.976-1.816,2.096-2.861,1.89c-1.742-0.342-2.335-1.189-2.084-2.917
			c0.036-0.25-0.088-0.527-0.154-0.788c-0.144-0.568-0.597-1.338-0.381-1.655c0.347-0.51,1.125-0.736,1.742-1.042
			c0.163-0.081,0.4-0.013,0.603-0.013C122.677-163.183,122.742-163.279,122.806-163.377z"/>
		<path fill="#FFFFFF" d="M167.349-262.934c-0.956-0.623-1.721-1.074-2.429-1.602c-0.348-0.258-0.54-0.73-0.893-0.979
			c-0.873-0.615-0.873-1.548-0.346-2.115c0.387-0.416,1.371-0.461,2.048-0.367c0.626,0.088,1.36,0.443,1.754,0.922
			c0.669,0.81,1.22,1.773,1.553,2.764C169.109-264.094,168.063-263.5,167.349-262.934z"/>
		<path fill="#FFFFFF" d="M410.513-22.612c1.121-0.018,2.189,0.022,2.251,1.564c0.007,0.172,0.281,0.372,0.474,0.492
			c0.997,0.623,1.104,1.115,0.436,2.149c-0.414,0.639-1.569,0.878-2.161,0.328c-0.915-0.851-1.772-1.773-2.577-2.729
			c-0.272-0.323-0.544-0.974-0.396-1.239c0.179-0.319,0.797-0.416,1.242-0.553C410.006-22.669,410.268-22.612,410.513-22.612z"/>
		<path fill="#FFFFFF" d="M27.67-87.161c0.292-0.686,0.409-1.738,0.914-1.979c1.074-0.514,1.621,0.482,2.099,1.323
			c0.135,0.239,0.392,0.407,0.583,0.616c0.494,0.542,0.549,1.066-0.07,1.563c-0.185,0.149-0.413,0.284-0.519,0.481
			c-0.264,0.488-0.196,1.402-1.123,1.037c-0.848-0.334-1.797-0.705-1.631-1.955c0.042-0.319,0.006-0.649,0.006-0.976
			C27.842-87.088,27.756-87.125,27.67-87.161z"/>
		<path fill="#FFFFFF" d="M104.574-192.588c1.414-0.172,2.057,0.931,2.737,1.685c0.734,0.816,0.03,2.153-1.077,2.211
			c-1.149,0.06-2.501,0.36-2.563-1.495c-0.002-0.075-0.042-0.171-0.098-0.219c-0.496-0.436-1.15-0.938-0.598-1.599
			C103.29-192.382,104.027-192.405,104.574-192.588z"/>
		<path fill="#FFFFFF" d="M423.967-244.215c1.028-0.854,2.244-0.602,2.81,0.684c0.504,1.146-0.786,1.342-1.208,1.991
			c-0.112,0.174-0.918,0.158-1.143-0.052c-0.697-0.651-1.293-1.421-1.867-2.189c-0.113-0.15,0.042-0.501,0.074-0.76
			C423.03-244.443,423.428-244.347,423.967-244.215z"/>
		<path fill="#FFFFFF" d="M276.11-331.125c-0.345,0.37-0.82,1.166-1.521,1.549c-0.677,0.369-0.959-0.373-0.998-0.968
			c-0.051-0.759,0.079-1.534-0.807-1.979c-0.155-0.078-0.224-0.662-0.099-0.875c0.15-0.259,0.535-0.486,0.845-0.525
			C274.495-334.043,276.075-332.563,276.11-331.125z"/>
		<path fill="#FFFFFF" d="M40.781-440.727c1.05,0.757,1.999,1.38,2.854,2.112c0.152,0.13-0.025,1.015-0.158,1.043
			c-0.597,0.128-1.258,0.185-1.848,0.052c-0.623-0.141-1.242-0.456-1.766-0.831c-0.33-0.235-0.759-0.923-0.662-1.057
			C39.54-439.871,40.088-440.181,40.781-440.727z"/>
		<path fill="#FFFFFF" d="M80.258-430.222c0.479,0.422,1.311,0.804,1.363,1.273c0.111,0.993-0.943,1.761-1.913,1.732
			c-1.048-0.03-1.298-0.671-1.266-1.55C78.482-429.81,79.163-430.023,80.258-430.222z"/>
		<path fill="#FFFFFF" d="M211.65-380.598c0.994-0.689,2.104-1.123,3.329-0.756c0.306,0.092,0.573,0.813,0.57,1.244
			c-0.001,0.254-0.613,0.76-0.871,0.713c-1.018-0.184-2.007-0.542-3.006-0.836C211.665-380.353,211.658-380.476,211.65-380.598z"/>
		<path fill="#FFFFFF" d="M262.654-238.313c0.579,0.546,1.329,1.16,1.284,1.224c-0.456,0.658-1.041,1.227-1.59,1.819
			c-0.485-0.58-0.971-1.16-1.456-1.74C261.409-237.393,261.927-237.775,262.654-238.313z"/>
		<path fill="#FFFFFF" d="M115.78-108.964c0.603,0.625,1.187,0.958,1.296,1.406c0.177,0.731-0.752,1.758-1.382,1.722
			c-1.031-0.06-1.316-0.895-1.239-1.642C114.502-107.929,115.171-108.314,115.78-108.964z"/>
		<path fill="#FFFFFF" d="M6.304-485.897c0.179-0.39,0.313-1.103,0.744-1.464c0.248-0.209,1.069,0.015,1.461,0.289
			c0.569,0.397,1.306,0.941,0.808,1.789c-0.145,0.245-0.839,0.326-1.223,0.234C7.53-485.185,7.02-485.543,6.304-485.897z"/>
		<path fill="#FFFFFF" d="M253.243-241.965c0.325,0,0.713-0.111,0.962,0.027c0.335,0.186,0.778,0.567,0.775,0.862
			c-0.002,0.296-0.448,0.752-0.781,0.844c-0.531,0.146-1.159,0.16-1.691,0.022c-0.417-0.109-0.994-0.477-1.076-0.827
			c-0.169-0.727,0.434-0.945,1.078-0.95c0.244-0.001,0.489,0,0.733,0C253.243-241.979,253.243-241.973,253.243-241.965z"/>
		<path fill="#FFFFFF" d="M246.364-348.585c-0.35,0.389-0.638,1.006-1.061,1.117c-0.825,0.218-1.079-0.485-1.173-1.175
			c-0.038-0.277-0.121-0.617-0.005-0.832c0.263-0.486,0.636-0.912,0.965-1.363c0.316,0.438,0.659,0.859,0.933,1.321
			c0.112,0.191,0.074,0.472,0.104,0.713C246.206-348.73,246.285-348.658,246.364-348.585z"/>
		<path fill="#FFFFFF" d="M49.401-431.242c0.036,0.713-2.193,2.207-2.75,1.919c-0.201-0.104-0.511-0.432-0.486-0.469
			c0.475-0.718,0.903-1.513,1.544-2.05c0.26-0.217,1.009,0.127,1.523,0.262C49.331-431.555,49.371-431.309,49.401-431.242z"/>
		<path fill="#FFFFFF" d="M49.857-426.449c-0.143,1.076-0.214,1.818-0.365,2.546c-0.031,0.148-0.381,0.346-0.551,0.317
			c-0.162-0.026-0.32-0.299-0.411-0.496c-0.212-0.463-0.423-0.933-0.56-1.42c-0.134-0.476-0.314-1.017-0.198-1.455
			c0.058-0.218,0.816-0.471,1.115-0.352C49.338-427.128,49.663-426.635,49.857-426.449z"/>
		<path fill="#FFFFFF" d="M164.088-260.299c-0.166,0.142-0.744,0.74-0.824,0.68c-0.667-0.505-1.242-1.131-1.846-1.72
			c0.405-0.291,0.791-0.79,1.219-0.829C163.625-262.259,164.117-261.652,164.088-260.299z"/>
		<path fill="#FFFFFF" d="M136.045-395.851c-1.228-0.041-1.991-0.792-1.88-1.681c0.042-0.336,0.457-0.625,0.702-0.936
			c0.643,0.585,1.303,1.154,1.886,1.793C136.788-396.635,136.202-396.029,136.045-395.851z"/>
		<path fill="#FFFFFF" d="M285.331-195.644c0.747,0.662,1.444,1.218,2.041,1.865c0.107,0.117-0.114,0.795-0.327,0.889
			c-0.292,0.129-0.766,0.035-1.08-0.124c-0.401-0.204-0.746-0.544-1.068-0.872c-0.23-0.235-0.585-0.609-0.523-0.81
			C284.469-195.005,284.873-195.218,285.331-195.644z"/>
		<path fill="#FFFFFF" d="M18.756-483.176c-0.089,2.184-0.916,2.897-2.259,2.279c-0.645-0.297-0.947-0.881-0.314-1.297
			C16.9-482.664,17.815-482.834,18.756-483.176z"/>
		<path fill="#FFFFFF" d="M408.542-14.519c-1.066-0.225-1.647-0.606-1.508-1.46c0.071-0.438,0.564-0.808,0.865-1.209
			c0.576,0.508,1.152,1.015,1.729,1.523C409.266-15.283,408.903-14.901,408.542-14.519z"/>
		<path fill="#FFFFFF" d="M397.072-210.63c0.172,0.177,0.645,0.459,0.787,0.859c0.192,0.538-1.045,1.581-1.887,1.565
			c-0.271-0.006-0.722-0.385-0.768-0.649C395.081-209.564,396.052-210.589,397.072-210.63z"/>
		<path fill="#FFFFFF" d="M115.831-226.777c0.473,0.56,1.009,1.079,1.389,1.695c0.176,0.285,0.144,0.799,0.009,1.129
			c-0.057,0.142-0.757,0.231-0.919,0.08c-0.459-0.425-0.899-0.942-1.132-1.512c-0.146-0.356,0.093-0.871,0.159-1.315
			C115.5-226.726,115.665-226.752,115.831-226.777z"/>
		<path fill="#FFFFFF" d="M459.269-133.65c-0.728-0.6-1.238-1.021-1.749-1.442c0.36-0.315,0.722-0.891,1.082-0.891
			c0.654,0.001,1.62-0.018,1.622,1.009C460.224-134.614,459.724-134.254,459.269-133.65z"/>
		<path fill="#FFFFFF" d="M117.318-285.939c0.567,0.629,1.165,0.988,1.207,1.403c0.089,0.881-0.683,0.93-1.358,0.928
			c-0.676-0.002-1.334-0.213-1.167-0.988C116.092-285.021,116.698-285.336,117.318-285.939z"/>
		<path fill="#FFFFFF" d="M203.846-377.535c0.709,0.83,1.205,1.35,1.582,1.945c0.039,0.063-0.863,0.88-0.934,0.826
			c-0.526-0.398-1.018-0.888-1.369-1.445C203.029-376.361,203.453-376.84,203.846-377.535z"/>
		<path fill="#FFFFFF" d="M385.129-331.648c-0.707,0.618-1.103,0.965-1.501,1.311c-0.313-0.435-0.845-0.857-0.871-1.31
			c-0.023-0.381,0.542-0.797,0.847-1.197C384.009-332.525,384.414-332.208,385.129-331.648z"/>
		<path fill="#FFFFFF" d="M383.805-301.449c-0.46-0.57-0.746-0.926-1.032-1.281c0.385-0.309,0.782-0.875,1.152-0.857
			c0.408,0.019,0.792,0.573,1.186,0.895C384.743-302.342,384.375-301.992,383.805-301.449z"/>
		<path fill="#FFFFFF" d="M381.859-151.628c-0.579,0.538-0.939,0.871-1.298,1.205c-0.287-0.411-0.8-0.822-0.799-1.232
			c0.001-0.4,0.526-0.801,0.821-1.2C380.938-152.516,381.29-152.176,381.859-151.628z"/>
		<path fill="#FFFFFF" d="M287.8-309.379c-0.549,0.543-0.878,0.868-1.207,1.193c-0.289-0.406-0.778-0.799-0.807-1.224
			c-0.024-0.355,0.489-0.745,0.765-1.12C286.906-310.202,287.262-309.875,287.8-309.379z"/>
		<path fill="#FFFFFF" d="M362.642-352.016c-0.573,0.494-0.929,0.801-1.285,1.108c-0.289-0.46-0.697-0.895-0.809-1.396
			c-0.045-0.198,0.621-0.811,0.869-0.761C361.803-352.986,362.107-352.504,362.642-352.016z"/>
		<path fill="#FFFFFF" d="M73.533-99.747c-0.55,0.45-0.946,1.006-1.239,0.955c-0.355-0.062-0.901-0.669-0.861-0.974
			c0.056-0.431,0.574-0.801,0.895-1.196C72.661-100.627,72.994-100.291,73.533-99.747z"/>
		<path fill="#FFFFFF" d="M361.338-469.227c-0.579-0.58-0.933-0.935-1.286-1.289c0.36-0.304,0.747-0.872,1.076-0.841
			c0.398,0.038,0.848,0.531,1.067,0.939C362.276-470.268,361.765-469.799,361.338-469.227z"/>
		<path fill="#FFFFFF" d="M123.262-190.374c-0.48-0.516-0.794-0.853-1.108-1.189c0.383-0.273,0.769-0.764,1.147-0.759
			c0.383,0.005,0.759,0.502,1.138,0.783C124.108-191.211,123.777-190.883,123.262-190.374z"/>
		<path fill="#FFFFFF" d="M222.621-414.696c-0.482-0.564-0.785-0.92-1.088-1.275c0.413-0.288,0.813-0.768,1.244-0.799
			c0.3-0.021,0.9,0.577,0.897,0.894C223.672-415.541,223.112-415.211,222.621-414.696z"/>
		<path fill="#FFFFFF" d="M177.556-392.487c-0.41-0.565-0.661-0.911-0.911-1.257c0.418-0.277,0.836-0.766,1.256-0.769
			c0.348-0.002,0.699,0.567,1.049,0.884C178.555-393.306,178.159-392.982,177.556-392.487z"/>
		<path fill="#FFFFFF" d="M111.823-124.538c-0.457-0.624-0.928-0.988-0.924-1.348c0.003-0.287,0.611-0.82,0.902-0.789
			c0.401,0.043,0.756,0.515,1.13,0.803C112.636-125.517,112.34-125.16,111.823-124.538z"/>
		<path fill="#FFFFFF" d="M226.35-323.859c-0.482,0.58-0.965,1.161-1.447,1.741c-0.274-0.235-0.775-0.46-0.787-0.708
			c-0.063-1.346,1.213-0.925,1.836-1.391C226.084-324.098,226.217-323.978,226.35-323.859z"/>
		<path fill="#FFFFFF" d="M337.273-482.493c-0.403-0.546-0.908-0.95-0.842-1.208c0.086-0.331,0.654-0.783,0.968-0.75
			c0.401,0.043,0.757,0.52,1.132,0.809C338.182-483.324,337.833-483.005,337.273-482.493z"/>
		<path fill="#FFFFFF" d="M368.735-240.026c-0.605,0.514-0.938,1.008-1.31,1.04c-0.267,0.023-0.843-0.594-0.817-0.887
			c0.031-0.374,0.472-0.871,0.846-1C367.688-240.953,368.121-240.454,368.735-240.026z"/>
		<path fill="#FFFFFF" d="M224.033-473.25c-0.508,0.512-0.832,0.839-1.157,1.166c-0.262-0.348-0.744-0.706-0.728-1.04
			c0.02-0.386,0.479-0.75,0.746-1.124C223.211-473.97,223.528-473.691,224.033-473.25z"/>
		<path fill="#FFFFFF" d="M230.19-35.191c0.225,0.407,0.634,0.822,0.617,1.219c-0.015,0.33-0.53,0.638-0.825,0.956
			c-0.297-0.308-0.813-0.599-0.837-0.927c-0.03-0.397,0.355-0.825,0.56-1.24C229.867-35.187,230.028-35.188,230.19-35.191z"/>
		<path fill="#FFFFFF" d="M481.976-294.908c-0.596,0.513-0.916,0.992-1.297,1.047c-0.262,0.037-0.607-0.518-0.915-0.808
			c0.354-0.304,0.671-0.697,1.08-0.87C481.025-295.616,481.395-295.248,481.976-294.908z"/>
		<path fill="#FFFFFF" d="M210.063-109.647c-0.672,0.4-1.082,0.837-1.376,0.769c-0.33-0.075-0.783-0.626-0.76-0.937
			c0.025-0.321,0.547-0.819,0.875-0.838C209.111-110.672,209.449-110.166,210.063-109.647z"/>
		<path fill="#FFFFFF" d="M255.035-405.848c-0.222-0.352-0.646-0.725-0.611-1.049c0.039-0.348,0.51-0.648,0.791-0.971
			c0.301,0.308,0.792,0.585,0.847,0.932c0.051,0.32-0.364,0.716-0.573,1.078C255.337-405.853,255.186-405.851,255.035-405.848z"/>
		<path fill="#FFFFFF" d="M225.824-245.811c-0.447-0.666-0.908-1.057-0.854-1.352c0.062-0.336,0.584-0.811,0.906-0.811
			c0.301-0.002,0.802,0.518,0.843,0.854C226.758-246.817,226.291-246.453,225.824-245.811z"/>
		<path fill="#FFFFFF" d="M239.98-436.855c-0.378-0.691-0.758-1.076-0.721-1.415c0.031-0.291,0.539-0.53,0.836-0.792
			c0.281,0.318,0.73,0.611,0.789,0.967C240.928-437.832,240.464-437.484,239.98-436.855z"/>
		<path fill="#FFFFFF" d="M468.53-226.237c0.421,0.663,0.828,1.023,0.811,1.363c-0.014,0.291-0.583,0.829-0.781,0.777
			c-0.355-0.094-0.776-0.51-0.858-0.863C467.642-225.216,468.086-225.589,468.53-226.237z"/>
		<path fill="#FFFFFF" d="M193.822-249.078c-0.634,0.368-1.001,0.755-1.295,0.706c-0.316-0.053-0.564-0.515-0.843-0.798
			c0.318-0.281,0.608-0.726,0.965-0.788C192.904-250.003,193.248-249.533,193.822-249.078z"/>
		<path fill="#FFFFFF" d="M422.334-224.769c-0.702,0.351-1.099,0.715-1.439,0.667c-0.286-0.04-0.768-0.655-0.697-0.844
			c0.127-0.343,0.578-0.726,0.934-0.77C421.398-225.747,421.727-225.272,422.334-224.769z"/>
		<path fill="#FFFFFF" d="M197.625-361.176c-0.351,0.223-0.707,0.623-1.049,0.611c-0.285-0.009-0.77-0.498-0.774-0.78
			c-0.004-0.3,0.434-0.821,0.718-0.851c0.341-0.034,0.726,0.35,1.091,0.553C197.615-361.486,197.62-361.332,197.625-361.176z"/>
		<path fill="#FFFFFF" d="M146.33-155.113c-0.604,0.398-0.982,0.833-1.238,0.77c-0.355-0.087-0.618-0.549-0.92-0.85
			c0.325-0.276,0.622-0.715,0.983-0.774C145.415-156.011,145.759-155.551,146.33-155.113z"/>
		<path fill="#FFFFFF" d="M109.698-187.323c-0.35,0.23-0.703,0.643-1.047,0.635c-0.29-0.006-0.774-0.487-0.793-0.781
			c-0.018-0.283,0.427-0.807,0.715-0.843c0.341-0.042,0.733,0.326,1.102,0.517C109.683-187.639,109.69-187.48,109.698-187.323z"/>
		<path fill="#FFFFFF" d="M201.967-116.637c-0.682,0.375-1.092,0.778-1.344,0.696c-0.342-0.112-0.719-0.569-0.775-0.927
			c-0.032-0.204,0.554-0.719,0.843-0.704C201.03-117.556,201.35-117.117,201.967-116.637z"/>
		<path fill="#FFFFFF" d="M247.479-113.649c-0.692,0.394-1.072,0.78-1.416,0.751c-0.285-0.024-0.789-0.615-0.73-0.82
			c0.1-0.343,0.543-0.746,0.895-0.805C246.493-114.568,246.843-114.117,247.479-113.649z"/>
		<path fill="#FFFFFF" d="M372.832-110.747c-0.693,0.453-1.046,0.858-1.392,0.853c-0.275-0.004-0.542-0.512-0.813-0.796
			c0.313-0.287,0.59-0.712,0.955-0.813C371.817-111.569,372.185-111.16,372.832-110.747z"/>
		<path fill="#FFFFFF" d="M36.125-104.607c-0.596,0.405-0.961,0.843-1.23,0.79c-0.357-0.069-0.638-0.523-0.952-0.812
			c0.32-0.279,0.613-0.722,0.971-0.783C35.186-105.458,35.54-105.019,36.125-104.607z"/>
		<path fill="#FFFFFF" d="M289.611-33.606c-0.42-0.578-0.87-0.935-0.82-1.195c0.068-0.356,0.517-0.642,0.802-0.957
			c0.292,0.311,0.745,0.587,0.82,0.944C290.468-34.556,290.021-34.191,289.611-33.606z"/>
		<path fill="#FFFFFF" d="M318.214-345.087c-0.683,0.38-1.092,0.786-1.344,0.704c-0.345-0.111-0.571-0.592-0.849-0.914
			c0.303-0.26,0.613-0.733,0.906-0.723C317.268-346.006,317.591-345.566,318.214-345.087z"/>
		<path fill="#FFFFFF" d="M154.151-343.428c0.409,0.578,0.852,0.938,0.799,1.195c-0.075,0.355-0.521,0.634-0.81,0.945
			c-0.289-0.313-0.741-0.592-0.814-0.949C153.273-342.49,153.729-342.85,154.151-343.428z"/>
		<path fill="#FFFFFF" d="M47.958-319.599c-0.4-0.691-0.791-1.067-0.759-1.404c0.028-0.294,0.531-0.544,0.824-0.814
			c0.284,0.315,0.729,0.6,0.797,0.958C48.87-320.599,48.423-320.243,47.958-319.599z"/>
		<path fill="#FFFFFF" d="M114.643-222.146c0.434,0.603,0.856,0.938,0.868,1.286c0.009,0.265-0.505,0.547-0.787,0.821
			c-0.285-0.321-0.681-0.605-0.811-0.98C113.847-221.213,114.252-221.569,114.643-222.146z"/>
		<path fill="#FFFFFF" d="M412.847-353.043c-0.376-0.615-0.801-1.017-0.725-1.258c0.109-0.342,0.588-0.567,0.908-0.843
			c0.244,0.308,0.672,0.61,0.682,0.926C413.722-353.922,413.291-353.611,412.847-353.043z"/>
		<path fill="#FFFFFF" d="M423.049-147.77c-0.438-0.658-0.855-1.011-0.842-1.349c0.01-0.295,0.503-0.573,0.782-0.858
			c0.301,0.3,0.76,0.562,0.849,0.914C423.901-148.807,423.474-148.428,423.049-147.77z"/>
		<path fill="#FFFFFF" d="M140.004-86.165c-0.364,0.203-0.745,0.587-1.087,0.555c-0.289-0.027-0.743-0.538-0.738-0.83
			c0.004-0.287,0.481-0.78,0.771-0.796c0.343-0.018,0.707,0.38,1.063,0.597C140.009-86.481,140.007-86.323,140.004-86.165z"/>
		<path fill="#FFFFFF" d="M363.406-38.745c-0.344,0.238-0.688,0.657-1.032,0.656c-0.286,0-0.779-0.476-0.8-0.771
			c-0.021-0.286,0.411-0.819,0.697-0.858c0.34-0.047,0.735,0.318,1.107,0.505C363.388-39.057,363.397-38.9,363.406-38.745z"/>
		<path fill="#FFFFFF" d="M481.961-304.648c-0.685,0.377-1.099,0.782-1.347,0.699c-0.345-0.117-0.567-0.6-0.842-0.926
			c0.306-0.256,0.62-0.727,0.913-0.713C481.024-305.572,481.344-305.131,481.961-304.648z"/>
		<path fill="#FFFFFF" d="M484.62-208.487c-0.37-0.608-0.76-0.965-0.719-1.26c0.045-0.311,0.501-0.563,0.777-0.842
			c0.288,0.307,0.743,0.583,0.808,0.932C485.534-209.404,485.064-209.056,484.62-208.487z"/>
		<path fill="#FFFFFF" d="M284.544-183.224c-0.411-0.589-0.86-0.964-0.798-1.208c0.088-0.345,0.555-0.594,0.859-0.884
			c0.261,0.291,0.704,0.566,0.731,0.879C285.363-184.143,284.951-183.81,284.544-183.224z"/>
		<path fill="#FFFFFF" d="M246.137-432.895c0.588,0.692,1.058,1.247,1.528,1.801c-0.173,0.127-0.46,0.395-0.503,0.359
			c-0.541-0.436-1.058-0.904-1.539-1.405C245.59-432.176,245.881-432.524,246.137-432.895z"/>
		<path fill="#FFFFFF" d="M73.499-440.874c-0.313,0.138-0.67,0.439-0.931,0.371c-0.349-0.09-0.624-0.466-0.931-0.72
			c0.268-0.235,0.556-0.682,0.8-0.66c0.385,0.035,0.74,0.387,1.108,0.603C73.531-441.145,73.515-441.009,73.499-440.874z"/>
		<path fill="#FFFFFF" d="M345.292-253.451c0.366,0.642,0.755,1.018,0.697,1.305c-0.063,0.305-0.56,0.742-0.841,0.723
			c-0.278-0.019-0.712-0.522-0.729-0.833C344.403-252.549,344.84-252.867,345.292-253.451z"/>
		<path fill="#FFFFFF" d="M83.476-417.195c0.374,0.611,0.801,1.016,0.722,1.25c-0.114,0.34-0.592,0.558-0.915,0.828
			c-0.243-0.307-0.668-0.608-0.676-0.922C82.598-416.332,83.031-416.637,83.476-417.195z"/>
		<path fill="#FFFFFF" d="M476.855-279.386c-0.67,0.374-1.061,0.767-1.329,0.697c-0.303-0.079-0.642-0.561-0.68-0.899
			c-0.023-0.205,0.503-0.67,0.768-0.658C475.934-280.233,476.237-279.84,476.855-279.386z"/>
		<path fill="#FFFFFF" d="M214.052-387.592c-0.642,0.383-1.008,0.777-1.295,0.727c-0.309-0.057-0.763-0.542-0.747-0.818
			c0.016-0.284,0.502-0.728,0.815-0.757C213.115-388.467,213.445-388.036,214.052-387.592z"/>
		<path fill="#FFFFFF" d="M53.062-14.393c-0.406-0.654-0.81-1.019-0.759-1.3c0.055-0.303,0.511-0.675,0.842-0.733
			c0.199-0.035,0.689,0.468,0.695,0.735C53.847-15.369,53.476-15.041,53.062-14.393z"/>
		<path fill="#FFFFFF" d="M293.905-164.266c-0.65,0.411-1.012,0.817-1.292,0.768c-0.304-0.054-0.676-0.506-0.738-0.837
			c-0.036-0.196,0.462-0.688,0.73-0.695C292.925-165.04,293.255-164.673,293.905-164.266z"/>
		<path fill="#FFFFFF" d="M41.653-455.156c-0.128-0.375-0.409-0.782-0.342-1.119c0.063-0.322,0.486-0.789,0.758-0.794
			c0.297-0.005,0.602,0.448,0.904,0.7c-0.23,0.275-0.461,0.551-0.692,0.825C42.072-455.414,41.862-455.285,41.653-455.156z"/>
		<path fill="#FFFFFF" d="M412.003-370.411c-0.512,0.339-0.832,0.716-1.103,0.683c-0.286-0.033-0.524-0.459-0.783-0.715
			c0.284-0.268,0.537-0.686,0.863-0.754C411.201-371.244,411.525-370.799,412.003-370.411z"/>
		<path fill="#FFFFFF" d="M438.341-4.482c-0.572,0.337-0.91,0.692-1.223,0.671c-0.259-0.018-0.487-0.479-0.729-0.743
			c0.285-0.261,0.544-0.671,0.867-0.731C437.486-5.329,437.805-4.901,438.341-4.482z"/>
		<path fill="#FFFFFF" d="M365.484-261.327c-0.477,0.366-0.805,0.794-1.024,0.745c-0.319-0.072-0.559-0.488-0.834-0.759
			c0.262-0.244,0.508-0.657,0.789-0.683C364.685-262.049,364.991-261.67,365.484-261.327z"/>
		<path fill="#FFFFFF" d="M243.049-467.685c-0.235-0.488-0.483-0.854-0.427-0.909c0.475-0.466,1.003-0.878,1.532-1.282
			c0.017-0.013,0.362,0.336,0.344,0.361C244.086-468.958,243.645-468.422,243.049-467.685z"/>
		<path fill="#FFFFFF" d="M239.13-397.704c-0.5,0.329-0.857,0.73-1.07,0.663c-0.312-0.096-0.52-0.527-0.771-0.815
			c0.276-0.225,0.55-0.617,0.831-0.622C238.388-398.481,238.663-398.083,239.13-397.704z"/>
		<path fill="#FFFFFF" d="M43.038-423.131c0.32,0.549,0.68,0.891,0.631,1.157c-0.05,0.278-0.496,0.483-0.77,0.721
			c-0.235-0.275-0.644-0.544-0.654-0.827C42.236-422.352,42.642-422.637,43.038-423.131z"/>
		<path fill="#FFFFFF" d="M127.791-355.935c-0.41,0.35-0.684,0.582-0.957,0.814c-0.218-0.336-0.58-0.662-0.603-1.011
			c-0.016-0.226,0.462-0.486,0.718-0.731C127.19-356.597,127.432-356.33,127.791-355.935z"/>
		<path fill="#FFFFFF" d="M51.005-88.38c-0.336-0.52-0.705-0.84-0.667-1.1c0.04-0.274,0.47-0.491,0.73-0.732
			c0.241,0.26,0.652,0.507,0.674,0.785C51.764-89.166,51.374-88.872,51.005-88.38z"/>
		<path fill="#FFFFFF" d="M322.919-466.225c0.338,0.605,0.645,0.904,0.613,1.162c-0.04,0.326-0.357,0.617-0.555,0.924
			c-0.209-0.252-0.569-0.493-0.588-0.76C322.366-465.217,322.634-465.557,322.919-466.225z"/>
		<path fill="#FFFFFF" d="M409.947-276.387c-0.379-0.512-0.733-0.783-0.751-1.076c-0.015-0.235,0.414-0.721,0.583-0.695
			c0.307,0.049,0.736,0.357,0.796,0.628C410.63-277.279,410.27-276.935,409.947-276.387z"/>
		<path fill="#FFFFFF" d="M78.396-218.671c-0.371-0.541-0.748-0.85-0.721-1.116c0.028-0.276,0.449-0.513,0.699-0.767
			c0.231,0.231,0.638,0.455,0.648,0.695C79.033-219.558,78.718-219.244,78.396-218.671z"/>
		<path fill="#FFFFFF" d="M80.338-204.679c0.339,0.442,0.732,0.749,0.683,0.941c-0.076,0.297-0.456,0.516-0.707,0.767
			c-0.219-0.241-0.59-0.47-0.614-0.73C79.679-203.945,80.022-204.223,80.338-204.679z"/>
		<path fill="#FFFFFF" d="M238.084-442.253c0.316,0.501,0.648,0.8,0.641,1.09c-0.006,0.226-0.512,0.66-0.664,0.609
			c-0.293-0.099-0.627-0.446-0.688-0.743C237.331-441.501,237.723-441.793,238.084-442.253z"/>
		<path fill="#FFFFFF" d="M370.484-327.032c-0.465,0.362-0.761,0.756-0.965,0.713c-0.299-0.063-0.642-0.401-0.744-0.698
			c-0.05-0.147,0.392-0.654,0.617-0.658C369.685-327.682,369.984-327.349,370.484-327.032z"/>
		<path fill="#FFFFFF" d="M90.469-236.551c0.365-0.371,0.73-0.741,1.096-1.112c0.178,0.187,0.524,0.521,0.51,0.539
			c-0.341,0.387-0.722,0.74-1.095,1.099C90.809-236.2,90.639-236.376,90.469-236.551z"/>
		<path fill="#FFFFFF" d="M221.221-486.795c-0.341-0.314-0.682-0.63-1.023-0.945c0.233-0.217,0.466-0.433,0.699-0.649
			c0.291,0.371,0.582,0.741,0.873,1.112C221.586-487.116,221.404-486.955,221.221-486.795z"/>
		<path fill="#FFFFFF" d="M436.136-154.184c-0.404,0.341-0.684,0.745-0.887,0.709c-0.299-0.052-0.543-0.418-0.811-0.65
			c0.252-0.25,0.471-0.631,0.766-0.703C435.404-154.878,435.711-154.495,436.136-154.184z"/>
		<path fill="#FFFFFF" d="M235.1-215.726c-0.584,0.311-0.908,0.622-1.197,0.593c-0.227-0.022-0.582-0.478-0.566-0.72
			c0.014-0.236,0.436-0.635,0.662-0.624C234.29-216.464,234.566-216.113,235.1-215.726z"/>
		<path fill="#FFFFFF" d="M325.541-183.378c-0.61,0.241-0.938,0.493-1.211,0.443c-0.257-0.047-0.456-0.411-0.682-0.635
			c0.295-0.152,0.585-0.408,0.887-0.424C324.769-184.005,325.018-183.715,325.541-183.378z"/>
		<path fill="#FFFFFF" d="M160.244-305.761c0.316,0.459,0.659,0.739,0.636,0.983c-0.024,0.26-0.398,0.485-0.618,0.727
			c-0.25-0.253-0.629-0.474-0.703-0.77C159.511-305.015,159.904-305.318,160.244-305.761z"/>
		<path fill="#FFFFFF" d="M244.109-475.578c-0.457,0.322-0.775,0.703-0.969,0.647c-0.293-0.084-0.499-0.473-0.742-0.733
			c0.251-0.211,0.493-0.573,0.755-0.588C243.398-476.268,243.664-475.912,244.109-475.578z"/>
		<path fill="#FFFFFF" d="M61.142-19.691c0.332,0.437,0.691,0.702,0.679,0.949c-0.012,0.26-0.379,0.503-0.592,0.753
			c-0.261-0.243-0.651-0.448-0.736-0.741C60.438-18.924,60.823-19.244,61.142-19.691z"/>
		<path fill="#FFFFFF" d="M231.904-481.65c0.365,0.43,0.775,0.715,0.736,0.91c-0.059,0.299-0.43,0.537-0.668,0.801
			c-0.232-0.229-0.617-0.438-0.654-0.693C231.283-480.879,231.611-481.176,231.904-481.65z"/>
		<path fill="#FFFFFF" d="M37.885-26.853c-0.42,0.358-0.709,0.772-0.905,0.732c-0.299-0.062-0.534-0.437-0.795-0.679
			c0.231-0.233,0.441-0.623,0.699-0.657C37.129-27.487,37.423-27.149,37.885-26.853z"/>
		<path fill="#FFFFFF" d="M444.33-189.509c0.287,0.466,0.648,0.807,0.581,0.998c-0.101,0.286-0.501,0.467-0.774,0.692
			c-0.196-0.262-0.549-0.525-0.546-0.785C443.595-188.85,443.969-189.091,444.33-189.509z"/>
		<path fill="#FFFFFF" d="M256.17-283.552c-0.291-0.495-0.614-0.801-0.57-1.038c0.048-0.251,0.443-0.438,0.687-0.652
			c0.214,0.246,0.584,0.484,0.596,0.739C256.895-284.262,256.529-284.004,256.17-283.552z"/>
		<path fill="#FFFFFF" d="M219.848-75.366c-0.293-0.436-0.631-0.72-0.6-0.954c0.033-0.248,0.488-0.67,0.637-0.623
			c0.294,0.091,0.629,0.422,0.701,0.714C220.629-76.055,220.205-75.765,219.848-75.366z"/>
		<path fill="#FFFFFF" d="M474.503-55.907c-0.365,0.234-0.656,0.523-0.758,0.467c-0.306-0.167-0.537-0.47-0.798-0.72
			c0.227-0.186,0.503-0.558,0.67-0.514C473.901-56.6,474.117-56.264,474.503-55.907z"/>
		<path fill="#FFFFFF" d="M47.287-50.263c-0.365,0.678-0.521,1.146-0.83,1.466c-0.159,0.165-0.592,0.066-0.9,0.087
			c0.062-0.277,0.032-0.673,0.205-0.808C46.118-49.796,46.582-49.935,47.287-50.263z"/>
		<path fill="#FFFFFF" d="M24.705-46.036c-0.286-0.452-0.614-0.74-0.581-0.979c0.035-0.253,0.413-0.458,0.641-0.684
			c0.24,0.256,0.609,0.484,0.674,0.778C25.48-46.734,25.066-46.449,24.705-46.036z"/>
		<path fill="#FFFFFF" d="M158.174-194.658c-0.449,0.359-0.709,0.727-0.949,0.716c-0.254-0.014-0.666-0.378-0.682-0.61
			c-0.015-0.228,0.355-0.635,0.608-0.681C157.388-195.275,157.691-194.948,158.174-194.658z"/>
		<path fill="#FFFFFF" d="M398.748-1.479c-0.498,0.308-0.768,0.603-1.036,0.599c-0.207-0.003-0.604-0.425-0.568-0.579
			c0.063-0.273,0.369-0.641,0.617-0.678C397.986-2.17,398.27-1.817,398.748-1.479z"/>
		<path fill="#FFFFFF" d="M176.607-486.566c0.309,0.422,0.492,0.674,0.678,0.926c-0.268,0.18-0.527,0.479-0.806,0.498
			c-0.193,0.014-0.604-0.392-0.577-0.551C175.947-485.958,176.268-486.175,176.607-486.566z"/>
		<path fill="#FFFFFF" d="M56.085-287.559c-0.5,0.313-0.802,0.648-1.028,0.604c-0.247-0.05-0.532-0.428-0.59-0.707
			c-0.03-0.145,0.396-0.547,0.609-0.541C55.342-288.195,55.599-287.889,56.085-287.559z"/>
		<path fill="#FFFFFF" d="M25.755-336.053c-0.508,0.297-0.821,0.625-1.048,0.574c-0.245-0.056-0.517-0.447-0.566-0.729
			c-0.025-0.147,0.414-0.537,0.624-0.523C25.032-336.713,25.28-336.398,25.755-336.053z"/>
		<path fill="#FFFFFF" d="M2.454-212.764c0.355,0.47,0.674,0.712,0.696,0.978c0.018,0.211-0.364,0.658-0.51,0.635
			c-0.284-0.046-0.681-0.308-0.743-0.554C1.841-211.929,2.165-212.249,2.454-212.764z"/>
		<path fill="#FFFFFF" d="M484.653-212.861c-0.453,0.359-0.716,0.726-0.946,0.706c-0.247-0.021-0.574-0.373-0.65-0.642
			c-0.043-0.153,0.334-0.594,0.542-0.607C483.864-213.423,484.149-213.14,484.653-212.861z"/>
		<path fill="#FFFFFF" d="M394.665-452.385c-0.295-0.473-0.627-0.771-0.585-1.002c0.046-0.248,0.448-0.607,0.681-0.597
			c0.226,0.011,0.589,0.421,0.602,0.671C395.374-453.076,395.011-452.819,394.665-452.385z"/>
		<path fill="#FFFFFF" d="M294.643-75.328c-0.489,0.335-0.776,0.683-1.005,0.647c-0.249-0.04-0.549-0.407-0.616-0.684
			c-0.035-0.146,0.373-0.564,0.583-0.566C293.872-75.934,294.143-75.639,294.643-75.328z"/>
		<path fill="#FFFFFF" d="M52.005-475.432c-0.286-0.535-0.584-0.84-0.544-1.089c0.041-0.256,0.414-0.458,0.641-0.683
			c0.199,0.248,0.543,0.492,0.554,0.748C52.667-476.199,52.342-475.93,52.005-475.432z"/>
		<path fill="#FFFFFF" d="M456.295-342.1c0.357,0.404,0.723,0.646,0.696,0.829c-0.041,0.274-0.315,0.601-0.575,0.72
			c-0.122,0.057-0.612-0.304-0.63-0.503C455.763-341.317,456.038-341.608,456.295-342.1z"/>
		<path fill="#FFFFFF" d="M436.101-308.757c-0.477,0.277-0.753,0.563-1.016,0.552c-0.2-0.01-0.582-0.478-0.532-0.6
			c0.107-0.265,0.415-0.556,0.687-0.609C435.42-309.449,435.679-309.096,436.101-308.757z"/>
		<path fill="#FFFFFF" d="M214.73-397.716c-0.451,0.29-0.737,0.608-0.916,0.558c-0.262-0.077-0.446-0.418-0.664-0.645
			c0.207-0.195,0.424-0.556,0.621-0.546C214.033-398.336,214.281-398.033,214.73-397.716z"/>
		<path fill="#FFFFFF" d="M388.675-282.559c-0.32-0.477-0.66-0.762-0.627-0.992c0.035-0.242,0.402-0.538,0.673-0.602
			c0.145-0.034,0.557,0.371,0.556,0.576C389.274-283.31,388.981-283.045,388.675-282.559z"/>
		<path fill="#FFFFFF" d="M381.474-217.894c-0.286-0.492-0.613-0.808-0.556-1.022c0.063-0.24,0.463-0.497,0.742-0.53
			c0.156-0.019,0.532,0.416,0.511,0.615C382.143-218.567,381.823-218.335,381.474-217.894z"/>
	</g>
</pattern>
<pattern  x="-1586.169" y="-709" width="490.25" height="490.25" patternUnits="userSpaceOnUse" id="Unnamed_Pattern_5" viewBox="0 -490.25 490.25 490.25" overflow="visible">
	<g>
		<polygon fill="none" points="0,-490.25 490.25,-490.25 490.25,0 0,0 		"/>
		<path d="M180.657-490.25c0.304,0.519,0.681,1.01,0.886,1.565c0.152,0.41,0.223,1.246,0.085,1.303
			c-0.673,0.279-1.429,0.475-2.151,0.46c-0.311-0.007-0.827-0.566-0.871-0.922c-0.098-0.786,0.046-1.602,0.091-2.405
			C179.35-490.25,180.004-490.25,180.657-490.25z"/>
		<path d="M490.25-102.707c-0.335-0.131-0.813-0.167-0.974-0.412c-0.318-0.485-0.461-1.085-0.677-1.638
			c0.55-0.134,1.101-0.268,1.65-0.401C490.25-104.342,490.25-103.524,490.25-102.707z"/>
		<path d="M0-105.403c0.848-0.12,1.334,0.227,1.283,1.103c-0.043,0.766-0.346,1.33-1.283,1.104C0-103.933,0-104.668,0-105.403z"/>
		<path d="M122.806-163.377c0.86,0.5,1.727,0.993,2.577,1.511c0.117,0.072,0.214,0.268,0.225,0.413
			c0.067,0.964,0.178,1.932,0.141,2.893c-0.038,0.976-1.816,2.096-2.861,1.89c-1.742-0.342-2.334-1.189-2.083-2.917
			c0.036-0.25-0.088-0.527-0.154-0.788c-0.144-0.568-0.597-1.338-0.381-1.655c0.347-0.51,1.126-0.736,1.741-1.042
			c0.164-0.081,0.4-0.013,0.604-0.013C122.678-163.183,122.742-163.279,122.806-163.377z"/>
		<path d="M167.349-262.934c-0.956-0.623-1.721-1.074-2.429-1.602c-0.348-0.258-0.54-0.73-0.893-0.979
			c-0.873-0.615-0.873-1.548-0.346-2.115c0.387-0.416,1.371-0.461,2.048-0.367c0.626,0.088,1.36,0.443,1.754,0.922
			c0.669,0.81,1.22,1.773,1.553,2.764C169.109-264.094,168.063-263.5,167.349-262.934z"/>
		<path d="M410.513-22.612c1.121-0.018,2.189,0.022,2.251,1.564c0.007,0.172,0.281,0.372,0.474,0.492
			c0.997,0.623,1.104,1.115,0.436,2.149c-0.414,0.639-1.569,0.878-2.161,0.328c-0.915-0.851-1.772-1.773-2.577-2.729
			c-0.272-0.323-0.544-0.974-0.396-1.239c0.179-0.319,0.797-0.416,1.242-0.553C410.006-22.669,410.268-22.612,410.513-22.612z"/>
		<path d="M27.67-87.161c0.293-0.686,0.409-1.738,0.914-1.979c1.074-0.514,1.621,0.482,2.099,1.323
			c0.136,0.239,0.392,0.407,0.583,0.616c0.494,0.542,0.549,1.066-0.07,1.563c-0.185,0.149-0.414,0.284-0.519,0.481
			c-0.264,0.488-0.197,1.402-1.123,1.037c-0.848-0.334-1.797-0.705-1.631-1.955c0.042-0.319,0.006-0.649,0.006-0.976
			C27.842-87.088,27.756-87.125,27.67-87.161z"/>
		<path d="M104.574-192.588c1.413-0.172,2.057,0.931,2.736,1.685c0.734,0.816,0.029,2.153-1.076,2.211
			c-1.15,0.06-2.502,0.36-2.563-1.495c-0.003-0.075-0.043-0.171-0.099-0.219c-0.495-0.436-1.15-0.938-0.599-1.599
			C103.29-192.382,104.027-192.405,104.574-192.588z"/>
		<path d="M423.967-244.215c1.028-0.854,2.244-0.602,2.81,0.684c0.504,1.146-0.786,1.342-1.208,1.991
			c-0.112,0.174-0.918,0.158-1.143-0.052c-0.697-0.651-1.293-1.421-1.867-2.189c-0.113-0.15,0.042-0.501,0.074-0.76
			C423.03-244.443,423.428-244.347,423.967-244.215z"/>
		<path d="M276.11-331.125c-0.345,0.37-0.82,1.166-1.521,1.549c-0.677,0.369-0.959-0.373-0.998-0.968
			c-0.051-0.759,0.079-1.534-0.807-1.979c-0.155-0.078-0.224-0.662-0.099-0.875c0.15-0.259,0.535-0.486,0.845-0.525
			C274.495-334.043,276.075-332.563,276.11-331.125z"/>
		<path d="M40.781-440.727c1.05,0.757,1.999,1.38,2.854,2.112c0.152,0.13-0.024,1.015-0.158,1.043
			c-0.596,0.128-1.258,0.185-1.848,0.052c-0.623-0.141-1.241-0.456-1.766-0.831c-0.329-0.235-0.759-0.923-0.661-1.057
			C39.54-439.871,40.088-440.181,40.781-440.727z"/>
		<path d="M80.258-430.222c0.479,0.422,1.311,0.804,1.363,1.273c0.111,0.993-0.942,1.761-1.912,1.732
			c-1.049-0.03-1.298-0.671-1.266-1.55C78.482-429.81,79.163-430.023,80.258-430.222z"/>
		<path d="M211.65-380.598c0.994-0.689,2.104-1.123,3.329-0.756c0.306,0.092,0.573,0.813,0.57,1.244
			c-0.001,0.254-0.613,0.76-0.871,0.713c-1.018-0.184-2.007-0.542-3.006-0.836C211.665-380.353,211.658-380.476,211.65-380.598z"/>
		<path d="M262.654-238.313c0.579,0.546,1.329,1.16,1.284,1.224c-0.456,0.658-1.041,1.227-1.59,1.819
			c-0.485-0.58-0.971-1.16-1.456-1.74C261.409-237.393,261.927-237.775,262.654-238.313z"/>
		<path d="M115.78-108.964c0.603,0.625,1.187,0.958,1.296,1.406c0.178,0.731-0.751,1.758-1.382,1.722
			c-1.03-0.06-1.316-0.895-1.239-1.642C114.502-107.929,115.172-108.314,115.78-108.964z"/>
		<path d="M6.304-485.897c0.179-0.39,0.313-1.103,0.743-1.464c0.248-0.209,1.07,0.015,1.461,0.289
			c0.569,0.397,1.307,0.941,0.809,1.789c-0.145,0.245-0.84,0.326-1.223,0.234C7.529-485.185,7.02-485.543,6.304-485.897z"/>
		<path d="M253.243-241.965c0.325,0,0.713-0.111,0.962,0.027c0.335,0.186,0.778,0.567,0.775,0.862
			c-0.002,0.296-0.448,0.752-0.781,0.844c-0.531,0.146-1.159,0.16-1.691,0.022c-0.417-0.109-0.994-0.477-1.076-0.827
			c-0.169-0.727,0.434-0.945,1.078-0.95c0.244-0.001,0.489,0,0.733,0C253.243-241.979,253.243-241.973,253.243-241.965z"/>
		<path d="M246.364-348.585c-0.35,0.389-0.638,1.006-1.061,1.117c-0.825,0.218-1.079-0.485-1.173-1.175
			c-0.038-0.277-0.121-0.617-0.005-0.832c0.263-0.486,0.636-0.912,0.965-1.363c0.316,0.438,0.659,0.859,0.933,1.321
			c0.112,0.191,0.074,0.472,0.104,0.713C246.206-348.73,246.285-348.658,246.364-348.585z"/>
		<path d="M49.4-431.242c0.036,0.713-2.192,2.207-2.75,1.919c-0.2-0.104-0.51-0.432-0.485-0.469c0.475-0.718,0.903-1.513,1.544-2.05
			c0.26-0.217,1.01,0.127,1.523,0.262C49.33-431.555,49.371-431.309,49.4-431.242z"/>
		<path d="M49.857-426.449c-0.145,1.076-0.215,1.818-0.365,2.546c-0.031,0.148-0.381,0.346-0.551,0.317
			c-0.162-0.026-0.32-0.299-0.411-0.496c-0.212-0.463-0.423-0.933-0.56-1.42c-0.135-0.476-0.314-1.017-0.198-1.455
			c0.058-0.218,0.816-0.471,1.114-0.352C49.338-427.128,49.662-426.635,49.857-426.449z"/>
		<path d="M164.088-260.299c-0.166,0.142-0.744,0.74-0.824,0.68c-0.667-0.505-1.242-1.131-1.846-1.72
			c0.405-0.291,0.791-0.79,1.219-0.829C163.625-262.259,164.117-261.652,164.088-260.299z"/>
		<path d="M136.045-395.851c-1.227-0.041-1.99-0.792-1.88-1.681c0.042-0.336,0.457-0.625,0.702-0.936
			c0.643,0.585,1.303,1.154,1.886,1.793C136.788-396.635,136.201-396.029,136.045-395.851z"/>
		<path d="M285.331-195.644c0.747,0.662,1.444,1.218,2.041,1.865c0.107,0.117-0.114,0.795-0.327,0.889
			c-0.292,0.129-0.766,0.035-1.08-0.124c-0.401-0.204-0.746-0.544-1.068-0.872c-0.23-0.235-0.585-0.609-0.523-0.81
			C284.469-195.005,284.873-195.218,285.331-195.644z"/>
		<path d="M18.756-483.176c-0.089,2.184-0.915,2.897-2.259,2.279c-0.645-0.297-0.946-0.881-0.314-1.297
			C16.9-482.664,17.815-482.834,18.756-483.176z"/>
		<path d="M408.542-14.519c-1.066-0.225-1.647-0.606-1.508-1.46c0.071-0.438,0.564-0.808,0.865-1.209
			c0.576,0.508,1.152,1.015,1.729,1.523C409.266-15.283,408.903-14.901,408.542-14.519z"/>
		<path d="M397.072-210.63c0.172,0.177,0.645,0.459,0.787,0.859c0.192,0.538-1.045,1.581-1.887,1.565
			c-0.271-0.006-0.722-0.385-0.768-0.649C395.081-209.564,396.052-210.589,397.072-210.63z"/>
		<path d="M115.83-226.777c0.473,0.56,1.01,1.079,1.389,1.695c0.176,0.285,0.145,0.799,0.01,1.129
			c-0.057,0.142-0.757,0.231-0.92,0.08c-0.459-0.425-0.898-0.942-1.132-1.512c-0.146-0.356,0.093-0.871,0.159-1.315
			C115.5-226.726,115.666-226.752,115.83-226.777z"/>
		<path d="M459.269-133.65c-0.728-0.6-1.238-1.021-1.749-1.442c0.36-0.315,0.722-0.891,1.082-0.891
			c0.654,0.001,1.62-0.018,1.622,1.009C460.224-134.614,459.724-134.254,459.269-133.65z"/>
		<path d="M117.318-285.939c0.566,0.629,1.166,0.988,1.207,1.403c0.089,0.881-0.683,0.93-1.358,0.928
			c-0.677-0.002-1.333-0.213-1.167-0.988C116.092-285.021,116.698-285.336,117.318-285.939z"/>
		<path d="M203.846-377.535c0.709,0.83,1.205,1.35,1.582,1.945c0.039,0.063-0.863,0.88-0.934,0.826
			c-0.526-0.398-1.018-0.888-1.369-1.445C203.029-376.361,203.453-376.84,203.846-377.535z"/>
		<path d="M385.129-331.648c-0.707,0.618-1.103,0.965-1.501,1.311c-0.313-0.435-0.845-0.857-0.871-1.31
			c-0.023-0.381,0.542-0.797,0.847-1.197C384.009-332.525,384.414-332.208,385.129-331.648z"/>
		<path d="M383.805-301.449c-0.46-0.57-0.746-0.926-1.032-1.281c0.385-0.309,0.782-0.875,1.152-0.857
			c0.408,0.019,0.792,0.573,1.186,0.895C384.743-302.342,384.375-301.992,383.805-301.449z"/>
		<path d="M381.859-151.628c-0.579,0.538-0.939,0.871-1.298,1.205c-0.287-0.411-0.8-0.822-0.799-1.232
			c0.001-0.4,0.526-0.801,0.821-1.2C380.938-152.516,381.29-152.176,381.859-151.628z"/>
		<path d="M287.8-309.379c-0.549,0.543-0.878,0.868-1.207,1.193c-0.289-0.406-0.778-0.799-0.807-1.224
			c-0.024-0.355,0.489-0.745,0.765-1.12C286.906-310.202,287.262-309.875,287.8-309.379z"/>
		<path d="M362.642-352.016c-0.573,0.494-0.929,0.801-1.285,1.108c-0.289-0.46-0.697-0.895-0.809-1.396
			c-0.045-0.198,0.621-0.811,0.869-0.761C361.803-352.986,362.107-352.504,362.642-352.016z"/>
		<path d="M73.533-99.747c-0.551,0.45-0.947,1.006-1.239,0.955c-0.354-0.062-0.901-0.669-0.86-0.974
			c0.056-0.431,0.574-0.801,0.895-1.196C72.661-100.627,72.994-100.291,73.533-99.747z"/>
		<path d="M361.338-469.227c-0.579-0.58-0.933-0.935-1.286-1.289c0.36-0.304,0.747-0.872,1.076-0.841
			c0.398,0.038,0.848,0.531,1.067,0.939C362.276-470.268,361.765-469.799,361.338-469.227z"/>
		<path d="M123.262-190.374c-0.48-0.516-0.794-0.853-1.107-1.189c0.383-0.273,0.769-0.764,1.147-0.759
			c0.383,0.005,0.759,0.502,1.138,0.783C124.108-191.211,123.777-190.883,123.262-190.374z"/>
		<path d="M222.621-414.696c-0.482-0.564-0.785-0.92-1.088-1.275c0.413-0.288,0.813-0.768,1.244-0.799
			c0.3-0.021,0.9,0.577,0.897,0.894C223.672-415.541,223.112-415.211,222.621-414.696z"/>
		<path d="M177.556-392.487c-0.41-0.565-0.661-0.911-0.911-1.257c0.418-0.277,0.836-0.766,1.256-0.769
			c0.348-0.002,0.699,0.567,1.049,0.884C178.555-393.306,178.159-392.982,177.556-392.487z"/>
		<path d="M111.823-124.538c-0.458-0.624-0.928-0.988-0.924-1.348c0.003-0.287,0.611-0.82,0.902-0.789
			c0.401,0.043,0.756,0.515,1.13,0.803C112.637-125.517,112.34-125.16,111.823-124.538z"/>
		<path d="M226.35-323.859c-0.482,0.58-0.965,1.161-1.447,1.741c-0.274-0.235-0.775-0.46-0.787-0.708
			c-0.063-1.346,1.213-0.925,1.836-1.391C226.084-324.098,226.217-323.978,226.35-323.859z"/>
		<path d="M337.273-482.493c-0.403-0.546-0.908-0.95-0.842-1.208c0.086-0.331,0.654-0.783,0.968-0.75
			c0.401,0.043,0.757,0.52,1.132,0.809C338.182-483.324,337.833-483.005,337.273-482.493z"/>
		<path d="M368.735-240.026c-0.605,0.514-0.938,1.008-1.31,1.04c-0.267,0.023-0.843-0.594-0.817-0.887
			c0.031-0.374,0.472-0.871,0.846-1C367.688-240.953,368.121-240.454,368.735-240.026z"/>
		<path d="M224.033-473.25c-0.508,0.512-0.832,0.839-1.157,1.166c-0.262-0.348-0.744-0.706-0.728-1.04
			c0.02-0.386,0.479-0.75,0.746-1.124C223.211-473.97,223.528-473.691,224.033-473.25z"/>
		<path d="M230.19-35.191c0.225,0.407,0.634,0.822,0.617,1.219c-0.015,0.33-0.53,0.638-0.825,0.956
			c-0.297-0.308-0.813-0.599-0.837-0.927c-0.03-0.397,0.355-0.825,0.56-1.24C229.867-35.187,230.028-35.188,230.19-35.191z"/>
		<path d="M481.976-294.908c-0.596,0.513-0.916,0.992-1.297,1.047c-0.262,0.037-0.607-0.518-0.915-0.808
			c0.354-0.304,0.671-0.697,1.08-0.87C481.025-295.616,481.395-295.248,481.976-294.908z"/>
		<path d="M210.063-109.647c-0.672,0.4-1.082,0.837-1.376,0.769c-0.33-0.075-0.783-0.626-0.76-0.937
			c0.025-0.321,0.547-0.819,0.875-0.838C209.111-110.672,209.449-110.166,210.063-109.647z"/>
		<path d="M255.035-405.848c-0.222-0.352-0.646-0.725-0.611-1.049c0.039-0.348,0.51-0.648,0.791-0.971
			c0.301,0.308,0.792,0.585,0.847,0.932c0.051,0.32-0.364,0.716-0.573,1.078C255.337-405.853,255.186-405.851,255.035-405.848z"/>
		<path d="M225.824-245.811c-0.447-0.666-0.908-1.057-0.854-1.352c0.062-0.336,0.584-0.811,0.906-0.811
			c0.301-0.002,0.802,0.518,0.843,0.854C226.758-246.817,226.291-246.453,225.824-245.811z"/>
		<path d="M239.98-436.855c-0.378-0.691-0.758-1.076-0.721-1.415c0.031-0.291,0.539-0.53,0.836-0.792
			c0.281,0.318,0.73,0.611,0.789,0.967C240.928-437.832,240.464-437.484,239.98-436.855z"/>
		<path d="M468.53-226.237c0.421,0.663,0.828,1.023,0.811,1.363c-0.014,0.291-0.583,0.829-0.781,0.777
			c-0.355-0.094-0.776-0.51-0.858-0.863C467.642-225.216,468.086-225.589,468.53-226.237z"/>
		<path d="M193.822-249.078c-0.634,0.368-1.001,0.755-1.295,0.706c-0.316-0.053-0.564-0.515-0.843-0.798
			c0.318-0.281,0.608-0.726,0.965-0.788C192.904-250.003,193.248-249.533,193.822-249.078z"/>
		<path d="M422.334-224.769c-0.702,0.351-1.099,0.715-1.439,0.667c-0.286-0.04-0.768-0.655-0.697-0.844
			c0.127-0.343,0.578-0.726,0.934-0.77C421.398-225.747,421.727-225.272,422.334-224.769z"/>
		<path d="M197.625-361.176c-0.351,0.223-0.707,0.623-1.049,0.611c-0.285-0.009-0.77-0.498-0.774-0.78
			c-0.004-0.3,0.434-0.821,0.718-0.851c0.341-0.034,0.726,0.35,1.091,0.553C197.615-361.486,197.62-361.332,197.625-361.176z"/>
		<path d="M146.33-155.113c-0.604,0.398-0.982,0.833-1.238,0.77c-0.355-0.087-0.618-0.549-0.92-0.85
			c0.324-0.276,0.622-0.715,0.982-0.774C145.416-156.011,145.76-155.551,146.33-155.113z"/>
		<path d="M109.698-187.323c-0.35,0.23-0.703,0.643-1.048,0.635c-0.289-0.006-0.773-0.487-0.793-0.781
			c-0.018-0.283,0.428-0.807,0.716-0.843c0.341-0.042,0.733,0.326,1.103,0.517C109.684-187.639,109.69-187.48,109.698-187.323z"/>
		<path d="M201.967-116.637c-0.682,0.375-1.092,0.778-1.344,0.696c-0.342-0.112-0.719-0.569-0.775-0.927
			c-0.032-0.204,0.554-0.719,0.843-0.704C201.03-117.556,201.35-117.117,201.967-116.637z"/>
		<path d="M247.479-113.649c-0.692,0.394-1.072,0.78-1.416,0.751c-0.285-0.024-0.789-0.615-0.73-0.82
			c0.1-0.343,0.543-0.746,0.895-0.805C246.493-114.568,246.843-114.117,247.479-113.649z"/>
		<path d="M372.832-110.747c-0.693,0.453-1.046,0.858-1.392,0.853c-0.275-0.004-0.542-0.512-0.813-0.796
			c0.313-0.287,0.59-0.712,0.955-0.813C371.817-111.569,372.185-111.16,372.832-110.747z"/>
		<path d="M36.125-104.607c-0.596,0.405-0.961,0.843-1.23,0.79c-0.356-0.069-0.638-0.523-0.951-0.812
			c0.32-0.279,0.613-0.722,0.971-0.783C35.186-105.458,35.54-105.019,36.125-104.607z"/>
		<path d="M289.611-33.606c-0.42-0.578-0.87-0.935-0.82-1.195c0.068-0.356,0.517-0.642,0.802-0.957
			c0.292,0.311,0.745,0.587,0.82,0.944C290.468-34.556,290.021-34.191,289.611-33.606z"/>
		<path d="M318.214-345.087c-0.683,0.38-1.092,0.786-1.344,0.704c-0.345-0.111-0.571-0.592-0.849-0.914
			c0.303-0.26,0.613-0.733,0.906-0.723C317.268-346.006,317.591-345.566,318.214-345.087z"/>
		<path d="M154.151-343.428c0.409,0.578,0.852,0.938,0.799,1.195c-0.075,0.355-0.521,0.634-0.81,0.945
			c-0.289-0.313-0.741-0.592-0.814-0.949C153.273-342.49,153.729-342.85,154.151-343.428z"/>
		<path d="M47.958-319.599c-0.399-0.691-0.791-1.067-0.759-1.404c0.027-0.294,0.53-0.544,0.823-0.814
			c0.284,0.315,0.729,0.6,0.798,0.958C48.869-320.599,48.423-320.243,47.958-319.599z"/>
		<path d="M114.643-222.146c0.434,0.603,0.856,0.938,0.868,1.286c0.009,0.265-0.505,0.547-0.787,0.821
			c-0.285-0.321-0.681-0.605-0.811-0.98C113.847-221.213,114.252-221.569,114.643-222.146z"/>
		<path d="M412.847-353.043c-0.376-0.615-0.801-1.017-0.725-1.258c0.109-0.342,0.588-0.567,0.908-0.843
			c0.244,0.308,0.672,0.61,0.682,0.926C413.722-353.922,413.291-353.611,412.847-353.043z"/>
		<path d="M423.049-147.77c-0.438-0.658-0.855-1.011-0.842-1.349c0.01-0.295,0.503-0.573,0.782-0.858
			c0.301,0.3,0.76,0.562,0.849,0.914C423.901-148.807,423.474-148.428,423.049-147.77z"/>
		<path d="M140.004-86.165c-0.363,0.203-0.744,0.587-1.087,0.555c-0.289-0.027-0.743-0.538-0.738-0.83
			c0.005-0.287,0.482-0.78,0.771-0.796c0.344-0.018,0.707,0.38,1.063,0.597C140.01-86.481,140.007-86.323,140.004-86.165z"/>
		<path d="M363.406-38.745c-0.344,0.238-0.688,0.657-1.032,0.656c-0.286,0-0.779-0.476-0.8-0.771
			c-0.021-0.286,0.411-0.819,0.697-0.858c0.34-0.047,0.735,0.318,1.107,0.505C363.388-39.057,363.397-38.9,363.406-38.745z"/>
		<path d="M481.961-304.648c-0.685,0.377-1.099,0.782-1.347,0.699c-0.345-0.117-0.567-0.6-0.842-0.926
			c0.306-0.256,0.62-0.727,0.913-0.713C481.024-305.572,481.344-305.131,481.961-304.648z"/>
		<path d="M484.62-208.487c-0.37-0.608-0.76-0.965-0.719-1.26c0.045-0.311,0.501-0.563,0.777-0.842
			c0.288,0.307,0.743,0.583,0.808,0.932C485.534-209.404,485.064-209.056,484.62-208.487z"/>
		<path d="M284.544-183.224c-0.411-0.589-0.86-0.964-0.798-1.208c0.088-0.345,0.555-0.594,0.859-0.884
			c0.261,0.291,0.704,0.566,0.731,0.879C285.363-184.143,284.951-183.81,284.544-183.224z"/>
		<path d="M246.137-432.895c0.588,0.692,1.058,1.247,1.528,1.801c-0.173,0.127-0.46,0.395-0.503,0.359
			c-0.541-0.436-1.058-0.904-1.539-1.405C245.59-432.176,245.881-432.524,246.137-432.895z"/>
		<path d="M73.499-440.874c-0.313,0.138-0.67,0.439-0.931,0.371c-0.349-0.09-0.624-0.466-0.931-0.72
			c0.269-0.235,0.556-0.682,0.8-0.66c0.385,0.035,0.74,0.387,1.109,0.603C73.531-441.145,73.515-441.009,73.499-440.874z"/>
		<path d="M345.292-253.451c0.366,0.642,0.755,1.018,0.697,1.305c-0.063,0.305-0.56,0.742-0.841,0.723
			c-0.278-0.019-0.712-0.522-0.729-0.833C344.403-252.549,344.84-252.867,345.292-253.451z"/>
		<path d="M83.476-417.195c0.374,0.611,0.801,1.016,0.722,1.25c-0.113,0.34-0.592,0.558-0.914,0.828
			c-0.244-0.307-0.668-0.608-0.677-0.922C82.598-416.332,83.031-416.637,83.476-417.195z"/>
		<path d="M476.855-279.386c-0.67,0.374-1.061,0.767-1.329,0.697c-0.303-0.079-0.642-0.561-0.68-0.899
			c-0.023-0.205,0.503-0.67,0.768-0.658C475.934-280.233,476.237-279.84,476.855-279.386z"/>
		<path d="M214.052-387.592c-0.642,0.383-1.008,0.777-1.295,0.727c-0.309-0.057-0.763-0.542-0.747-0.818
			c0.016-0.284,0.502-0.728,0.815-0.757C213.115-388.467,213.445-388.036,214.052-387.592z"/>
		<path d="M53.063-14.393c-0.406-0.654-0.811-1.019-0.76-1.3c0.056-0.303,0.512-0.675,0.843-0.733
			c0.199-0.035,0.689,0.468,0.694,0.735C53.848-15.369,53.477-15.041,53.063-14.393z"/>
		<path d="M293.905-164.266c-0.65,0.411-1.012,0.817-1.292,0.768c-0.304-0.054-0.676-0.506-0.738-0.837
			c-0.036-0.196,0.462-0.688,0.73-0.695C292.925-165.04,293.255-164.673,293.905-164.266z"/>
		<path d="M41.653-455.156c-0.128-0.375-0.409-0.782-0.342-1.119c0.063-0.322,0.486-0.789,0.758-0.794
			c0.298-0.005,0.603,0.448,0.903,0.7c-0.23,0.275-0.461,0.551-0.691,0.825C42.072-455.414,41.862-455.285,41.653-455.156z"/>
		<path d="M412.003-370.411c-0.512,0.339-0.832,0.716-1.103,0.683c-0.286-0.033-0.524-0.459-0.783-0.715
			c0.284-0.268,0.537-0.686,0.863-0.754C411.201-371.244,411.525-370.799,412.003-370.411z"/>
		<path d="M438.341-4.482c-0.572,0.337-0.91,0.692-1.223,0.671c-0.259-0.018-0.487-0.479-0.729-0.743
			c0.285-0.261,0.544-0.671,0.867-0.731C437.486-5.329,437.805-4.901,438.341-4.482z"/>
		<path d="M365.484-261.327c-0.477,0.366-0.805,0.794-1.024,0.745c-0.319-0.072-0.559-0.488-0.834-0.759
			c0.262-0.244,0.508-0.657,0.789-0.683C364.685-262.049,364.991-261.67,365.484-261.327z"/>
		<path d="M243.049-467.685c-0.235-0.488-0.483-0.854-0.427-0.909c0.475-0.466,1.003-0.878,1.532-1.282
			c0.017-0.013,0.362,0.336,0.344,0.361C244.086-468.958,243.645-468.422,243.049-467.685z"/>
		<path d="M239.13-397.704c-0.5,0.329-0.857,0.73-1.07,0.663c-0.312-0.096-0.52-0.527-0.771-0.815
			c0.276-0.225,0.55-0.617,0.831-0.622C238.388-398.481,238.663-398.083,239.13-397.704z"/>
		<path d="M43.037-423.131c0.32,0.549,0.681,0.891,0.632,1.157c-0.05,0.278-0.497,0.483-0.77,0.721
			c-0.235-0.275-0.643-0.544-0.654-0.827C42.236-422.352,42.642-422.637,43.037-423.131z"/>
		<path d="M127.791-355.935c-0.41,0.35-0.684,0.582-0.957,0.814c-0.218-0.336-0.579-0.662-0.604-1.011
			c-0.016-0.226,0.463-0.486,0.719-0.731C127.19-356.597,127.432-356.33,127.791-355.935z"/>
		<path d="M51.006-88.38c-0.336-0.52-0.705-0.84-0.667-1.1c0.04-0.274,0.47-0.491,0.729-0.732c0.242,0.26,0.652,0.507,0.674,0.785
			C51.764-89.166,51.374-88.872,51.006-88.38z"/>
		<path d="M322.919-466.225c0.338,0.605,0.645,0.904,0.613,1.162c-0.04,0.326-0.357,0.617-0.555,0.924
			c-0.209-0.252-0.569-0.493-0.588-0.76C322.366-465.217,322.634-465.557,322.919-466.225z"/>
		<path d="M409.947-276.387c-0.379-0.512-0.733-0.783-0.751-1.076c-0.015-0.235,0.414-0.721,0.583-0.695
			c0.307,0.049,0.736,0.357,0.796,0.628C410.63-277.279,410.27-276.935,409.947-276.387z"/>
		<path d="M78.396-218.671c-0.371-0.541-0.749-0.85-0.722-1.116c0.029-0.276,0.449-0.513,0.699-0.767
			c0.23,0.231,0.639,0.455,0.648,0.695C79.033-219.558,78.719-219.244,78.396-218.671z"/>
		<path d="M80.338-204.679c0.34,0.442,0.732,0.749,0.684,0.941c-0.076,0.297-0.455,0.516-0.707,0.767
			c-0.219-0.241-0.59-0.47-0.613-0.73C79.68-203.945,80.022-204.223,80.338-204.679z"/>
		<path d="M238.084-442.253c0.316,0.501,0.648,0.8,0.641,1.09c-0.006,0.226-0.512,0.66-0.664,0.609
			c-0.293-0.099-0.627-0.446-0.688-0.743C237.331-441.501,237.723-441.793,238.084-442.253z"/>
		<path d="M370.484-327.032c-0.465,0.362-0.761,0.756-0.965,0.713c-0.299-0.063-0.642-0.401-0.744-0.698
			c-0.05-0.147,0.392-0.654,0.617-0.658C369.685-327.682,369.984-327.349,370.484-327.032z"/>
		<path d="M90.469-236.551c0.365-0.371,0.73-0.741,1.096-1.112c0.178,0.187,0.524,0.521,0.51,0.539
			c-0.342,0.387-0.722,0.74-1.096,1.099C90.809-236.2,90.639-236.376,90.469-236.551z"/>
		<path d="M221.221-486.795c-0.341-0.314-0.682-0.63-1.023-0.945c0.233-0.217,0.466-0.433,0.699-0.649
			c0.291,0.371,0.582,0.741,0.873,1.112C221.586-487.116,221.404-486.955,221.221-486.795z"/>
		<path d="M436.136-154.184c-0.404,0.341-0.684,0.745-0.887,0.709c-0.299-0.052-0.543-0.418-0.811-0.65
			c0.252-0.25,0.471-0.631,0.766-0.703C435.404-154.878,435.711-154.495,436.136-154.184z"/>
		<path d="M235.1-215.726c-0.584,0.311-0.908,0.622-1.197,0.593c-0.227-0.022-0.582-0.478-0.566-0.72
			c0.014-0.236,0.436-0.635,0.662-0.624C234.29-216.464,234.566-216.113,235.1-215.726z"/>
		<path d="M325.541-183.378c-0.61,0.241-0.938,0.493-1.211,0.443c-0.257-0.047-0.456-0.411-0.682-0.635
			c0.295-0.152,0.585-0.408,0.887-0.424C324.769-184.005,325.018-183.715,325.541-183.378z"/>
		<path d="M160.244-305.761c0.316,0.459,0.659,0.739,0.636,0.983c-0.024,0.26-0.398,0.485-0.618,0.727
			c-0.25-0.253-0.629-0.474-0.703-0.77C159.511-305.015,159.904-305.318,160.244-305.761z"/>
		<path d="M244.109-475.578c-0.457,0.322-0.775,0.703-0.969,0.647c-0.293-0.084-0.499-0.473-0.742-0.733
			c0.251-0.211,0.493-0.573,0.755-0.588C243.398-476.268,243.664-475.912,244.109-475.578z"/>
		<path d="M61.142-19.691c0.333,0.437,0.69,0.702,0.679,0.949c-0.012,0.26-0.379,0.503-0.592,0.753
			c-0.26-0.243-0.65-0.448-0.735-0.741C60.438-18.924,60.822-19.244,61.142-19.691z"/>
		<path d="M231.904-481.65c0.365,0.43,0.775,0.715,0.736,0.91c-0.059,0.299-0.43,0.537-0.668,0.801
			c-0.232-0.229-0.617-0.438-0.654-0.693C231.283-480.879,231.611-481.176,231.904-481.65z"/>
		<path d="M37.885-26.853c-0.42,0.358-0.709,0.772-0.904,0.732c-0.3-0.062-0.534-0.437-0.796-0.679
			c0.231-0.233,0.441-0.623,0.698-0.657C37.129-27.487,37.423-27.149,37.885-26.853z"/>
		<path d="M444.33-189.509c0.287,0.466,0.648,0.807,0.581,0.998c-0.101,0.286-0.501,0.467-0.774,0.692
			c-0.196-0.262-0.549-0.525-0.546-0.785C443.595-188.85,443.969-189.091,444.33-189.509z"/>
		<path d="M256.17-283.552c-0.291-0.495-0.614-0.801-0.57-1.038c0.048-0.251,0.443-0.438,0.687-0.652
			c0.214,0.246,0.584,0.484,0.596,0.739C256.895-284.262,256.529-284.004,256.17-283.552z"/>
		<path d="M219.848-75.366c-0.293-0.436-0.631-0.72-0.6-0.954c0.033-0.248,0.488-0.67,0.637-0.623
			c0.294,0.091,0.629,0.422,0.701,0.714C220.629-76.055,220.205-75.765,219.848-75.366z"/>
		<path d="M474.503-55.907c-0.365,0.234-0.656,0.523-0.758,0.467c-0.306-0.167-0.537-0.47-0.798-0.72
			c0.227-0.186,0.503-0.558,0.67-0.514C473.901-56.6,474.117-56.264,474.503-55.907z"/>
		<path d="M47.287-50.263c-0.365,0.678-0.521,1.146-0.83,1.466c-0.158,0.165-0.592,0.066-0.9,0.087
			c0.063-0.277,0.032-0.673,0.205-0.808C46.117-49.796,46.582-49.935,47.287-50.263z"/>
		<path d="M24.705-46.036c-0.286-0.452-0.613-0.74-0.58-0.979c0.035-0.253,0.412-0.458,0.641-0.684
			c0.24,0.256,0.609,0.484,0.674,0.778C25.48-46.734,25.066-46.449,24.705-46.036z"/>
		<path d="M158.174-194.658c-0.449,0.359-0.709,0.727-0.949,0.716c-0.254-0.014-0.666-0.378-0.682-0.61
			c-0.015-0.228,0.355-0.635,0.608-0.681C157.388-195.275,157.691-194.948,158.174-194.658z"/>
		<path d="M398.748-1.479c-0.498,0.308-0.768,0.603-1.036,0.599c-0.207-0.003-0.604-0.425-0.568-0.579
			c0.063-0.273,0.369-0.641,0.617-0.678C397.986-2.17,398.27-1.817,398.748-1.479z"/>
		<path d="M176.607-486.566c0.309,0.422,0.492,0.674,0.678,0.926c-0.268,0.18-0.527,0.479-0.806,0.498
			c-0.193,0.014-0.604-0.392-0.577-0.551C175.947-485.958,176.268-486.175,176.607-486.566z"/>
		<path d="M56.086-287.559c-0.5,0.313-0.803,0.648-1.029,0.604c-0.247-0.05-0.531-0.428-0.59-0.707
			c-0.029-0.145,0.396-0.547,0.609-0.541C55.342-288.195,55.6-287.889,56.086-287.559z"/>
		<path d="M25.755-336.053c-0.509,0.297-0.821,0.625-1.048,0.574c-0.245-0.056-0.517-0.447-0.566-0.729
			c-0.025-0.147,0.414-0.537,0.624-0.523C25.031-336.713,25.28-336.398,25.755-336.053z"/>
		<path d="M2.454-212.764c0.354,0.47,0.674,0.712,0.696,0.978c0.018,0.211-0.364,0.658-0.51,0.635
			c-0.284-0.046-0.682-0.308-0.742-0.554C1.842-211.929,2.165-212.249,2.454-212.764z"/>
		<path d="M484.653-212.861c-0.453,0.359-0.716,0.726-0.946,0.706c-0.247-0.021-0.574-0.373-0.65-0.642
			c-0.043-0.153,0.334-0.594,0.542-0.607C483.864-213.423,484.149-213.14,484.653-212.861z"/>
		<path d="M394.665-452.385c-0.295-0.473-0.627-0.771-0.585-1.002c0.046-0.248,0.448-0.607,0.681-0.597
			c0.226,0.011,0.589,0.421,0.602,0.671C395.374-453.076,395.011-452.819,394.665-452.385z"/>
		<path d="M294.643-75.328c-0.489,0.335-0.776,0.683-1.005,0.647c-0.249-0.04-0.549-0.407-0.616-0.684
			c-0.035-0.146,0.373-0.564,0.583-0.566C293.872-75.934,294.143-75.639,294.643-75.328z"/>
		<path d="M52.005-475.432c-0.286-0.535-0.584-0.84-0.544-1.089c0.041-0.256,0.414-0.458,0.641-0.683
			c0.199,0.248,0.543,0.492,0.555,0.748C52.667-476.199,52.342-475.93,52.005-475.432z"/>
		<path d="M456.295-342.1c0.357,0.404,0.723,0.646,0.696,0.829c-0.041,0.274-0.315,0.601-0.575,0.72
			c-0.122,0.057-0.612-0.304-0.63-0.503C455.763-341.317,456.038-341.608,456.295-342.1z"/>
		<path d="M436.101-308.757c-0.477,0.277-0.753,0.563-1.016,0.552c-0.2-0.01-0.582-0.478-0.532-0.6
			c0.107-0.265,0.415-0.556,0.687-0.609C435.42-309.449,435.679-309.096,436.101-308.757z"/>
		<path d="M214.73-397.716c-0.451,0.29-0.737,0.608-0.916,0.558c-0.262-0.077-0.446-0.418-0.664-0.645
			c0.207-0.195,0.424-0.556,0.621-0.546C214.033-398.336,214.281-398.033,214.73-397.716z"/>
		<path d="M388.675-282.559c-0.32-0.477-0.66-0.762-0.627-0.992c0.035-0.242,0.402-0.538,0.673-0.602
			c0.145-0.034,0.557,0.371,0.556,0.576C389.274-283.31,388.981-283.045,388.675-282.559z"/>
		<path d="M381.474-217.894c-0.286-0.492-0.613-0.808-0.556-1.022c0.063-0.24,0.463-0.497,0.742-0.53
			c0.156-0.019,0.532,0.416,0.511,0.615C382.143-218.567,381.823-218.335,381.474-217.894z"/>
	</g>
</pattern>
<g id="background">
	<g>
		<g>
			<pattern  id="SVGID_1_" xlink:href="#New_Pattern_Swatch_6" patternTransform="matrix(1.4218 0 0 1.0758 6111.0522 -895.0468)">
			</pattern>
			<rect x="-5.963" y="-6.15" opacity="0.31" fill="url(#SVGID_1_)" width="1711.927" height="1192.15"/>
			<pattern  id="SVGID_2_" xlink:href="#Unnamed_Pattern_5" patternTransform="matrix(0 -1.0648 1.4365 0 5581.9199 -11468.7578)">
			</pattern>
			<rect x="-5.963" y="-6.15" opacity="0.32" fill="url(#SVGID_2_)" width="1711.927" height="1192.15"/>
		</g>
	</g>
	<g>
		<g>
			<path fill="#262626" d="M735.554,595.515l10.689,26.563c0.344,0.854,1.129,1.449,2.043,1.551l34.986,3.887
				c0.093,0.011,0.186,0.016,0.277,0.016c0.86,0,1.67-0.445,2.128-1.189c0.507-0.823,0.493-1.865-0.034-2.676l-23.648-36.281
				c-0.59-0.903-1.69-1.324-2.734-1.052l-22.027,5.831c-0.693,0.184-1.274,0.656-1.596,1.297
				C735.318,594.102,735.287,594.85,735.554,595.515z M758.793,591.629l19.771,30.333l-28.24-3.137l-9.075-22.552L758.793,591.629z"
				/>
			<path fill="#262626" d="M966.882,592.164l-22.028-5.831c-1.037-0.271-2.144,0.147-2.734,1.052l-23.647,36.281
				c-0.527,0.811-0.541,1.853-0.034,2.676c0.458,0.744,1.268,1.189,2.128,1.189c0.092,0,0.185-0.005,0.277-0.016l34.985-3.887
				c0.914-0.102,1.699-0.697,2.043-1.551l10.69-26.563c0.268-0.665,0.236-1.413-0.084-2.054
				C968.157,592.82,967.576,592.348,966.882,592.164z M953.791,618.825l-28.239,3.137l19.771-30.333l17.545,4.645L953.791,618.825z"
				/>
			<path fill="#262626" d="M1319.034,119.176c-1.178-0.523-2.564-0.061-3.193,1.067l-98.523,176.521h-57.63l29.98-71.793
				c0.009-0.022,0.009-0.046,0.017-0.067c0.025-0.064,0.052-0.127,0.071-0.193c0.023-0.079,0.036-0.159,0.051-0.239
				c0.012-0.065,0.031-0.128,0.038-0.194c0.001-0.014,0-0.027,0.001-0.041c0.007-0.079,0.005-0.159,0.004-0.238
				c0-0.079,0.002-0.158-0.006-0.238c-0.005-0.055-0.016-0.109-0.025-0.164c-0.003-0.018,0.001-0.036-0.002-0.054l-22.591-119.172
				c-0.232-1.223-1.283-2.091-2.575-2.031c-1.244,0.059-2.255,1.025-2.37,2.267l-7.508,81.088c0,0.003,0,0.006-0.001,0.009
				l-3.457,37.333l-51.801,73.728h-53.382c-0.024,0-0.047,0.006-0.071,0.007c-0.073,0.002-0.143,0.01-0.214,0.018
				c-0.05,0.006-0.099,0.008-0.148,0.016c-0.036,0.006-0.071,0.016-0.107,0.024c-0.076,0.017-0.149,0.038-0.222,0.062
				c-0.043,0.014-0.087,0.024-0.13,0.04c-0.033,0.013-0.063,0.029-0.095,0.043c-0.074,0.032-0.145,0.068-0.215,0.106
				c-0.039,0.021-0.079,0.038-0.117,0.062c-0.029,0.018-0.054,0.04-0.082,0.059c-0.07,0.048-0.136,0.099-0.201,0.154
				c-0.032,0.027-0.067,0.048-0.098,0.076c-0.002,0.002-0.005,0.004-0.008,0.006l-74.393,69.577l11.64-125.212
				c0.118-1.269-0.737-2.423-1.985-2.68c-1.245-0.258-2.49,0.465-2.882,1.678l-55.704,171.977L850,479.273l-71.098-66.495
				l-55.704-171.977c-0.393-1.213-1.64-1.936-2.882-1.678c-1.248,0.257-2.104,1.411-1.985,2.68l11.639,125.211l-74.393-69.576
				c-0.003-0.003-0.007-0.005-0.01-0.007c-0.029-0.027-0.062-0.046-0.092-0.071c-0.066-0.055-0.132-0.108-0.203-0.156
				c-0.03-0.02-0.057-0.043-0.087-0.062c-0.035-0.022-0.072-0.037-0.108-0.056c-0.072-0.04-0.143-0.077-0.219-0.109
				c-0.034-0.015-0.067-0.032-0.102-0.045c-0.039-0.015-0.079-0.023-0.119-0.036c-0.074-0.024-0.148-0.047-0.225-0.064
				c-0.038-0.009-0.076-0.019-0.115-0.025c-0.046-0.008-0.092-0.009-0.139-0.015c-0.072-0.008-0.143-0.017-0.217-0.019
				c-0.025-0.001-0.049-0.007-0.073-0.007h-53.381l-51.801-73.728l-10.966-118.431c-0.115-1.241-1.126-2.208-2.37-2.267
				c-1.287-0.062-2.343,0.808-2.575,2.031l-22.591,119.172c-0.003,0.018,0.001,0.036-0.002,0.054
				c-0.009,0.055-0.02,0.109-0.025,0.164c-0.008,0.079-0.006,0.158-0.006,0.238c0,0.08-0.003,0.159,0.004,0.238
				c0.001,0.014,0,0.027,0.001,0.041c0.007,0.065,0.026,0.129,0.038,0.194c0.015,0.08,0.028,0.16,0.051,0.239
				c0.019,0.066,0.046,0.129,0.071,0.193c0.008,0.022,0.008,0.046,0.017,0.067l29.98,71.793h-57.631L384.16,120.243
				c-0.629-1.128-2.015-1.591-3.193-1.067c-1.181,0.521-1.771,1.857-1.359,3.081l69.467,207.093c0,0,0,0.001,0,0.001
				c0.015,0.045,0.038,0.085,0.055,0.129c0.025,0.062,0.051,0.122,0.081,0.182c0.04,0.081,0.085,0.158,0.133,0.234
				c0.016,0.024,0.026,0.051,0.042,0.074c0.003,0.005,0.006,0.011,0.009,0.017c0.016,0.023,0.038,0.042,0.055,0.065
				c0.054,0.072,0.114,0.14,0.175,0.206c0.043,0.046,0.085,0.092,0.131,0.134c0.031,0.029,0.061,0.058,0.094,0.085
				c0.022,0.018,0.047,0.032,0.069,0.05c0.015,0.011,0.031,0.021,0.045,0.033c0.051,0.038,0.101,0.077,0.155,0.111
				c0.076,0.048,0.156,0.087,0.237,0.126c0.024,0.012,0.047,0.027,0.072,0.038c0.015,0.007,0.028,0.017,0.043,0.023
				c0.018,0.008,0.037,0.014,0.056,0.021c0.093,0.037,0.19,0.062,0.287,0.087c0.052,0.014,0.103,0.033,0.156,0.043
				c0.041,0.008,0.083,0.009,0.125,0.015c0.018,0.003,0.034,0.012,0.052,0.014l176.244,21.067l138.412,114.764l-20.224-10.837
				c-0.11-0.06-0.226-0.11-0.344-0.152l-60.278-21.429c-0.503-0.18-1.051-0.19-1.562-0.037l-44.571,13.489
				c-0.031,0.009-0.056,0.028-0.086,0.038c-0.135,0.047-0.264,0.105-0.389,0.174c-0.042,0.023-0.087,0.042-0.128,0.067
				c-0.16,0.1-0.309,0.216-0.444,0.351c-0.019,0.019-0.033,0.042-0.051,0.061c-0.109,0.117-0.208,0.245-0.294,0.385
				c-0.032,0.052-0.059,0.106-0.087,0.161c-0.034,0.065-0.075,0.124-0.104,0.193c-0.024,0.058-0.034,0.118-0.053,0.176
				c-0.012,0.035-0.033,0.065-0.043,0.101c-0.008,0.028-0.006,0.056-0.013,0.083c-0.037,0.147-0.058,0.293-0.068,0.441
				c-0.003,0.042-0.011,0.083-0.012,0.125c-0.002,0.19,0.016,0.379,0.055,0.562c0.008,0.038,0.024,0.073,0.033,0.11
				c0.039,0.145,0.088,0.286,0.152,0.422c0.025,0.053,0.053,0.104,0.082,0.155c0.069,0.124,0.148,0.24,0.238,0.351
				c0.022,0.028,0.036,0.06,0.059,0.087l53.143,60.39c0.477,0.542,1.161,0.849,1.877,0.849c0.058,0,0.115-0.002,0.174-0.006
				l52.478-3.647l-2.725,2.222c-0.364,0.298-0.638,0.692-0.789,1.138l-26.826,79.496c-0.162,0.481-0.174,1.001-0.034,1.488
				l15.294,53.35l-60.55,239.334c-0.007,0.029-0.009,0.058-0.015,0.087c-0.01,0.049-0.018,0.097-0.025,0.146
				c-0.015,0.101-0.025,0.202-0.028,0.303c-0.001,0.048-0.004,0.095-0.003,0.142c0.003,0.116,0.015,0.231,0.035,0.345
				c0.005,0.031,0.006,0.063,0.013,0.094c0.027,0.131,0.063,0.26,0.111,0.387l28.589,74.996c0.171,0.449,0.469,0.84,0.856,1.124
				l151.114,110.994c0.031,0.023,0.066,0.039,0.098,0.061c0.033,0.022,0.066,0.042,0.101,0.062c0.178,0.107,0.364,0.193,0.557,0.252
				c0.023,0.007,0.047,0.01,0.07,0.017c0.214,0.058,0.432,0.093,0.651,0.093c0,0,0.001,0,0.001,0c0,0,0,0,0,0c0,0,0,0,0,0
				c0.058,0,0.115-0.01,0.173-0.013c0.045,0.002,0.09,0.014,0.134,0.014c0.825,0,1.599-0.429,2.068-1.142l150.832-110.336
				c0.39-0.285,0.688-0.676,0.86-1.127l28.589-74.996c0.184-0.48,0.214-1.006,0.088-1.504l-60.55-239.334l15.294-53.35
				c0.14-0.487,0.128-1.007-0.034-1.487l-26.825-79.496c-0.151-0.446-0.425-0.841-0.789-1.139l-2.439-1.989l49.123,3.414
				c0.059,0.004,0.116,0.006,0.174,0.006c0.716,0,1.4-0.308,1.877-0.849l53.144-60.39c0.023-0.027,0.037-0.06,0.059-0.087
				c0.089-0.111,0.169-0.227,0.238-0.351c0.029-0.052,0.057-0.102,0.082-0.155c0.064-0.136,0.114-0.277,0.152-0.422
				c0.01-0.037,0.025-0.072,0.033-0.11c0.04-0.184,0.058-0.372,0.055-0.562c-0.001-0.042-0.009-0.083-0.012-0.125
				c-0.01-0.147-0.031-0.294-0.068-0.441c-0.007-0.028-0.005-0.056-0.013-0.083c-0.01-0.036-0.031-0.066-0.043-0.101
				c-0.02-0.059-0.029-0.118-0.053-0.176c-0.029-0.068-0.07-0.126-0.104-0.191c-0.029-0.056-0.056-0.111-0.089-0.164
				c-0.084-0.135-0.18-0.259-0.285-0.373c-0.022-0.024-0.039-0.051-0.062-0.073c-0.133-0.133-0.281-0.248-0.439-0.347
				c-0.044-0.028-0.093-0.048-0.139-0.073c-0.122-0.066-0.246-0.123-0.377-0.168c-0.031-0.011-0.058-0.03-0.089-0.04l-44.571-13.489
				c-0.51-0.153-1.058-0.143-1.562,0.037l-60.278,21.429c-0.118,0.042-0.233,0.093-0.344,0.152l-23.702,12.701l140.66-116.628
				l176.243-21.067c0.018-0.002,0.034-0.011,0.052-0.014c0.042-0.006,0.084-0.008,0.125-0.015c0.054-0.01,0.104-0.03,0.156-0.043
				c0.097-0.025,0.194-0.051,0.287-0.087c0.019-0.007,0.038-0.013,0.056-0.021c0.015-0.006,0.029-0.016,0.044-0.023
				c0.025-0.011,0.047-0.026,0.072-0.038c0.081-0.039,0.161-0.078,0.237-0.126c0.054-0.034,0.104-0.073,0.156-0.111
				c0.015-0.011,0.03-0.021,0.045-0.032c0.023-0.018,0.047-0.031,0.069-0.05c0.032-0.027,0.062-0.056,0.094-0.085
				c0.046-0.043,0.088-0.088,0.131-0.134c0.062-0.066,0.121-0.133,0.175-0.206c0.017-0.023,0.038-0.042,0.054-0.065
				c0.004-0.006,0.006-0.012,0.01-0.018c0.016-0.023,0.027-0.05,0.042-0.073c0.048-0.075,0.093-0.153,0.133-0.234
				c0.03-0.06,0.056-0.12,0.081-0.182c0.017-0.044,0.04-0.084,0.055-0.129c0,0,0-0.001,0-0.001l69.467-207.093
				C1320.804,121.033,1320.214,119.697,1319.034,119.176z M1218.785,301.764c0.906,0,1.741-0.49,2.183-1.281l27.235-48.796
				l-2.067,73.992l-165.268-23.914h19.896c0,0,0.001,0,0.001,0h55.159c0.003,0,0.006,0.001,0.01,0.001
				c0.002,0,0.004-0.001,0.007-0.001H1218.785z M916.235,475.214c-0.172-0.02-0.346-0.025-0.521-0.01l-60.107,5.673l173.497-162.266
				L916.235,475.214z M1014.376,926.811l-117.89-90.006l1.383-8.626c0.385-0.142,0.743-0.369,1.03-0.702l32.633-37.868
				l97.633,98.405L1014.376,926.811z M675.047,887.789l97.477-98.248l32.691,37.936c0.334,0.388,0.765,0.637,1.224,0.765l1.34,8.354
				l-117.926,90.033L675.047,887.789z M736.21,652.26l36.433,22.994l-20.621,74.276L736.21,652.26z M824.362,500.841l22.583,70.868
				l-58.979-52.787L824.362,500.841z M878.446,623.763l-9.601,61.986c-0.078,0.505,0,1.022,0.225,1.481l22.083,45.136
				c0.06,0.592,0.322,1.157,0.772,1.578l9.855,20.145l-32.469-13.271c-0.301-0.122-0.622-0.186-0.946-0.186h-14.383h-5.051h-14.382
				c-0.324,0-0.646,0.063-0.946,0.186l-30.738,12.563l32.364-66.15c0.225-0.459,0.303-0.977,0.225-1.481l-9.601-61.986
				l26.297-39.505L878.446,623.763z M854.006,854.674h-0.024h-0.001h-3.664h-10.561l-19.239-13.164l31.309,4.101
				c0.215,0.029,0.434,0.029,0.648,0l31.308-4.101l-19.24,13.164H854.006z M891.642,835.439l-39.492,5.172l-39.492-5.172
				l-12.14-75.696l34.523-14.111h3.181l-20.337,35.251c-0.019,0.032-0.03,0.068-0.047,0.101c-0.04,0.078-0.078,0.156-0.11,0.236
				c-0.02,0.051-0.037,0.103-0.054,0.156c-0.026,0.08-0.047,0.161-0.065,0.243c-0.011,0.055-0.022,0.11-0.03,0.165
				c-0.012,0.082-0.018,0.165-0.021,0.247c-0.002,0.056-0.005,0.111-0.004,0.167c0.002,0.088,0.012,0.175,0.024,0.262
				c0.005,0.039,0.004,0.078,0.011,0.117l5.81,32c0.006,0.033,0.021,0.062,0.028,0.094c0.024,0.111,0.059,0.219,0.098,0.326
				c0.022,0.06,0.041,0.119,0.068,0.177c0.051,0.11,0.114,0.213,0.18,0.316c0.03,0.046,0.055,0.096,0.088,0.14
				c0.081,0.108,0.177,0.206,0.277,0.302c0.031,0.03,0.056,0.065,0.089,0.093c0.003,0.003,0.005,0.006,0.008,0.008
				c0.132,0.113,0.273,0.205,0.419,0.285c0.01,0.006,0.019,0.015,0.029,0.02l26.291,14c0.374,0.199,0.776,0.294,1.173,0.294
				c0.318,0,0.624-0.081,0.917-0.198c0.293,0.117,0.6,0.198,0.918,0.198c0.396,0,0.799-0.095,1.173-0.294l26.291-14
				c0.675-0.359,1.148-1.008,1.285-1.761l5.81-32c0-0.004,0-0.007,0.001-0.011c0.009-0.051,0.008-0.105,0.014-0.157
				c0.011-0.103,0.023-0.206,0.021-0.309c-0.001-0.059-0.01-0.118-0.015-0.178c-0.008-0.099-0.019-0.198-0.039-0.296
				c-0.005-0.023-0.004-0.046-0.009-0.07c-0.01-0.042-0.029-0.078-0.041-0.119c-0.025-0.088-0.054-0.174-0.089-0.259
				c-0.028-0.068-0.059-0.134-0.092-0.198c-0.017-0.032-0.028-0.067-0.046-0.099l-20.326-35.231l35.774,14.623L891.642,835.439z
				 M848.931,745.632h5.051h8.157l20.099,34.838l-30.071,7.09l-28.295-7.052l20.121-34.876H848.931z M853.066,825.787
				l-23.286-12.399l8.22-9.633c0.779-0.913,0.8-2.252,0.049-3.188l-11.409-14.217l24.905,6.207c0.387,0.097,0.791,0.098,1.178,0.008
				l25.626-6.042l-11.27,14.044c-0.751,0.937-0.73,2.274,0.049,3.188l8.534,10L853.066,825.787z M824.27,791.386l8.584,10.697
				l-5.477,6.418L824.27,791.386z M878.579,809.47l-6.304-7.387l9.88-12.312L878.579,809.47z M783.144,521.317l65.733,58.833
				l-25.509,38.322l-23.478-40.047c-0.217-0.37-0.525-0.679-0.896-0.895l-59.336-34.609L783.144,521.317z M821.914,630.999
				l8.478,54.74l-20.136,41.158l-31.415-52.146l33.17-25.586c0.281-0.218,0.514-0.492,0.681-0.807L821.914,630.999z
				 M776.405,680.397l31.235,51.847l-12.151,24.837c-0.013,0.026-0.02,0.054-0.032,0.08c-0.02,0.044-0.036,0.089-0.053,0.135
				c-0.036,0.094-0.066,0.19-0.09,0.288c-0.012,0.049-0.024,0.098-0.033,0.147c-0.02,0.107-0.03,0.214-0.036,0.323
				c-0.002,0.04-0.008,0.079-0.009,0.119c0,0.134,0.009,0.268,0.03,0.401l9.793,61.062L754.15,760.56L776.405,680.397z
				 M810.563,840.759l27.007,18.479c0.416,0.284,0.908,0.437,1.412,0.437h11.334h1.14l-2.006,202.344L763.82,876.446
				L810.563,840.759z M856.458,859.674h8.858c0.504,0,0.996-0.152,1.412-0.437l26.844-18.367l46.598,35.577l-85.721,185.767
				L856.458,859.674z M929.96,783.776c-0.135,0.09-0.264,0.193-0.384,0.311c-0.209,0.207-0.364,0.446-0.485,0.697l-29.809,34.591
				l9.751-60.801c0.081-0.509,0.004-1.031-0.223-1.494l-12.233-25.005l31.135-51.679l22.255,80.163L929.96,783.776z M952.094,749.53
				l-20.621-74.276l36.434-22.994L952.094,749.53z M893.96,726.728l-20.054-40.99l8.437-54.473l9.08,17.092
				c0.167,0.314,0.399,0.589,0.681,0.807l33.171,25.586L893.96,726.728z M880.833,618.326l-26.048-39.131l24.969-78.353
				l84.702,42.079l-59.335,34.609c-0.371,0.216-0.68,0.524-0.897,0.895L880.833,618.326z M852.058,571.288l-23.166-72.698
				l23.166-11.509l23.167,11.509L852.058,571.288z M785.004,477.195c-0.089-0.064-0.175-0.131-0.274-0.185l-0.222-0.119
				c-0.005-0.072-0.018-0.142-0.029-0.213c-0.013-0.082-0.026-0.164-0.047-0.245c-0.02-0.078-0.049-0.152-0.076-0.228
				c-0.028-0.076-0.054-0.151-0.09-0.224c-0.039-0.08-0.086-0.155-0.133-0.231c-0.03-0.048-0.051-0.1-0.085-0.147L670.896,318.611
				l60.557,56.636c0.005,0.004,0.009,0.009,0.014,0.013l112.445,105.165l-55.327-5.222c-0.654-0.057-1.306,0.137-1.815,0.552
				L785.004,477.195z M1107.498,296.764l73.437-63.855l-26.665,63.855H1107.498z M1165.621,122.752l17.39,91.736l-23.175-29.269
				L1165.621,122.752z M1155.788,225.366c0.25-0.357,0.403-0.773,0.443-1.207l2.938-31.729l24.749,31.257l-69.268,60.231
				L1155.788,225.366z M965.109,365.931l-14.552-22.433c-0.346-0.532-0.862-0.879-1.428-1.037l25.472-78.638L965.109,365.931z
				 M947.396,347.813l16.298,25.126l-35.057,32.788L947.396,347.813z M736.306,372.939l16.299-25.127l18.759,57.916L736.306,372.939
				z M750.872,342.461c-0.566,0.158-1.083,0.505-1.429,1.038l-14.552,22.433l-9.491-102.11L750.872,342.461z M585.352,283.919
				l-69.268-60.231l24.749-31.258l2.938,31.73c0.04,0.434,0.193,0.85,0.443,1.207L585.352,283.919z M534.38,122.752l5.784,62.466
				l-23.174,29.269L534.38,122.752z M519.067,232.909l73.437,63.855h-46.772L519.067,232.909z M481.215,301.764h62.846
				c0.002,0,0.004,0.001,0.007,0.001c0.003,0,0.007-0.001,0.01-0.001h75.055l-165.268,23.914l-2.066-73.99l27.234,48.794
				C479.474,301.273,480.309,301.764,481.215,301.764z M446.533,242.255l1.943,69.592l-55.578-165.689L446.533,242.255z
				 M628.716,347.228l-158.181-18.909l182.193-26.363l115.815,160.689l-138.528-114.86
				C629.645,347.479,629.194,347.285,628.716,347.228z M648.58,456.773l55.1,22.989l21.547,26.156l-31.476,2.188L648.58,456.773z
				 M749.646,504.221l-18.291,1.271l-24.21-29.388c-0.021-0.026-0.048-0.045-0.071-0.07c-0.06-0.068-0.125-0.13-0.193-0.191
				c-0.058-0.052-0.116-0.103-0.178-0.149c-0.066-0.049-0.135-0.092-0.206-0.135c-0.074-0.044-0.148-0.086-0.225-0.122
				c-0.033-0.015-0.06-0.037-0.094-0.051l-59.237-24.715l37.117-11.233l59.326,21.091l37.45,20.067l-29.558,24.1
				C750.821,504.367,750.257,504.18,749.646,504.221z M746.337,515.174l42.798-34.896l54.941,5.185l-105.379,52.351L746.337,515.174
				z M719.991,593.248l15.793-46.801l60.126,35.07l24.462,41.728l-11.842,22.29l-33.124,25.55l-40.413-25.506L719.991,593.248z
				 M732.319,659.486l16.597,102.094c0.004,0.028,0.019,0.052,0.024,0.079c0.033,0.168,0.084,0.331,0.15,0.488
				c0.021,0.05,0.041,0.099,0.066,0.148c0.092,0.183,0.198,0.358,0.333,0.514c0,0.001,0.001,0.001,0.001,0.002l19.761,22.931
				l-92.447,93.178L732.319,659.486z M691.68,931.421c0.184-0.079,0.364-0.174,0.531-0.302l67.538-51.564l85.762,185.857
				L702.799,960.59L691.68,931.421z M1001.5,960.588l-142.879,104.518l85.621-185.55l67.537,51.564
				c0.248,0.189,0.52,0.319,0.801,0.404L1001.5,960.588z M1027.601,879.338l-92.794-93.528l19.82-22.999
				c0,0,0.001-0.001,0.001-0.002c0.134-0.156,0.241-0.331,0.333-0.514c0.024-0.049,0.045-0.097,0.066-0.148
				c0.066-0.157,0.117-0.319,0.15-0.488c0.005-0.027,0.02-0.052,0.024-0.079l16.668-102.533L1027.601,879.338z M969.347,645.439
				l-40.636,25.646l-33.125-25.55l-11.841-22.29l24.462-41.728l60.279-35.16l15.823,46.89L969.347,645.439z M965.639,537.924
				l-105.571-52.445l55.095-5.2l0.525,0.428c0.251,0.337,0.574,0.595,0.939,0.765l32.792,26.736c0.246,0.328,0.566,0.595,0.944,0.77
				l7.599,6.196L965.639,537.924z M1007.479,508.106l-31.213-2.169l21.707-26.35l54.679-22.813L1007.479,508.106z M957.847,460.528
				l59.326-21.091l37.117,11.233l-59.238,24.715c-0.726,0.303-1.223,0.913-1.427,1.613l-23.487,28.511l-17.616-1.224l-30.274-24.683
				L957.847,460.528z M1071.285,347.228c-0.478,0.058-0.929,0.251-1.299,0.558l-138.528,114.86l115.814-160.69l182.193,26.363
				L1071.285,347.228z M1251.524,311.846l1.944-69.594l53.634-96.094L1251.524,311.846z"/>
		</g>
	</g>
</g>
<g id="Vexels">
	<g>
		<g>
			<path fill="#262626" d="M855.015,1117.307l-0.951-2.057c-0.464-0.99-1.71-1.449-2.754-1.024
				c-1.128,0.388-1.635,1.555-1.169,2.508l1.07,2.317l8.445,18.324c0.081,0.072,0.153,0.213,0.193,0.283
				c0,0.034,0.044,0.034,0.044,0.034c0.038,0.072,0.116,0.14,0.195,0.216c0,0.069,0.036,0.069,0.036,0.102
				c0.113,0.072,0.193,0.109,0.271,0.179c0.038,0,0.038,0,0.038,0c0.119,0.069,0.275,0.175,0.351,0.21c0.038,0,0.038,0,0.038,0
				s0.041,0,0.041,0.038c0.076,0,0.231,0.035,0.311,0.067c0.033,0,0.075,0,0.075,0c0.119,0.035,0.272,0.035,0.393,0.035
				c0.113,0,0.233,0,0.386-0.035c0.037,0,0.075,0,0.075,0c0.116-0.032,0.194-0.067,0.311-0.067c0.042-0.038,0.042-0.038,0.077-0.038
				c0.117-0.034,0.237-0.141,0.311-0.179c0.079-0.031,0.079-0.031,0.079-0.031c0.077-0.07,0.154-0.107,0.229-0.179
				c0.043-0.033,0.043-0.033,0.081-0.102c0.04-0.075,0.154-0.144,0.191-0.216c0.039,0,0.039,0,0.039-0.034
				c0.081-0.07,0.122-0.211,0.159-0.283l0.362-0.778l-2.302-4.984L855.015,1117.307z M937.393,1117.16
				c0.659-0.885,0.509-2.085-0.461-2.688c-0.972-0.671-2.254-0.497-2.99,0.425l-4.428,5.52l2.636,3.224L937.393,1117.16z
				 M872.005,1114.226c-1.046-0.425-2.327,0.034-2.794,1.024l-5.624,12.154l2.307,4.991l7.28-15.661
				C873.598,1115.781,873.096,1114.614,872.005,1114.226z M821.881,1106.755c-0.917-0.915-2.13-1.416-3.42-1.416
				c-1.289,0-2.502,0.501-3.416,1.416l-15.645,15.647c-1.883,1.888-1.883,4.949,0,6.831l15.645,15.649
				c0.914,0.912,2.127,1.412,3.416,1.412c1.29,0,2.503-0.5,3.42-1.407l15.644-15.654c0.913-0.916,1.417-2.124,1.417-3.418
				c0-1.286-0.504-2.5-1.417-3.414L821.881,1106.755z M835.098,1127.222l-15.232,15.229c-0.752,0.751-2.057,0.751-2.8,0
				l-15.233-15.229c-0.776-0.774-0.776-2.034-0.005-2.809l15.239-15.231c0.009-0.013,0.023-0.026,0.039-0.034v12.622
				c-0.621,0.211-1.191,0.543-1.669,1.018c-0.809,0.811-1.252,1.882-1.252,3.027c0,1.144,0.444,2.225,1.252,3.028
				c0.807,0.813,1.883,1.256,3.026,1.256c1.147,0,2.22-0.442,3.034-1.256c1.665-1.666,1.665-4.385,0-6.059
				c-0.478-0.475-1.052-0.803-1.673-1.014v-12.622c0.013,0.008,0.029,0.021,0.043,0.034l15.232,15.231
				c0.375,0.374,0.576,0.876,0.576,1.403C835.674,1126.347,835.473,1126.841,835.098,1127.222z M930.022,1126.276l-2.608-3.252
				l-6.558-8.127c-0.666-0.922-2.022-1.095-2.958-0.425c-0.969,0.603-1.163,1.803-0.505,2.688l7.383,9.115l-7.383,9.192
				c-0.658,0.846-0.463,2.086,0.505,2.686c0.352,0.246,0.782,0.386,1.245,0.386c0.66,0,1.279-0.319,1.713-0.811l6.558-8.166
				l7.006,8.766c0.404,0.506,1.045,0.768,1.639,0.768c0.442,0,0.961-0.206,1.333-0.504c0.882-0.7,0.949-1.968,0.247-2.844
				L930.022,1126.276z M895.679,1113.843c-6.28,0-11.392,5.553-11.392,12.377c0,6.769,5.113,12.281,11.392,12.281
				c3.855,0,7.412-2.105,9.504-5.633c0.505-0.913,0.252-2.045-0.638-2.722c-0.286-0.184-0.626-0.283-0.97-0.283
				c-0.672,0-1.269,0.359-1.592,0.949c-1.317,2.321-3.734,3.755-6.304,3.755c-3.811,0-6.97-3.03-7.535-7.134h16.945
				c1.06,0,1.886-0.822,1.886-1.873l-0.002-0.251C906.497,1118.773,901.635,1113.843,895.679,1113.843z M888.419,1123.548
				c1.032-3.477,3.88-5.773,7.259-5.773c3.313,0,6.174,2.348,7.135,5.773H888.419z M992.767,1134.506c-0.039,0-2.92,0-2.962,0
				c-1.095,0-2.374-0.633-2.374-2.406v-19.681c0-1.156-0.943-2.098-2.105-2.098c-1.116,0-2.101,0.983-2.101,2.098v19.681
				c0,3.891,2.585,6.404,6.58,6.404c0.049,0,2.939,0,2.989-0.003c1.037-0.076,1.853-0.943,1.853-1.997
				C994.647,1135.447,993.814,1134.567,992.767,1134.506z M1024.9,1128.01c-0.893-1.31-2.292-2.229-3.883-2.931
				c-1.549-0.675-3.377-1.134-5.358-1.485h-0.079c-2.094-0.354-3.841-0.926-4.852-1.559c-0.504-0.315-0.857-0.631-1.053-0.919
				c-0.192-0.279-0.27-0.565-0.27-0.984c0-0.745,0.426-1.521,1.48-2.227c1.047-0.708,2.6-1.204,4.346-1.204
				c2.368,0,4.27,1.06,6.253,2.26c0.933,0.565,2.176,0.319,2.756-0.529c0.623-0.814,0.351-1.947-0.54-2.508
				c-1.981-1.167-4.744-2.831-8.469-2.831c-2.526,0-4.89,0.673-6.716,1.873c-1.788,1.208-3.111,3.041-3.111,5.165
				c0,1.057,0.312,2.048,0.898,2.893c0.85,1.238,2.135,2.125,3.603,2.756c1.483,0.637,3.194,1.062,5.015,1.381H1015
				c2.285,0.387,4.192,0.986,5.32,1.658c0.581,0.358,0.932,0.708,1.164,1.064c0.235,0.353,0.348,0.668,0.348,1.128
				c0,0.883-0.503,1.767-1.672,2.547c-1.162,0.775-2.909,1.308-4.849,1.308c-2.76,0.035-5.711-1.452-7.42-2.722
				c-0.856-0.641-2.133-0.532-2.835,0.244c-0.66,0.777-0.544,1.945,0.311,2.58c2.217,1.595,5.745,3.503,9.945,3.535
				c2.754,0,5.279-0.74,7.181-2.011c1.943-1.275,3.338-3.216,3.338-5.481C1025.831,1129.913,1025.486,1128.858,1024.9,1128.01z
				 M960.526,1113.843c-6.281,0-11.392,5.553-11.392,12.377c0,6.769,5.111,12.281,11.392,12.281c3.861,0,7.408-2.105,9.511-5.633
				c0.5-0.913,0.248-2.045-0.64-2.722c-0.291-0.184-0.628-0.283-0.975-0.283c-0.67,0-1.266,0.359-1.592,0.949
				c-1.313,2.321-3.729,3.755-6.305,3.755c-3.811,0-6.969-3.03-7.536-7.134h16.952c1.056,0,1.885-0.822,1.885-1.873v-0.251
				C971.345,1118.773,966.487,1113.843,960.526,1113.843z M953.266,1123.548c1.03-3.477,3.882-5.773,7.26-5.773
				c3.318,0,6.176,2.348,7.139,5.773H953.266z"/>
		</g>
		<g>
			<path fill="#262626" d="M683.07,1127.456c0,0.739,0.007,1.403,0.018,2.002c0.014,0.593,0.081,1.182,0.197,1.76h-1.168
				l-0.43-1.534h-0.088c-0.287,0.504-0.704,0.922-1.253,1.253c-0.547,0.332-1.187,0.496-1.923,0.496
				c-1.438,0-2.509-0.45-3.207-1.361c-0.698-0.906-1.047-2.323-1.047-4.256c0-1.841,0.436-3.242,1.309-4.197
				c0.869-0.959,2.069-1.436,3.592-1.436c0.535,0,0.956,0.027,1.266,0.083c0.308,0.058,0.643,0.151,1.003,0.282v-4.492h1.731
				V1127.456z M678.707,1129.923c0.733,0,1.315-0.194,1.748-0.575c0.431-0.381,0.725-0.961,0.885-1.738v-5.355
				c-0.26-0.202-0.552-0.347-0.885-0.432c-0.332-0.088-0.771-0.131-1.317-0.131c-0.995,0-1.77,0.33-2.336,0.986
				c-0.56,0.653-0.841,1.701-0.841,3.138c0,0.593,0.05,1.139,0.144,1.641c0.091,0.509,0.244,0.939,0.463,1.298
				c0.218,0.363,0.499,0.646,0.853,0.855C677.775,1129.818,678.203,1129.923,678.707,1129.923z"/>
			<path fill="#262626" d="M694.279,1130.311c-0.437,0.346-0.974,0.618-1.628,0.822c-0.659,0.2-1.352,0.3-2.087,0.3
				c-0.819,0-1.533-0.133-2.139-0.4c-0.604-0.265-1.103-0.645-1.491-1.144c-0.388-0.498-0.679-1.091-0.861-1.783
				c-0.192-0.689-0.286-1.465-0.286-2.33c0-1.843,0.412-3.249,1.234-4.214c0.818-0.962,1.994-1.448,3.519-1.448
				c0.49,0,0.977,0.056,1.469,0.166c0.491,0.105,0.929,0.313,1.318,0.616c0.391,0.301,0.705,0.729,0.952,1.283
				c0.245,0.556,0.368,1.286,0.368,2.191c0,0.474-0.044,1.003-0.133,1.576h-6.93c0,0.634,0.063,1.198,0.195,1.687
				c0.127,0.492,0.33,0.903,0.604,1.24c0.274,0.339,0.628,0.6,1.068,0.779c0.442,0.181,0.977,0.271,1.61,0.271
				c0.489,0,0.979-0.09,1.471-0.262c0.488-0.171,0.856-0.375,1.099-0.603L694.279,1130.311z M690.564,1121.629
				c-0.851,0-1.533,0.22-2.043,0.669c-0.51,0.447-0.817,1.21-0.918,2.291h5.359c0-1.098-0.211-1.864-0.63-2.304
				C691.915,1121.847,691.325,1121.629,690.564,1121.629z"/>
			<path fill="#262626" d="M702.118,1128.237c0-0.433-0.131-0.772-0.388-1.015c-0.261-0.244-0.582-0.449-0.962-0.617
				c-0.383-0.165-0.799-0.324-1.251-0.475c-0.456-0.149-0.874-0.346-1.257-0.582c-0.379-0.239-0.699-0.545-0.959-0.918
				c-0.258-0.376-0.389-0.88-0.389-1.514c0-1.036,0.294-1.791,0.886-2.277c0.59-0.483,1.411-0.725,2.464-0.725
				c0.776,0,1.429,0.069,1.952,0.209c0.526,0.136,0.983,0.297,1.373,0.486l-0.412,1.423c-0.332-0.157-0.733-0.297-1.198-0.418
				c-0.471-0.124-0.968-0.185-1.502-0.185c-0.634,0-1.097,0.106-1.392,0.324c-0.297,0.216-0.443,0.591-0.443,1.123
				c0,0.372,0.13,0.666,0.391,0.874c0.258,0.21,0.577,0.398,0.957,0.563c0.382,0.164,0.8,0.327,1.256,0.486
				c0.453,0.157,0.87,0.366,1.25,0.625c0.384,0.26,0.703,0.587,0.963,0.981c0.261,0.399,0.388,0.917,0.388,1.564
				c0,0.464-0.076,0.896-0.226,1.299c-0.152,0.403-0.384,0.751-0.702,1.037c-0.319,0.287-0.709,0.516-1.177,0.679
				c-0.47,0.164-1.022,0.249-1.65,0.249c-0.826,0-1.523-0.08-2.097-0.236c-0.577-0.159-1.058-0.344-1.446-0.562l0.516-1.468
				c0.333,0.187,0.764,0.36,1.298,0.518c0.531,0.16,1.07,0.239,1.62,0.239c0.618,0,1.13-0.122,1.533-0.369
				C701.915,1129.308,702.118,1128.871,702.118,1128.237z"/>
			<path fill="#262626" d="M706.458,1117.093c0-0.33,0.112-0.615,0.336-0.856c0.225-0.238,0.51-0.355,0.853-0.355
				c0.347,0,0.641,0.117,0.885,0.355c0.248,0.24,0.366,0.526,0.366,0.856c0,0.33-0.118,0.605-0.366,0.818
				c-0.244,0.217-0.538,0.327-0.885,0.327c-0.344,0-0.628-0.109-0.853-0.327C706.57,1117.698,706.458,1117.423,706.458,1117.093z
				 M706.825,1120.375h1.729v10.797h-1.729V1120.375z"/>
			<path fill="#262626" d="M720.518,1131.669c0,1.398-0.37,2.429-1.112,3.093c-0.739,0.66-1.838,0.99-3.293,0.99
				c-0.862,0-1.559-0.054-2.086-0.16c-0.522-0.109-0.974-0.25-1.349-0.422l0.454-1.47c0.331,0.132,0.698,0.254,1.101,0.369
				c0.405,0.115,0.93,0.173,1.578,0.173c0.604,0,1.098-0.054,1.479-0.163c0.381-0.107,0.687-0.287,0.917-0.541
				c0.231-0.251,0.388-0.574,0.475-0.972c0.086-0.396,0.13-0.869,0.13-1.414v-1.037h-0.085c-0.289,0.419-0.658,0.737-1.101,0.961
				c-0.448,0.224-1.029,0.337-1.752,0.337c-1.453,0-2.524-0.455-3.207-1.362s-1.026-2.319-1.026-4.235
				c0-1.841,0.438-3.242,1.316-4.197c0.88-0.959,2.176-1.436,3.888-1.436c0.823,0,1.524,0.065,2.109,0.192
				c0.581,0.129,1.101,0.284,1.563,0.452V1131.669z M716.177,1129.901c0.734,0,1.311-0.187,1.73-0.552
				c0.417-0.368,0.714-0.939,0.885-1.715v-5.53c-0.577-0.274-1.31-0.411-2.204-0.411c-0.977,0-1.749,0.334-2.31,0.993
				c-0.562,0.661-0.843,1.701-0.843,3.112c0,0.603,0.053,1.158,0.152,1.66c0.101,0.509,0.258,0.939,0.477,1.298
				c0.214,0.363,0.495,0.643,0.843,0.846C715.251,1129.801,715.672,1129.901,716.177,1129.901z"/>
			<path fill="#262626" d="M730.779,1131.172v-6.151c0-1.125-0.163-1.972-0.486-2.538c-0.324-0.571-0.921-0.854-1.782-0.854
				c-0.766,0-1.396,0.206-1.889,0.617c-0.497,0.408-0.847,0.923-1.048,1.543v7.384h-1.727v-10.797h1.207l0.323,1.317h0.087
				c0.347-0.461,0.812-0.841,1.393-1.135c0.583-0.291,1.279-0.443,2.085-0.443c0.592,0,1.11,0.069,1.553,0.209
				c0.449,0.136,0.819,0.377,1.116,0.723c0.292,0.343,0.517,0.809,0.666,1.392c0.155,0.583,0.227,1.322,0.227,2.214v6.52H730.779z"
				/>
			<path fill="#262626" d="M743.543,1130.311c-0.432,0.346-0.974,0.618-1.631,0.822c-0.654,0.2-1.35,0.3-2.085,0.3
				c-0.819,0-1.533-0.133-2.137-0.4c-0.604-0.265-1.101-0.645-1.491-1.144c-0.39-0.498-0.678-1.091-0.863-1.783
				c-0.19-0.689-0.281-1.465-0.281-2.33c0-1.843,0.411-3.249,1.23-4.214c0.822-0.962,1.994-1.448,3.522-1.448
				c0.491,0,0.979,0.056,1.469,0.166c0.488,0.105,0.927,0.313,1.318,0.616c0.385,0.301,0.704,0.729,0.949,1.283
				c0.244,0.556,0.367,1.286,0.367,2.191c0,0.474-0.043,1.003-0.128,1.576h-6.935c0,0.634,0.065,1.198,0.195,1.687
				c0.128,0.492,0.329,0.903,0.604,1.24c0.273,0.339,0.627,0.6,1.068,0.779c0.439,0.181,0.976,0.271,1.609,0.271
				c0.489,0,0.98-0.09,1.47-0.262c0.489-0.171,0.855-0.375,1.101-0.603L743.543,1130.311z M739.827,1121.629
				c-0.849,0-1.529,0.22-2.04,0.669c-0.51,0.447-0.819,1.21-0.918,2.291h5.357c0-1.098-0.21-1.864-0.627-2.304
				C741.178,1121.847,740.589,1121.629,739.827,1121.629z"/>
			<path fill="#262626" d="M754.923,1127.456c0,0.739,0.007,1.403,0.024,2.002c0.016,0.593,0.079,1.182,0.195,1.76h-1.168
				l-0.432-1.534h-0.086c-0.286,0.504-0.706,0.922-1.252,1.253c-0.547,0.332-1.19,0.496-1.923,0.496
				c-1.436,0-2.508-0.45-3.206-1.361c-0.698-0.906-1.047-2.323-1.047-4.256c0-1.841,0.433-3.242,1.308-4.197
				c0.869-0.959,2.068-1.436,3.597-1.436c0.532,0,0.954,0.027,1.259,0.083c0.314,0.058,0.647,0.151,1.008,0.282v-4.492h1.726
				V1127.456z M750.564,1129.923c0.733,0,1.316-0.194,1.748-0.575c0.431-0.381,0.725-0.961,0.885-1.738v-5.355
				c-0.257-0.202-0.555-0.347-0.885-0.432c-0.33-0.088-0.77-0.131-1.319-0.131c-0.993,0-1.768,0.33-2.331,0.986
				c-0.56,0.653-0.842,1.701-0.842,3.138c0,0.593,0.044,1.139,0.141,1.641c0.091,0.509,0.249,0.939,0.461,1.298
				c0.219,0.363,0.501,0.646,0.857,0.855C749.631,1129.818,750.058,1129.923,750.564,1129.923z"/>
			<path fill="#262626" d="M764.018,1116.056h1.727v5.379h0.088c0.331-0.418,0.751-0.742,1.261-0.974
				c0.51-0.229,1.07-0.347,1.672-0.347c1.401,0,2.445,0.448,3.146,1.342c0.696,0.891,1.044,2.275,1.044,4.147
				c0,1.885-0.461,3.32-1.381,4.297c-0.919,0.979-2.215,1.466-3.887,1.466c-0.806,0-1.537-0.086-2.191-0.258
				c-0.654-0.172-1.149-0.359-1.481-0.563V1116.056z M768.468,1121.629c-0.722,0-1.307,0.2-1.75,0.603
				c-0.446,0.402-0.77,0.973-0.972,1.706v5.441c0.273,0.161,0.607,0.282,0.994,0.361c0.388,0.079,0.793,0.118,1.21,0.118
				c0.977,0,1.76-0.347,2.34-1.039c0.587-0.689,0.875-1.769,0.875-3.237c0-0.56-0.049-1.087-0.15-1.579
				c-0.1-0.489-0.258-0.905-0.475-1.251c-0.214-0.346-0.493-0.622-0.83-0.819C769.369,1121.73,768.955,1121.629,768.468,1121.629z"
				/>
			<path fill="#262626" d="M778.61,1127.373l0.604,2.073h0.109l0.475-2.092l2.105-6.979h1.726l-3.196,9.697
				c-0.246,0.706-0.484,1.391-0.724,2.053c-0.239,0.661-0.5,1.252-0.787,1.773c-0.289,0.52-0.614,0.93-0.973,1.241
				c-0.359,0.31-0.776,0.464-1.252,0.464c-0.518,0-0.943-0.075-1.274-0.214l0.302-1.491c0.187,0.072,0.364,0.106,0.54,0.106
				c0.404,0,0.791-0.212,1.166-0.636c0.373-0.423,0.685-1.155,0.927-2.195l-4.34-10.797h1.987L778.61,1127.373z"/>
		</g>
	</g>
</g>
<g id="Layer_3">
</g>
</svg>
